<?xml version="1.0" encoding="utf-8"?>
<!-- Generator: Adobe Illustrator 16.0.0, SVG Export Plug-In . SVG Version: 6.00 Build 0)  -->
<!DOCTYPE svg PUBLIC "-//W3C//DTD SVG 1.1//EN" "http://www.w3.org/Graphics/SVG/1.1/DTD/svg11.dtd">
<svg version="1.1" id="Layer_1" xmlns="http://www.w3.org/2000/svg" xmlns:xlink="http://www.w3.org/1999/xlink" x="0px" y="0px"
	 width="188.157px" height="186.842px" viewBox="0 0 188.157 186.842" enable-background="new 0 0 188.157 186.842"
	 xml:space="preserve">
<g>
	<g>
		<linearGradient id="SVGID_1_" gradientUnits="userSpaceOnUse" x1="95.0791" y1="23.9155" x2="95.0791" y2="142.7505">
			<stop  offset="0" style="stop-color:#AD6A3C"/>
			<stop  offset="0.376" style="stop-color:#AB693B"/>
			<stop  offset="0.5428" style="stop-color:#A66539"/>
			<stop  offset="0.6684" style="stop-color:#9C5F34"/>
			<stop  offset="0.7732" style="stop-color:#8E562E"/>
			<stop  offset="0.8651" style="stop-color:#7D4B25"/>
			<stop  offset="0.9466" style="stop-color:#683C1A"/>
			<stop  offset="1" style="stop-color:#562F0C"/>
		</linearGradient>
		<polygon fill="url(#SVGID_1_)" points="26.831,73.21 63.98,104.332 53.518,130.281 52.23,142.75 95.08,121.945 137.605,141.107 
			136.64,130.281 128.286,102.033 163.327,73.21 162.326,64.542 115.86,58.927 95.08,23.916 74.298,58.927 27.832,64.542 		"/>
		<g>
			<linearGradient id="SVGID_2_" gradientUnits="userSpaceOnUse" x1="43.3354" y1="77.9512" x2="146.8262" y2="77.9512">
				<stop  offset="0" style="stop-color:#EF5423"/>
				<stop  offset="0.8443" style="stop-color:#680013"/>
				<stop  offset="1" style="stop-color:#663C1F"/>
			</linearGradient>
			<polygon fill="url(#SVGID_2_)" points="128.021,119.65 121.766,89.325 146.826,69.015 112.029,64.81 95.081,36.251 78.129,64.81 
				43.335,69.015 68.393,89.325 62.138,119.65 95.081,105.248 			"/>
			<g>
				<defs>
					<polygon id="SVGID_3_" points="128.021,119.65 121.766,89.325 146.826,69.015 112.029,64.81 95.081,36.251 78.129,64.81 
						43.335,69.015 68.393,89.325 62.138,119.65 95.081,105.248 					"/>
				</defs>
				<clipPath id="SVGID_4_">
					<use xlink:href="#SVGID_3_"  overflow="visible"/>
				</clipPath>
				<g clip-path="url(#SVGID_4_)">
					<g>
						<linearGradient id="SVGID_5_" gradientUnits="userSpaceOnUse" x1="103.3896" y1="117.0957" x2="103.3896" y2="27.1523">
							<stop  offset="0" style="stop-color:#EF5423"/>
							<stop  offset="0.9764" style="stop-color:#680013"/>
							<stop  offset="1" style="stop-color:#663C1F"/>
						</linearGradient>
						<path fill="url(#SVGID_5_)" d="M100.684,116.586c-1.738,0.084-3.469,0.254-5.188,0.51c-0.06-29.979-0.117-59.962-0.177-89.944
							c5.432,1.193,10.818,2.662,16.143,4.398C107.867,59.897,104.275,88.243,100.684,116.586z"/>
					</g>
					<g>
						<linearGradient id="SVGID_6_" gradientUnits="userSpaceOnUse" x1="118.084" y1="126.5508" x2="118.084" y2="34.3184">
							<stop  offset="0" style="stop-color:#EF5423"/>
							<stop  offset="0.9764" style="stop-color:#680013"/>
							<stop  offset="1" style="stop-color:#663C1F"/>
						</linearGradient>
						<path fill="url(#SVGID_6_)" d="M134.859,41.126c-5.111-2.535-10.305-4.805-15.564-6.809
							c-5.996,30.746-11.992,61.489-17.986,92.233c1.316-0.238,2.645-0.412,3.988-0.518C115.15,97.73,125.004,69.431,134.859,41.126
							z"/>
					</g>
					<g>
						<linearGradient id="SVGID_7_" gradientUnits="userSpaceOnUse" x1="81.8281" y1="118.8164" x2="81.8281" y2="23.6465">
							<stop  offset="0" style="stop-color:#EF5423"/>
							<stop  offset="0.9764" style="stop-color:#680013"/>
							<stop  offset="1" style="stop-color:#663C1F"/>
						</linearGradient>
						<path fill="url(#SVGID_7_)" d="M87.242,25.585c-5.477-0.922-10.998-1.57-16.545-1.939
							c5.729,31.724,11.458,63.447,17.188,95.17c1.675-0.512,3.368-0.938,5.074-1.279C91.054,86.888,89.147,56.235,87.242,25.585z"
							/>
					</g>
					<g>
						<linearGradient id="SVGID_8_" gradientUnits="userSpaceOnUse" x1="65.5547" y1="121.6738" x2="65.5547" y2="23.2813">
							<stop  offset="0" style="stop-color:#EF5423"/>
							<stop  offset="0.9764" style="stop-color:#680013"/>
							<stop  offset="1" style="stop-color:#663C1F"/>
						</linearGradient>
						<path fill="url(#SVGID_8_)" d="M62.464,23.304c-5.573-0.094-11.167,0.094-16.772,0.564
							c11.605,32.603,23.214,65.205,34.819,97.805c1.613-0.764,3.249-1.441,4.906-2.039C77.767,87.526,70.116,55.415,62.464,23.304z
							"/>
					</g>
					<g>
						<linearGradient id="SVGID_9_" gradientUnits="userSpaceOnUse" x1="49.353" y1="125.6484" x2="49.353" y2="24.7754">
							<stop  offset="0" style="stop-color:#EF5423"/>
							<stop  offset="0.9764" style="stop-color:#680013"/>
							<stop  offset="1" style="stop-color:#663C1F"/>
						</linearGradient>
						<path fill="url(#SVGID_9_)" d="M37.39,24.775c-5.61,0.752-11.223,1.791-16.826,3.119
							c17.633,32.583,35.264,65.169,52.895,97.754c1.533-1.01,3.095-1.938,4.684-2.783C64.557,90.169,50.974,57.472,37.39,24.775z"
							/>
					</g>
					<g>
						<linearGradient id="SVGID_10_" gradientUnits="userSpaceOnUse" x1="33.3638" y1="130.7285" x2="33.3638" y2="30.084">
							<stop  offset="0" style="stop-color:#EF5423"/>
							<stop  offset="0.9764" style="stop-color:#680013"/>
							<stop  offset="1" style="stop-color:#663C1F"/>
						</linearGradient>
						<path fill="url(#SVGID_10_)" d="M12.231,30.083c-5.589,1.615-11.16,3.521-16.704,5.723
							c23.756,31.642,47.512,63.282,71.268,94.922c1.436-1.252,2.904-2.424,4.406-3.516C51.543,94.836,31.887,62.46,12.231,30.083z"
							/>
					</g>
					<g>
						<linearGradient id="SVGID_11_" gradientUnits="userSpaceOnUse" x1="132.2344" y1="126.0156" x2="132.2344" y2="45.0742">
							<stop  offset="0" style="stop-color:#EF5423"/>
							<stop  offset="0.9764" style="stop-color:#680013"/>
							<stop  offset="1" style="stop-color:#663C1F"/>
						</linearGradient>
						<path fill="url(#SVGID_11_)" d="M157.178,54.247c-4.842-3.318-9.783-6.376-14.813-9.173
							c-11.691,26.951-23.383,53.901-35.074,80.852c1.354-0.039,2.717-0.012,4.088,0.09
							C126.646,102.092,141.912,78.169,157.178,54.247z"/>
					</g>
					<g>
						<linearGradient id="SVGID_12_" gradientUnits="userSpaceOnUse" x1="145.7832" y1="126.9277" x2="145.7832" y2="59.3472">
							<stop  offset="0" style="stop-color:#EF5423"/>
							<stop  offset="0.9764" style="stop-color:#680013"/>
							<stop  offset="1" style="stop-color:#663C1F"/>
						</linearGradient>
						<path fill="url(#SVGID_12_)" d="M178.156,70.837c-4.514-4.086-9.145-7.918-13.885-11.49
							c-16.953,22.287-33.906,44.575-50.861,66.864c1.375,0.168,2.758,0.408,4.143,0.717
							C137.754,108.23,157.955,89.534,178.156,70.837z"/>
					</g>
				</g>
			</g>
			<path fill="#D2963F" d="M95.081,23.916l20.78,35.011l46.465,5.615l-33.623,27.256l7.938,38.483l-41.56-18.17l-41.562,18.17
				l7.938-38.483L27.833,64.542l46.467-5.615L95.081,23.916z M125.902,117.732l-5.852-28.376l23.447-19.006l-32.559-3.934
				L95.081,39.693L79.219,66.417l-32.559,3.934l23.448,19.006l-5.853,28.376l30.825-13.477L125.902,117.732z"/>
		</g>
	</g>
	<g>
		<g>
			<path fill="#00315A" d="M132.412,79.179c0.188-0.771,0.141-1.6-0.244-2.494c-1.79-4.137-6.77-7.141-9.855-10.295
				c-1.238-1.268-2.735-3.82-4.812-3.467c-2.383,0.404-5.027,3.693-6.615,4.787c-7.087,4.891-13.635,10.488-20.353,15.855
				l5.874-7.393c0.742-1.008,1.082-2.154,0.51-3.475c-1.457-3.369-5.515-5.816-8.027-8.385c-1.012-1.035-2.228-3.113-3.92-2.826
				c-1.943,0.33-4.097,3.012-5.389,3.902c-5.744,3.961-11.053,8.496-16.496,12.848c-2.181-4.305-5.618-8.27-7.677-6.555
				C51.668,74.8,29.068,92.509,24.415,95.43c-12.661,7.941-5.303,5.236-0.438,4.709c2.839-0.307,5.026-1.459,6.486-0.203
				c0.818,0.707-1.682,4.91-0.936,5.582c0.294,0.264-0.813,4.553-0.638,4.609c1.433,0.463,2.007-0.596,3.119-1.361
				c0.663-0.457,2.589-1.76,5.197-3.527c0.512,0.986,1.066,1.908,1.782,2.523c0.821,0.705,1.775,1.342,2.524,2.012
				c0.291,0.264,1.516,1.664,1.69,1.721c1.433,0.465,2.007-0.594,3.12-1.359c2.868-1.975,6.26-3.74,9.378-5.27
				c1.346-0.66,2.672-1.379,3.983-2.129c-2.257,3.99-3.771,6.732-3.872,7.014c-0.243,0.686,0.059,1.6,1.087,3.182
				c1.4,2.152,2.367,5.252,4.157,6.795c1.006,0.865,2.18,1.646,3.099,2.471c0.358,0.322,1.86,2.043,2.075,2.113
				c1.759,0.568,2.464-0.73,3.829-1.67c3.522-2.426,7.684-4.59,11.516-6.471c4.351-2.137,8.548-4.742,12.688-7.377
				c-2.056,3.701-3.43,6.234-3.513,6.461c-0.197,0.559,0.048,1.305,0.886,2.59c1.14,1.756,1.928,4.281,3.386,5.537
				c0.82,0.705,1.776,1.34,2.523,2.012c0.292,0.264,1.519,1.664,1.692,1.721c1.433,0.463,2.007-0.594,3.119-1.359
				c2.868-1.977,6.26-3.738,9.379-5.271c5.116-2.51,9.97-5.814,14.796-8.844c2.059,3.146,4.577,5.389,6.217,4.023
				c3.742-3.119,26.339-20.828,30.993-23.747c12.662-7.941,5.303-5.236,0.439-4.709c-2.841,0.307-5.028,1.457-6.487,0.201
				c-0.818-0.705,1.681-4.91,0.935-5.58c-0.293-0.262,0.813-4.553,0.639-4.609c-1.433-0.465-2.009,0.594-3.12,1.361
				c-0.822,0.566-3.602,2.445-7.217,4.893c-1.395-1.221-2.86-2.367-4.006-3.539c-1.012-1.033-2.229-3.113-3.922-2.826
				c-1.94,0.328-4.095,3.01-5.389,3.902c-2.655,1.832-5.22,3.787-7.747,5.791L132.412,79.179z"/>
		</g>
		
			<linearGradient id="SVGID_13_" gradientUnits="userSpaceOnUse" x1="110.5381" y1="128.2598" x2="110.5381" y2="62.207" gradientTransform="matrix(0.9998 -0.0206 0.0206 0.9998 -18.3855 1.3753)">
			<stop  offset="0" style="stop-color:#0C4D7F"/>
			<stop  offset="0.1537" style="stop-color:#13588F"/>
			<stop  offset="0.4836" style="stop-color:#1B72B6"/>
			<stop  offset="0.5142" style="stop-color:#1C75BC"/>
			<stop  offset="0.8135" style="stop-color:#145A92"/>
			<stop  offset="1" style="stop-color:#0A497A"/>
		</linearGradient>
		<path fill="url(#SVGID_13_)" stroke="#00315A" stroke-miterlimit="10" d="M122.315,66.39c3.083,3.154,8.063,6.158,9.853,10.295
			c1.7,3.928-3.173,6.594-5.678,8.629c-8.66,7.027-17.094,13.944-26.567,19.88c-5.985,3.75-12.002,7.861-18.347,10.977
			c-3.831,1.881-7.993,4.045-11.516,6.471c-1.365,0.939-2.07,2.238-3.828,1.67c-0.215-0.07-1.717-1.791-2.076-2.113
			c-0.919-0.824-2.093-1.605-3.099-2.471c-1.79-1.543-2.757-4.643-4.156-6.795c-2.743-4.215-0.319-3.703,3.836-6.666
			c5.493-3.914,10.35-8.607,15.78-12.593c4.645-3.408,9.512-6.508,14.016-10.107c6.72-5.367,13.268-10.965,20.354-15.855
			c1.587-1.094,4.232-4.383,6.614-4.787C119.578,62.569,121.074,65.122,122.315,66.39z M34.805,100.746L34.805,100.746
			c-0.061-0.166-0.106-0.322-0.13-0.463C34.679,100.447,34.716,100.602,34.805,100.746z M34.805,100.746L34.805,100.746
			c-0.089-0.145-0.126-0.299-0.13-0.463c-0.087-0.527,0.086-0.891,0.462-1.227c0.517-0.803,1.315-1.627,1.612-2.223
			c0.318-0.641,0.629-1.287,1.069-1.826c0.604-0.736,1.308-1.378,1.939-2.085c1.724-1.93,3.276-4.041,4.906-6.049
			c3.273-4.029,6.382-8.217,9.404-12.436c1.978-2.76,4.024-2.463,1.793-3.004c-0.181,0.018-0.308,0.125-0.454,0.248
			C51.668,74.8,29.069,92.509,24.415,95.43c-12.661,7.941-5.303,5.236-0.438,4.709c2.839-0.307,5.026-1.459,6.486-0.203
			c0.82,0.707-1.682,4.91-0.933,5.582c0.291,0.264-0.814,4.553-0.64,4.609c1.432,0.463,2.006-0.596,3.118-1.361
			c0.663-0.457,2.589-1.76,5.197-3.525c-0.531-1.027-1.023-2.121-1.604-3.014C35.213,101.627,34.954,101.148,34.805,100.746z
			 M34.675,100.283c-0.006-0.377,0.187-0.799,0.462-1.227C34.761,99.393,34.588,99.756,34.675,100.283z M34.675,100.283
			c-0.006-0.377,0.187-0.799,0.462-1.227C34.761,99.393,34.588,99.756,34.675,100.283z M96.917,72.698
			c-1.457-3.369-5.515-5.816-8.027-8.385c-1.009-1.035-2.228-3.113-3.92-2.826c-1.942,0.33-4.097,3.012-5.389,3.902
			c-5.772,3.98-11.107,8.543-16.582,12.914c-3.668,2.932-7.632,5.457-11.416,8.234c-4.424,3.246-8.38,7.07-12.854,10.259
			c-1.626,1.16-2.926,1.668-3.591,2.26c-0.275,0.428-0.468,0.85-0.462,1.227c0.023,0.141,0.069,0.297,0.13,0.463
			c0.148,0.402,0.408,0.881,0.798,1.48c0.58,0.893,1.072,1.986,1.604,3.014c0.513,0.984,1.066,1.906,1.782,2.521
			c0.821,0.705,1.775,1.342,2.524,2.012c0.291,0.264,1.516,1.664,1.69,1.721c1.433,0.465,2.007-0.594,3.12-1.359
			c2.868-1.975,6.26-3.74,9.379-5.27c5.169-2.539,10.071-5.889,14.947-8.941c7.717-4.835,14.589-10.472,21.642-16.196
			C94.332,78.071,98.302,75.899,96.917,72.698z M151.892,92.444c0,0,0,0,0-0.002c-0.111,0.117-0.228,0.234-0.346,0.348
			C151.688,92.663,151.81,92.546,151.892,92.444z M164.182,87.198c-2.84,0.307-5.028,1.457-6.487,0.203
			c-0.818-0.709,1.682-4.912,0.936-5.582c-0.294-0.262,0.813-4.553,0.638-4.611c-1.433-0.463-2.009,0.596-3.12,1.361
			c-0.749,0.518-3.125,2.125-6.278,4.258c-0.098,0.068-0.479,0.322-0.942,0.637c1.665,1.457,3.231,3.02,4.025,4.854
			c0.698,1.613,0.032,2.969-1.061,4.125c0,0.002,0,0.002,0,0.002c-0.082,0.102-0.203,0.219-0.346,0.346
			c-1.028,0.984-2.314,1.819-3.222,2.556c-1.723,1.928-3.199,3.109-4.832,5.117c-3.272,4.029-6.38,8.217-9.402,12.434
			c-1.668,2.328-2.146,1.613-2.324,2.688c-0.174-0.018,0.838,0.191,0.983,0.07c3.74-3.117,26.339-20.828,30.993-23.747
			C176.404,83.966,169.045,86.669,164.182,87.198z M151.546,92.79c-0.876,0.783-2.676,1.946-3.222,2.556
			C149.231,94.609,150.518,93.774,151.546,92.79z M151.546,92.79c-0.876,0.783-2.676,1.946-3.222,2.556
			C149.231,94.609,150.518,93.774,151.546,92.79z M152.952,88.317c-0.794-1.834-2.36-3.396-4.025-4.854
			c-1.395-1.217-2.856-2.361-4.002-3.531c-1.012-1.033-2.229-3.113-3.922-2.826c-1.94,0.328-4.095,3.01-5.387,3.902
			c-5.772,3.982-11.109,8.543-16.582,12.916c-3.669,2.931-7.634,5.456-11.418,8.233c-4.423,3.244-8.379,7.068-12.854,10.26
			c-3.386,2.41-5.358,1.992-3.126,5.426c1.142,1.756,1.928,4.281,3.386,5.537c0.82,0.705,1.776,1.34,2.525,2.012
			c0.29,0.264,1.517,1.664,1.69,1.721c1.433,0.463,2.007-0.594,3.119-1.359c2.868-1.977,6.26-3.738,9.379-5.271
			c5.17-2.537,10.071-5.885,14.946-8.939c7.719-4.838,14.59-10.473,21.642-16.197c0.546-0.609,2.346-1.772,3.222-2.556
			c0.118-0.113,0.234-0.23,0.346-0.348C152.984,91.286,153.65,89.931,152.952,88.317z"/>
	</g>
	<g>
		<g>
			<path d="M99.564,162.926h-9.556v-35.219l-1.189,4.154l-13.238-15.346l0.564-8.904c-3.455-5.482-6.358-14.212-8.053-24.228
				c-5.871-1.678-8.641-9.607-6.311-18.109c2.037-7.434,7.229-12.625,12.626-12.625c0.719,0,1.431,0.096,2.116,0.283
				c0.55,0.15,1.077,0.359,1.582,0.623c3.298-2.54,7.197-4.436,11.374-5.522c1.612-0.419,3.273-0.632,4.937-0.632
				c3.601,0,7.303,0.952,11.65,2.998c1.783,0.839,3.466,1.857,5.022,3.037c0.796-0.582,1.668-1.004,2.607-1.264
				c0.688-0.188,1.399-0.283,2.117-0.283c5.397,0,10.59,5.191,12.626,12.625c2.341,8.543-0.466,16.508-6.391,18.131
				c-0.188,0.053-0.381,0.098-0.576,0.135c-1.641,10.027-4.509,18.864-7.93,24.474l1.149,9.264l-14.44,15.256l-0.688-2.678V162.926z
				 M94.509,158.426h0.556v-30.721h-0.556V158.426z M92.21,120.602l2.299,4.289v0.961l2.749-5.193l1.592,0.266
				c0.658,0.109,1.371,0.254,2.119,0.428l1.33,0.309l0.284,1.105l7.384-7.801l-1.089-8.77l0.448-0.689
				c3.323-5.102,6.15-13.761,7.756-23.757c0.066-0.408,0.117-0.816,0.168-1.223l0.283-2.268l2.128,0.15
				c0.424,0.029,0.829-0.002,1.196-0.102c3.378-0.926,4.861-6.697,3.243-12.604c-1.597-5.83-5.468-9.314-8.286-9.314
				c-0.316,0-0.628,0.041-0.926,0.123c-0.729,0.201-1.394,0.654-1.975,1.35l-1.48,1.773l-1.733-1.527
				c-1.66-1.461-3.526-2.686-5.549-3.637c-5.389-2.536-9.452-3.146-13.538-2.082c-4.092,1.063-7.861,3.021-10.9,5.662l-1.474,1.281
				l-1.477-1.279c-0.435-0.377-0.916-0.641-1.428-0.781c-0.299-0.082-0.61-0.123-0.927-0.123c-2.818,0-6.688,3.484-8.286,9.314
				c-1.618,5.906-0.135,11.676,3.24,12.602c0.212,0.059,0.471,0.092,0.789,0.105l1.872,0.07l0.309,2.146
				c0.016,0.119,0.031,0.238,0.051,0.357c1.613,10.047,4.575,19.021,7.924,24.011l0.426,0.635l-0.544,8.576l6.597,7.648l0.273-0.955
				l1.256-0.316c0.793-0.201,1.548-0.357,2.308-0.482L92.21,120.602z"/>
		</g>
		<path fill="#4B0000" d="M103.977,124.297c-8.634-2.809-13.144-1.818-18.581,0v-13.234h18.581V124.297z"/>
		<g>
			<path fill="#58595B" d="M80.679,70.222c-1.977,7.217-7.34,12.037-11.976,10.768c-4.637-1.273-6.792-8.15-4.814-15.367
				s7.34-12.037,11.978-10.766C80.501,56.126,82.657,63.007,80.679,70.222z"/>
			
				<ellipse transform="matrix(-0.9645 0.2642 -0.2642 -0.9645 249.1807 100.8103)" fill="#58595B" cx="117.811" cy="67.162" rx="8.704" ry="13.549"/>
		</g>
		<linearGradient id="SVGID_14_" gradientUnits="userSpaceOnUse" x1="84.8594" y1="126.9922" x2="84.8594" y2="102.3145">
			<stop  offset="0" style="stop-color:#FFFFFF"/>
			<stop  offset="0.3628" style="stop-color:#FDFDFD"/>
			<stop  offset="0.5014" style="stop-color:#F6F6F6"/>
			<stop  offset="0.6016" style="stop-color:#EAEAEA"/>
			<stop  offset="0.6833" style="stop-color:#D9D9D9"/>
			<stop  offset="0.7537" style="stop-color:#C3C3C3"/>
			<stop  offset="0.8164" style="stop-color:#A7A7A7"/>
			<stop  offset="0.8733" style="stop-color:#868686"/>
			<stop  offset="0.9258" style="stop-color:#606060"/>
			<stop  offset="0.9727" style="stop-color:#363636"/>
			<stop  offset="1" style="stop-color:#1A1A1A"/>
		</linearGradient>
		<polygon fill="url(#SVGID_14_)" points="87.739,126.992 91.897,112.488 78.657,102.314 77.822,115.494 		"/>
		<linearGradient id="SVGID_15_" gradientUnits="userSpaceOnUse" x1="104.8691" y1="127.0234" x2="104.8691" y2="102.377">
			<stop  offset="0" style="stop-color:#FFFFFF"/>
			<stop  offset="0.3628" style="stop-color:#FDFDFD"/>
			<stop  offset="0.5014" style="stop-color:#F6F6F6"/>
			<stop  offset="0.6016" style="stop-color:#EAEAEA"/>
			<stop  offset="0.6833" style="stop-color:#D9D9D9"/>
			<stop  offset="0.7537" style="stop-color:#C3C3C3"/>
			<stop  offset="0.8164" style="stop-color:#A7A7A7"/>
			<stop  offset="0.8733" style="stop-color:#868686"/>
			<stop  offset="0.9258" style="stop-color:#606060"/>
			<stop  offset="0.9727" style="stop-color:#363636"/>
			<stop  offset="1" style="stop-color:#1A1A1A"/>
		</linearGradient>
		<polygon fill="url(#SVGID_15_)" points="101.354,127.023 97.472,111.93 110.638,102.377 112.267,115.494 		"/>
		<polygon fill="#6F0000" points="92.195,127.453 89.703,122.801 92.195,118.15 97.178,118.15 99.668,122.801 97.178,127.453 		"/>
		<path fill="#808285" d="M74.64,56.972c-3.786-1.039-8.165,2.896-9.779,8.789c-1.614,5.891,0.145,11.508,3.931,12.545
			s8.165-2.896,9.779-8.789C80.184,63.626,78.425,58.007,74.64,56.972z M72.157,66.464l-4.981-2.316l0.422-0.906l4.981,2.316
			L72.157,66.464z"/>
		<path fill="#808285" d="M125.235,65.001c-1.613-5.893-5.994-9.828-9.779-8.789c-3.784,1.037-5.544,6.654-3.93,12.545
			c1.613,5.895,5.994,9.826,9.777,8.789C125.09,76.509,126.849,70.896,125.235,65.001z M117.21,65.306l-0.422-0.906l4.98-2.316
			l0.422,0.906L117.21,65.306z"/>
		<g>
			<g>
				<defs>
					<path id="SVGID_16_" d="M94.859,115.475c4.261,0,4.921,0.377,12.611-4.928c4.945-3.41,9.53-14.768,11.77-28.7
						c0.421-2.615,0.593-5.279,0.424-7.926c-0.603-9.521-5.956-17.67-14.618-21.746c-4.873-2.291-9.794-3.592-15.063-2.223
						c-5.703,1.482-11.175,4.709-14.885,9.331c-5.091,6.34-6.262,14.711-4.999,22.564c2.237,13.933,6.822,25.29,11.767,28.7
						c7.693,5.305,8.354,4.928,12.613,4.928H94.859z"/>
				</defs>
				<clipPath id="SVGID_17_">
					<use xlink:href="#SVGID_16_"  overflow="visible"/>
				</clipPath>
				<rect x="68.836" y="48.583" clip-path="url(#SVGID_17_)" fill="#58595B" width="50.997" height="0.811"/>
				<rect x="68.836" y="49.393" clip-path="url(#SVGID_17_)" fill="#58595B" width="50.997" height="2.542"/>
				<rect x="68.836" y="51.935" clip-path="url(#SVGID_17_)" fill="#57585A" width="50.997" height="2.542"/>
				<rect x="68.836" y="54.478" clip-path="url(#SVGID_17_)" fill="#565759" width="50.997" height="2.541"/>
				<rect x="68.836" y="57.019" clip-path="url(#SVGID_17_)" fill="#555658" width="50.997" height="2.541"/>
				<rect x="68.836" y="59.56" clip-path="url(#SVGID_17_)" fill="#555557" width="50.997" height="2.543"/>
				<rect x="68.836" y="62.103" clip-path="url(#SVGID_17_)" fill="#545456" width="50.997" height="2.541"/>
				<rect x="68.836" y="64.644" clip-path="url(#SVGID_17_)" fill="#535355" width="50.997" height="2.543"/>
				<rect x="68.836" y="67.187" clip-path="url(#SVGID_17_)" fill="#525254" width="50.997" height="2.541"/>
				<rect x="68.836" y="69.728" clip-path="url(#SVGID_17_)" fill="#515153" width="50.997" height="2.543"/>
				<rect x="68.836" y="72.271" clip-path="url(#SVGID_17_)" fill="#505052" width="50.997" height="2.541"/>
				<rect x="68.836" y="74.812" clip-path="url(#SVGID_17_)" fill="#4F4F51" width="50.997" height="2.541"/>
				<rect x="68.836" y="77.353" clip-path="url(#SVGID_17_)" fill="#4E4E50" width="50.997" height="2.543"/>
				<rect x="68.836" y="79.896" clip-path="url(#SVGID_17_)" fill="#4D4D4F" width="50.997" height="2.541"/>
				<rect x="68.836" y="82.437" clip-path="url(#SVGID_17_)" fill="#4C4D4E" width="50.997" height="2.543"/>
				<rect x="68.836" y="84.979" clip-path="url(#SVGID_17_)" fill="#4B4C4D" width="50.997" height="2.541"/>
				<rect x="68.836" y="87.521" clip-path="url(#SVGID_17_)" fill="#4A4B4C" width="50.997" height="2.543"/>
				<rect x="68.836" y="90.063" clip-path="url(#SVGID_17_)" fill="#494A4B" width="50.997" height="2.541"/>
				<rect x="68.836" y="92.604" clip-path="url(#SVGID_17_)" fill="#49494A" width="50.997" height="2.54"/>
				<rect x="68.836" y="95.145" clip-path="url(#SVGID_17_)" fill="#484849" width="50.997" height="2.543"/>
				<rect x="68.836" y="97.688" clip-path="url(#SVGID_17_)" fill="#474648" width="50.997" height="2.541"/>
				<rect x="68.836" y="100.229" clip-path="url(#SVGID_17_)" fill="#464547" width="50.997" height="2.543"/>
				<rect x="68.836" y="102.771" clip-path="url(#SVGID_17_)" fill="#454446" width="50.997" height="2.541"/>
				<rect x="68.836" y="105.313" clip-path="url(#SVGID_17_)" fill="#444345" width="50.997" height="2.541"/>
				<rect x="68.836" y="107.854" clip-path="url(#SVGID_17_)" fill="#434244" width="50.997" height="2.543"/>
				<rect x="68.836" y="110.396" clip-path="url(#SVGID_17_)" fill="#424143" width="50.997" height="2.541"/>
				<rect x="68.836" y="112.938" clip-path="url(#SVGID_17_)" fill="#414042" width="50.997" height="2.543"/>
				<rect x="68.836" y="115.48" clip-path="url(#SVGID_17_)" fill="#414042" width="50.997" height="0.371"/>
			</g>
			<path d="M96.304,117.73C96.303,117.73,96.304,117.73,96.304,117.73l-1.825-0.006l-1.443,0.006c-3.768,0-5.625-0.629-12.447-5.332
				c-5.453-3.762-10.324-15.332-12.711-30.194c-1.514-9.416,0.428-18.057,5.467-24.33c3.872-4.826,9.581-8.413,16.073-10.1
				c1.612-0.419,3.272-0.631,4.936-0.631c3.601,0,7.303,0.952,11.65,2.996c9.301,4.377,15.247,13.213,15.906,23.639
				c0.172,2.68,0.021,5.516-0.447,8.426c-2.39,14.864-7.261,26.435-12.714,30.194C101.93,117.102,100.07,117.73,96.304,117.73z
				 M94.479,113.225l1.824,0.006c0.005,0,0.009,0,0.014,0c2.402,0,3.313-0.008,9.877-4.537c3.612-2.49,8.36-11.869,10.825-27.204
				c0.415-2.58,0.55-5.078,0.4-7.426c-0.555-8.764-5.538-16.186-13.331-19.852c-5.389-2.534-9.455-3.143-13.538-2.082
				c-5.48,1.424-10.473,4.545-13.697,8.561c-4.232,5.27-5.842,12.656-4.532,20.799c2.462,15.335,7.21,24.714,10.822,27.204
				c6.578,4.537,7.48,4.537,9.892,4.537L94.479,113.225z"/>
		</g>
		<linearGradient id="SVGID_18_" gradientUnits="userSpaceOnUse" x1="94.6797" y1="49.4048" x2="94.6797" y2="115.4946">
			<stop  offset="0" style="stop-color:#58595B"/>
			<stop  offset="1" style="stop-color:#1A1A1A"/>
		</linearGradient>
		<path fill="url(#SVGID_18_)" d="M94.859,115.488c4.261,0,4.921,0.377,12.611-4.93c4.945-3.408,9.53-14.768,11.77-28.7
			c0.421-2.615,0.593-5.277,0.424-7.924c-0.603-9.521-5.956-17.672-14.618-21.746c-4.873-2.292-9.794-3.594-15.063-2.224
			c-5.703,1.481-11.175,4.71-14.885,9.332c-5.091,6.34-6.262,14.711-4.999,22.563c2.237,13.933,6.822,25.292,11.767,28.7
			c7.693,5.307,8.354,4.93,12.613,4.93H94.859z"/>
		<g>
			<radialGradient id="SVGID_19_" cx="93.6621" cy="97.5537" r="25.5318" gradientUnits="userSpaceOnUse">
				<stop  offset="0" style="stop-color:#A1A1A1"/>
				<stop  offset="0.4215" style="stop-color:#919294"/>
				<stop  offset="1" style="stop-color:#808285"/>
			</radialGradient>
			<path fill="url(#SVGID_19_)" d="M107.239,93.448c1.067-2.387,2.541-4.893,3.523-7.541c1.158-3.129,1.311-6.322,1.477-9.611
				c0.314-6.34-2.061-11.674-6.862-15.119c-2.139-1.531-4.69-2.424-7.257-2.914c-0.76-0.145-1.527-0.256-2.298-0.332
				c-0.387-0.041-0.776-0.07-1.164-0.094c-0.193-0.012-0.388-0.025-0.582-0.027c-2.53-0.029-5.103,0.313-7.529,1.086
				c-1.659,0.527-3.265,1.266-4.683,2.281c-4.804,3.445-7.177,8.779-6.862,15.119c0.164,3.291,0.316,6.482,1.476,9.609
				c0.982,2.65,2.457,5.154,3.524,7.543c2.305,5.146,0.531,10.79,0.944,16.382c0.305,0.273,0.612,0.516,0.92,0.729
				c7.693,5.307,8.354,4.93,12.613,4.93h0.381c3.99,0,4.823,0.33,11.229-3.986C107.093,105.367,104.702,99.109,107.239,93.448z"/>
		</g>
		<linearGradient id="SVGID_20_" gradientUnits="userSpaceOnUse" x1="103.0859" y1="82.4365" x2="103.0859" y2="66.1606">
			<stop  offset="0" style="stop-color:#A1A1A1"/>
			<stop  offset="1" style="stop-color:#333333"/>
		</linearGradient>
		<path fill="url(#SVGID_20_)" d="M95.252,74.364c0,4.459,3.508,8.072,7.833,8.072c4.326,0,7.835-3.613,7.835-8.072
			s-1.114-6.523-7.835-8.072C98.869,65.321,95.252,69.905,95.252,74.364z"/>
		<path d="M102.934,80.575c-2.557,0-4.637-1.979-4.637-4.41s2.08-4.41,4.637-4.41c2.558,0,4.638,1.979,4.638,4.41
			S105.491,80.575,102.934,80.575z"/>
		<ellipse fill="#FFFFFF" cx="102.934" cy="76.165" rx="3.917" ry="3.689"/>
		<path fill="#0C4D8B" d="M102.934,79.386c-1.567,0-2.739-1.432-2.739-2.711s1.172-2.711,2.739-2.711
			c1.568,0,2.741,1.432,2.741,2.711S104.502,79.386,102.934,79.386z"/>
		<linearGradient id="SVGID_21_" gradientUnits="userSpaceOnUse" x1="84.1558" y1="81.5283" x2="84.1558" y2="66.3286">
			<stop  offset="0" style="stop-color:#A1A1A1"/>
			<stop  offset="1" style="stop-color:#333333"/>
		</linearGradient>
		<path fill="url(#SVGID_21_)" d="M91.448,74.015c0,4.152-3.265,7.514-7.294,7.514c-4.025,0-7.291-3.361-7.291-7.514
			c0-4.15,0-5.422,7.291-7.514C88.027,65.39,91.448,69.864,91.448,74.015z"/>
		<path d="M84.306,80.962c-2.558,0-4.638-1.979-4.638-4.408c0-2.432,2.08-4.408,4.638-4.408c2.558,0,4.639,1.977,4.639,4.408
			C88.945,78.983,86.864,80.962,84.306,80.962z"/>
		<ellipse fill="#FFFFFF" cx="84.307" cy="76.554" rx="3.919" ry="3.688"/>
		<path fill="#0C4D8B" d="M84.306,79.767c-1.567,0-2.739-1.43-2.739-2.711c0-1.279,1.172-2.709,2.739-2.709
			c1.568,0,2.741,1.43,2.741,2.709C87.047,78.337,85.874,79.767,84.306,79.767z"/>
		<path fill="#B8BABC" d="M97.25,87.483c0.807,0,1.46-0.682,1.46-1.52h0.004c0-1.939-2.146-3.457-4.886-3.457
			c-2.739,0-4.885,1.518-4.885,3.457h0.044c0,0.736,0.571,1.332,1.277,1.332L97.25,87.483z"/>
		<g>
			<path fill="#58595B" d="M91.542,85.831c0,0.707-0.571,1.277-1.277,1.277l0,0c-0.706,0-1.277-0.57-1.277-1.277l0,0
				c0-0.705,0.571-1.279,1.277-1.279l0,0C90.971,84.552,91.542,85.126,91.542,85.831L91.542,85.831z"/>
			<path fill="#58595B" d="M98.71,85.831c0,0.805-0.653,1.459-1.46,1.459l0,0c-0.805,0-1.46-0.654-1.46-1.459l0,0
				c0-0.807,0.655-1.461,1.46-1.461l0,0C98.057,84.37,98.71,85.024,98.71,85.831L98.71,85.831z"/>
			<path fill="none" stroke="#58595B" stroke-miterlimit="10" d="M89.561,85.831c0-1.494,1.912-2.707,4.268-2.707
				c2.356,0,4.268,1.213,4.268,2.707"/>
		</g>
		<circle cx="84.306" cy="77.327" r="2.441"/>
		<circle cx="102.934" cy="76.946" r="2.44"/>
		<polygon fill="#94070A" points="92.438,126.541 90.191,122.344 92.438,118.15 96.934,118.15 99.179,122.344 96.934,126.541 		"/>
		<rect x="92.195" y="127.453" fill="#94070A" width="5.056" height="33.223"/>
		<circle fill="#97999C" cx="83.126" cy="76.165" r="0.557"/>
		<circle fill="#97999C" cx="101.831" cy="75.606" r="0.557"/>
		<g>
			<g>
				<g>
					
						<linearGradient id="SVGID_22_" gradientUnits="userSpaceOnUse" x1="1504.9277" y1="325.9795" x2="1500.5492" y2="325.0089" gradientTransform="matrix(-0.9763 -0.2164 -0.2164 0.9763 1636.0083 102.4028)">
						<stop  offset="0" style="stop-color:#FFFFFF"/>
						<stop  offset="0.3726" style="stop-color:#FDFDFD"/>
						<stop  offset="0.5069" style="stop-color:#F6F6F6"/>
						<stop  offset="0.6026" style="stop-color:#EBEBEB"/>
						<stop  offset="0.68" style="stop-color:#DADADA"/>
						<stop  offset="0.7463" style="stop-color:#C4C4C4"/>
						<stop  offset="0.805" style="stop-color:#A8A8A8"/>
						<stop  offset="0.8581" style="stop-color:#888888"/>
						<stop  offset="0.9069" style="stop-color:#626262"/>
						<stop  offset="0.9523" style="stop-color:#373737"/>
						<stop  offset="0.9926" style="stop-color:#090909"/>
						<stop  offset="1" style="stop-color:#000000"/>
					</linearGradient>
					<polygon fill="url(#SVGID_22_)" points="99.061,97.887 95.629,97.924 95.682,92.247 100.131,92.114 					"/>
				</g>
				<g>
					<g>
						
							<linearGradient id="SVGID_23_" gradientUnits="userSpaceOnUse" x1="98.7754" y1="102.9834" x2="94.1383" y2="103.6171" gradientTransform="matrix(0.9908 0.1354 -0.1354 0.9908 10.3828 -20.0311)">
							<stop  offset="0" style="stop-color:#FFFFFF"/>
							<stop  offset="0.0924" style="stop-color:#F5F5F5"/>
							<stop  offset="0.25" style="stop-color:#DADADA"/>
							<stop  offset="0.4538" style="stop-color:#AEAEAE"/>
							<stop  offset="0.6959" style="stop-color:#707070"/>
							<stop  offset="0.9674" style="stop-color:#232323"/>
							<stop  offset="1" style="stop-color:#1A1A1A"/>
						</linearGradient>
						<polygon fill="url(#SVGID_23_)" points="90.207,97.768 94.466,97.801 94.285,93.845 90.733,92.956 						"/>
						
							<linearGradient id="SVGID_24_" gradientUnits="userSpaceOnUse" x1="122.3604" y1="19.3623" x2="117.9827" y2="18.392" gradientTransform="matrix(0.9763 -0.2164 0.2164 0.9763 -32.268 102.4028)">
							<stop  offset="0" style="stop-color:#FFFFFF"/>
							<stop  offset="0.0752" style="stop-color:#F2F2F2"/>
							<stop  offset="0.2137" style="stop-color:#D1D1D1"/>
							<stop  offset="0.4" style="stop-color:#9A9A9A"/>
							<stop  offset="0.6243" style="stop-color:#505050"/>
							<stop  offset="0.8443" style="stop-color:#000000"/>
						</linearGradient>
						<polygon fill="url(#SVGID_24_)" points="88.521,97.725 91.953,97.762 91.9,92.085 87.452,91.952 						"/>
					</g>
					<g>
						
							<linearGradient id="SVGID_25_" gradientUnits="userSpaceOnUse" x1="93.7832" y1="103.0684" x2="88.3646" y2="103.8089" gradientTransform="matrix(0.9908 0.1354 -0.1354 0.9908 10.3828 -20.0311)">
							<stop  offset="0" style="stop-color:#FFFFFF"/>
							<stop  offset="0.0752" style="stop-color:#F5F5F5"/>
							<stop  offset="0.2036" style="stop-color:#DADADA"/>
							<stop  offset="0.3695" style="stop-color:#AEAEAE"/>
							<stop  offset="0.5666" style="stop-color:#707070"/>
							<stop  offset="0.7876" style="stop-color:#232323"/>
							<stop  offset="0.8821" style="stop-color:#000000"/>
						</linearGradient>
						<polygon fill="url(#SVGID_25_)" points="84.559,97.58 89.535,97.617 89.324,92.993 85.174,91.956 						"/>
						
							<linearGradient id="SVGID_26_" gradientUnits="userSpaceOnUse" x1="-42.7651" y1="-23.6729" x2="-47.8817" y2="-24.807" gradientTransform="matrix(0.7949 -0.2228 0.1694 0.9746 123.6881 108.0684)">
							<stop  offset="0" style="stop-color:#FFFFFF"/>
							<stop  offset="0.1783" style="stop-color:#FCFCFC"/>
							<stop  offset="0.2924" style="stop-color:#F4F4F4"/>
							<stop  offset="0.3886" style="stop-color:#E5E5E5"/>
							<stop  offset="0.4749" style="stop-color:#D0D0D0"/>
							<stop  offset="0.5545" style="stop-color:#B5B5B5"/>
							<stop  offset="0.6292" style="stop-color:#949494"/>
							<stop  offset="0.7001" style="stop-color:#6C6C6C"/>
							<stop  offset="0.768" style="stop-color:#3E3E3E"/>
							<stop  offset="0.8312" style="stop-color:#0B0B0B"/>
							<stop  offset="0.8443" style="stop-color:#000000"/>
						</linearGradient>
						<polygon fill="url(#SVGID_26_)" points="82.9,97.895 86.159,97.914 85.817,91.272 81.929,91.163 						"/>
					</g>
					<g>
						<linearGradient id="SVGID_27_" gradientUnits="userSpaceOnUse" x1="98.8691" y1="95.1006" x2="94.2529" y2="95.1006">
							<stop  offset="0" style="stop-color:#969696"/>
							<stop  offset="0.0119" style="stop-color:#9E9E9E"/>
							<stop  offset="0.0785" style="stop-color:#C1C1C1"/>
							<stop  offset="0.146" style="stop-color:#DCDCDC"/>
							<stop  offset="0.214" style="stop-color:#EFEFEF"/>
							<stop  offset="0.2828" style="stop-color:#FBFBFB"/>
							<stop  offset="0.3538" style="stop-color:#FFFFFF"/>
							<stop  offset="0.6197" style="stop-color:#FDFDFD"/>
							<stop  offset="0.7155" style="stop-color:#F6F6F6"/>
							<stop  offset="0.7838" style="stop-color:#EBEBEB"/>
							<stop  offset="0.839" style="stop-color:#DADADA"/>
							<stop  offset="0.8863" style="stop-color:#C4C4C4"/>
							<stop  offset="0.9282" style="stop-color:#A8A8A8"/>
							<stop  offset="0.9651" style="stop-color:#898989"/>
							<stop  offset="0.9989" style="stop-color:#656565"/>
							<stop  offset="1" style="stop-color:#636363"/>
						</linearGradient>
						<polygon fill="url(#SVGID_27_)" points="94.282,93.517 94.253,97.404 98.779,97.215 98.869,92.796 						"/>
					</g>
					<g>
						
							<linearGradient id="SVGID_28_" gradientUnits="userSpaceOnUse" x1="1492.6963" y1="-88.0322" x2="1498.1149" y2="-88.7728" gradientTransform="matrix(-0.9908 0.1354 0.1354 0.9908 1593.3579 -20.0311)">
							<stop  offset="0" style="stop-color:#FFFFFF"/>
							<stop  offset="0.1587" style="stop-color:#FBFBFB"/>
							<stop  offset="0.2996" style="stop-color:#F1F1F1"/>
							<stop  offset="0.4337" style="stop-color:#DEDEDE"/>
							<stop  offset="0.5637" style="stop-color:#C5C5C5"/>
							<stop  offset="0.6906" style="stop-color:#A4A4A4"/>
							<stop  offset="0.8153" style="stop-color:#7C7C7C"/>
							<stop  offset="0.936" style="stop-color:#4D4D4D"/>
							<stop  offset="1" style="stop-color:#303030"/>
						</linearGradient>
						<polygon fill="url(#SVGID_28_)" points="102.662,97.65 97.686,97.688 97.896,93.063 102.047,92.026 						"/>
						
							<linearGradient id="SVGID_29_" gradientUnits="userSpaceOnUse" x1="1682.3965" y1="339.2715" x2="1687.4818" y2="340.3707" gradientTransform="matrix(-0.7737 -0.1968 -0.1765 0.9103 1467.0448 117.043)">
							<stop  offset="0" style="stop-color:#FFFFFF"/>
							<stop  offset="0.2512" style="stop-color:#FCFCFC"/>
							<stop  offset="0.4121" style="stop-color:#F4F4F4"/>
							<stop  offset="0.5476" style="stop-color:#E5E5E5"/>
							<stop  offset="0.6691" style="stop-color:#D0D0D0"/>
							<stop  offset="0.7811" style="stop-color:#B5B5B5"/>
							<stop  offset="0.8863" style="stop-color:#949494"/>
							<stop  offset="0.9842" style="stop-color:#6D6D6D"/>
							<stop  offset="1" style="stop-color:#666666"/>
						</linearGradient>
						<polygon fill="url(#SVGID_29_)" points="104.983,97.898 101.802,97.961 101.883,91.784 106.008,91.612 						"/>
					</g>
					<g>
						<polygon fill="#545456" points="105.078,96.125 82.1,96.092 82.049,95.82 105.142,95.9 						"/>
					</g>
				</g>
			</g>
			<g>
				<path fill="#58595B" d="M105.125,91.981c0.014,0.236-0.079,0.514-0.178,0.809c-0.072,0.217-0.143,0.432-0.184,0.646
					c-0.14,0.713-0.276,1.462-0.38,2.167c-0.06,0.393-0.085,0.795-0.111,1.195c-0.02,0.309-0.045,0.615-0.082,0.918
					c-1.313-0.031-2.962-0.205-4.576-0.379c-2.085-0.225-4.241-0.457-5.819-0.393c-1.55,0.059-2.854,0.1-4.081,0.139
					c-2.127,0.066-3.997,0.125-6.474,0.254c-0.037-0.303-0.062-0.609-0.081-0.916c-0.026-0.402-0.053-0.803-0.111-1.195
					c-0.104-0.707-0.24-1.454-0.38-2.169c-0.041-0.213-0.111-0.43-0.185-0.646c-0.098-0.293-0.19-0.572-0.177-0.809l-1.073-0.064
					c-0.027,0.445,0.109,0.854,0.229,1.215c0.059,0.172,0.116,0.342,0.15,0.51c0.135,0.697,0.268,1.429,0.37,2.122
					c0.055,0.363,0.077,0.734,0.102,1.104c0.024,0.379,0.05,0.758,0.103,1.131c0.031,0.229,0.092,0.461,0.156,0.695
					c0.037,0.139,0.072,0.275,0.101,0.408l0.041,0.729c2.904-0.162,4.938-0.227,7.293-0.299c1.229-0.039,2.54-0.08,4.098-0.139
					c1.425-0.055,3.508,0.166,5.518,0.381c1.905,0.205,3.721,0.4,5.183,0.4c0.253,0,0.494-0.006,0.725-0.02l-0.088-1.602
					c0.01-0.061,0.023-0.119,0.031-0.178c0.053-0.371,0.078-0.75,0.102-1.129c0.024-0.371,0.047-0.74,0.103-1.105
					c0.102-0.691,0.234-1.424,0.37-2.12c0.034-0.17,0.092-0.34,0.15-0.512c0.12-0.359,0.257-0.77,0.229-1.215L105.125,91.981z"/>
				<g>
					
						<line fill="none" stroke="#414042" stroke-width="0.72" stroke-miterlimit="10" x1="80.921" y1="87.483" x2="79.531" y2="93.403"/>
					
						<line fill="none" stroke="#414042" stroke-width="0.72" stroke-miterlimit="10" x1="106.193" y1="88.175" x2="107.584" y2="94.097"/>
					<path fill="none" stroke="#414042" stroke-width="2.16" stroke-miterlimit="10" d="M79.938,90.47
						c4.368,0.809,7.657,2.102,13.008,2.178c3.789,0.055,8.923,0.055,13.943-1.469"/>
				</g>
			</g>
		</g>
	</g>
</g>
</svg>
