<?xml version="1.0" encoding="utf-8"?>
<!-- Generator: Adobe Illustrator 16.0.0, SVG Export Plug-In . SVG Version: 6.00 Build 0)  -->
<!DOCTYPE svg PUBLIC "-//W3C//DTD SVG 1.1//EN" "http://www.w3.org/Graphics/SVG/1.1/DTD/svg11.dtd">
<svg version="1.1" id="Layer_1" xmlns="http://www.w3.org/2000/svg" xmlns:xlink="http://www.w3.org/1999/xlink" x="0px" y="0px"
	 width="467.105px" height="189.474px" viewBox="0 0 467.105 189.474" enable-background="new 0 0 467.105 189.474"
	 xml:space="preserve">
<g>
	<g>
		<polygon fill="none" stroke="#000000" stroke-width="4.5" stroke-miterlimit="10" points="252.931,41.202 267.005,55.006 
			261.939,65.197 261.021,70.213 279.06,63.138 295.695,72.262 295.648,67.841 293.158,56.119 308.287,45.544 308.156,41.998 
			289.49,38.243 282.179,23.381 272.636,36.92 253.613,37.718 		"/>
		<g>
			
				<linearGradient id="SVGID_1_" gradientUnits="userSpaceOnUse" x1="273.5444" y1="65.4526" x2="273.5444" y2="113.7979" gradientTransform="matrix(0.9969 0.0782 -0.0782 0.9969 14.4039 -63.276)">
				<stop  offset="0" style="stop-color:#AD6A3C"/>
				<stop  offset="0.376" style="stop-color:#AB693B"/>
				<stop  offset="0.5428" style="stop-color:#A66539"/>
				<stop  offset="0.6684" style="stop-color:#9C5F34"/>
				<stop  offset="0.7732" style="stop-color:#8E562E"/>
				<stop  offset="0.8651" style="stop-color:#7D4B25"/>
				<stop  offset="0.9466" style="stop-color:#683C1A"/>
				<stop  offset="1" style="stop-color:#562F0C"/>
			</linearGradient>
			<polygon fill="url(#SVGID_1_)" points="252.736,41.184 266.81,54.99 261.742,65.179 260.824,70.197 278.863,63.122 295.5,72.246 
				295.453,67.825 292.962,56.101 308.091,45.527 307.96,41.981 289.294,38.226 281.982,23.365 272.439,36.904 253.416,37.702 			
				"/>
			
				<linearGradient id="SVGID_2_" gradientUnits="userSpaceOnUse" x1="252.4937" y1="87.4365" x2="294.5952" y2="87.4365" gradientTransform="matrix(0.9969 0.0782 -0.0782 0.9969 14.4039 -63.276)">
				<stop  offset="0" style="stop-color:#EF5423"/>
				<stop  offset="0.8443" style="stop-color:#680013"/>
				<stop  offset="1" style="stop-color:#663C1F"/>
			</linearGradient>
			<polygon fill="url(#SVGID_2_)" points="292.296,63.241 290.724,50.741 301.533,43.302 287.552,40.491 281.589,28.368 
				273.806,39.411 259.562,40.009 269.078,49.042 265.576,61.144 279.394,56.35 			"/>
			<g>
				<defs>
					<polygon id="SVGID_3_" points="292.296,63.241 290.724,50.741 301.533,43.302 287.552,40.491 281.589,28.368 273.806,39.411 
						259.562,40.009 269.078,49.042 265.576,61.144 279.394,56.35 					"/>
				</defs>
				<clipPath id="SVGID_4_">
					<use xlink:href="#SVGID_3_"  overflow="visible"/>
				</clipPath>
				<g clip-path="url(#SVGID_4_)">
					<g>
						
							<linearGradient id="SVGID_5_" gradientUnits="userSpaceOnUse" x1="276.9243" y1="103.3608" x2="276.9243" y2="66.771" gradientTransform="matrix(0.9969 0.0782 -0.0782 0.9969 14.4039 -63.276)">
							<stop  offset="0" style="stop-color:#EF5423"/>
							<stop  offset="0.9764" style="stop-color:#680013"/>
							<stop  offset="1" style="stop-color:#663C1F"/>
						</linearGradient>
						<path fill="url(#SVGID_5_)" d="M281.306,61.127c-0.709-0.021-1.416-0.007-2.121,0.04c0.93-12.16,1.859-24.32,2.789-36.481
							c2.166,0.656,4.305,1.423,6.408,2.295C286.023,38.365,283.666,49.747,281.306,61.127z"/>
					</g>
					<g>
						
							<linearGradient id="SVGID_6_" gradientUnits="userSpaceOnUse" x1="282.9009" y1="107.2065" x2="282.9009" y2="69.687" gradientTransform="matrix(0.9969 0.0782 -0.0782 0.9969 14.4039 -63.276)">
							<stop  offset="0" style="stop-color:#EF5423"/>
							<stop  offset="0.9764" style="stop-color:#680013"/>
							<stop  offset="1" style="stop-color:#663C1F"/>
						</linearGradient>
						<path fill="url(#SVGID_6_)" d="M297.566,31.612c-1.992-1.192-4.027-2.277-6.094-3.256
							c-3.412,12.277-6.822,24.554-10.23,36.831c0.543-0.054,1.086-0.082,1.633-0.083C287.773,53.939,292.669,42.776,297.566,31.612
							z"/>
					</g>
					<g>
						
							<linearGradient id="SVGID_7_" gradientUnits="userSpaceOnUse" x1="268.1519" y1="104.062" x2="268.1519" y2="65.3423" gradientTransform="matrix(0.9969 0.0782 -0.0782 0.9969 14.4039 -63.276)">
							<stop  offset="0" style="stop-color:#EF5423"/>
							<stop  offset="0.9764" style="stop-color:#680013"/>
							<stop  offset="1" style="stop-color:#663C1F"/>
						</linearGradient>
						<path fill="url(#SVGID_7_)" d="M278.748,23.792c-2.191-0.547-4.408-0.985-6.646-1.313c1.313,13.049,2.627,26.097,3.943,39.146
							c0.695-0.155,1.396-0.274,2.098-0.357C278.345,48.776,278.546,36.284,278.748,23.792z"/>
					</g>
					<g>
						
							<linearGradient id="SVGID_8_" gradientUnits="userSpaceOnUse" x1="261.5317" y1="105.2241" x2="261.5317" y2="65.1958" gradientTransform="matrix(0.9969 0.0782 -0.0782 0.9969 14.4039 -63.276)">
							<stop  offset="0" style="stop-color:#EF5423"/>
							<stop  offset="0.9764" style="stop-color:#680013"/>
							<stop  offset="1" style="stop-color:#663C1F"/>
						</linearGradient>
						<path fill="url(#SVGID_8_)" d="M268.775,22.081c-2.26-0.216-4.533-0.317-6.822-0.306c3.67,13.591,7.34,27.184,11.01,40.774
							c0.678-0.258,1.365-0.481,2.055-0.672C272.937,48.612,270.855,35.345,268.775,22.081z"/>
					</g>
					<g>
						
							<linearGradient id="SVGID_9_" gradientUnits="userSpaceOnUse" x1="254.9409" y1="106.8384" x2="254.9409" y2="65.8027" gradientTransform="matrix(0.9969 0.0782 -0.0782 0.9969 14.4039 -63.276)">
							<stop  offset="0" style="stop-color:#EF5423"/>
							<stop  offset="0.9764" style="stop-color:#680013"/>
							<stop  offset="1" style="stop-color:#663C1F"/>
						</linearGradient>
						<path fill="url(#SVGID_9_)" d="M258.558,21.878c-2.299,0.126-4.607,0.37-6.924,0.729c6.115,13.775,12.229,27.551,18.34,41.326
							c0.656-0.358,1.32-0.686,1.988-0.977C267.494,49.264,263.027,35.572,258.558,21.878z"/>
					</g>
					<g>
						
							<linearGradient id="SVGID_10_" gradientUnits="userSpaceOnUse" x1="248.436" y1="108.9067" x2="248.436" y2="67.9619" gradientTransform="matrix(0.9969 0.0782 -0.0782 0.9969 14.4039 -63.276)">
							<stop  offset="0" style="stop-color:#EF5423"/>
							<stop  offset="0.9764" style="stop-color:#680013"/>
							<stop  offset="1" style="stop-color:#663C1F"/>
						</linearGradient>
						<path fill="url(#SVGID_10_)" d="M248.187,23.23c-2.32,0.479-4.641,1.074-6.957,1.79c8.627,13.589,17.254,27.178,25.881,40.764
							c0.621-0.463,1.256-0.891,1.898-1.284C262.07,50.744,255.126,36.986,248.187,23.23z"/>
					</g>
					<g>
						
							<linearGradient id="SVGID_11_" gradientUnits="userSpaceOnUse" x1="288.6597" y1="106.9907" x2="288.6597" y2="74.0601" gradientTransform="matrix(0.9969 0.0782 -0.0782 0.9969 14.4039 -63.276)">
							<stop  offset="0" style="stop-color:#EF5423"/>
							<stop  offset="0.9764" style="stop-color:#680013"/>
							<stop  offset="1" style="stop-color:#663C1F"/>
						</linearGradient>
						<path fill="url(#SVGID_11_)" d="M306.201,37.641c-1.859-1.499-3.766-2.897-5.717-4.191
							c-5.598,10.559-11.195,21.116-16.793,31.677c0.549,0.026,1.1,0.08,1.65,0.165C292.296,56.075,299.248,46.86,306.201,37.641z"
							/>
					</g>
					<g>
						
							<linearGradient id="SVGID_12_" gradientUnits="userSpaceOnUse" x1="294.1704" y1="107.3618" x2="294.1704" y2="79.8687" gradientTransform="matrix(0.9969 0.0782 -0.0782 0.9969 14.4039 -63.276)">
							<stop  offset="0" style="stop-color:#EF5423"/>
							<stop  offset="0.9764" style="stop-color:#680013"/>
							<stop  offset="1" style="stop-color:#663C1F"/>
						</linearGradient>
						<path fill="url(#SVGID_12_)" d="M314.181,45.038c-1.701-1.8-3.457-3.503-5.266-5.101c-7.586,8.498-15.17,16.999-22.756,25.498
							c0.553,0.112,1.105,0.254,1.656,0.423C296.605,58.918,305.392,51.978,314.181,45.038z"/>
					</g>
				</g>
			</g>
			<path fill="#D2963F" d="M281.982,23.365l7.313,14.861l18.666,3.755l-14.504,9.984l1.996,15.859l-16.277-8.69l-17.434,6.045
				l4.443-15.354l-12.77-12.123l19.023-0.798L281.982,23.365z M291.496,62.393L290.025,50.7l10.115-6.962l-13.078-2.629
				l-5.582-11.346l-7.285,10.336l-13.328,0.559l8.906,8.454l-3.277,11.321l12.932-4.485L291.496,62.393z"/>
		</g>
	</g>
	<g>
		<g>
			<g>
				<path fill="#00315A" d="M394.453,80.019c0.271-1.107,0.201-2.297-0.35-3.579c-2.57-5.941-9.721-10.254-14.152-14.784
					c-1.777-1.82-3.928-5.485-6.908-4.978c-3.422,0.58-7.219,5.305-9.5,6.875c-10.176,7.021-19.578,15.059-29.223,22.767
					l8.434-10.616c1.066-1.447,1.555-3.092,0.732-4.989c-2.092-4.838-7.918-8.352-11.527-12.04c-1.451-1.484-3.197-4.47-5.627-4.057
					c-2.789,0.473-5.883,4.323-7.738,5.603c-8.248,5.688-15.871,12.2-23.688,18.447c-3.131-6.18-8.066-11.872-11.021-9.41
					c-5.369,4.475-37.822,29.902-44.504,34.099c-18.179,11.404-7.613,7.519-0.627,6.763c4.076-0.441,7.217-2.095,9.313-0.292
					c1.176,1.016-2.414,7.049-1.344,8.014c0.422,0.379-1.168,6.539-0.914,6.62c2.057,0.665,2.881-0.855,4.479-1.954
					c0.951-0.656,3.717-2.528,7.463-5.066c0.734,1.416,1.531,2.739,2.559,3.623c1.18,1.013,2.549,1.927,3.625,2.889
					c0.418,0.379,2.176,2.391,2.426,2.472c2.059,0.666,2.883-0.853,4.48-1.951c4.119-2.837,8.988-5.371,13.467-7.568
					c1.932-0.948,3.836-1.979,5.719-3.057c-3.24,5.73-5.414,9.668-5.559,10.072c-0.35,0.982,0.084,2.297,1.561,4.567
					c2.01,3.09,3.398,7.542,5.969,9.757c1.443,1.243,3.129,2.363,4.449,3.547c0.514,0.463,2.672,2.936,2.98,3.035
					c2.525,0.815,3.537-1.048,5.498-2.398c5.057-3.483,11.031-6.59,16.535-9.29c6.246-3.067,12.273-6.809,18.217-10.592
					c-2.951,5.314-4.924,8.95-5.043,9.275c-0.283,0.804,0.068,1.873,1.271,3.721c1.637,2.521,2.768,6.146,4.861,7.949
					c1.178,1.012,2.551,1.925,3.623,2.889c0.42,0.378,2.182,2.391,2.43,2.472c2.059,0.665,2.883-0.853,4.48-1.952
					c4.117-2.838,8.988-5.367,13.467-7.57c7.346-3.604,14.314-8.348,21.244-12.699c2.957,4.52,6.572,7.739,8.928,5.777
					c5.373-4.477,37.818-29.905,44.502-34.098c18.182-11.403,7.615-7.521,0.631-6.764c-4.078,0.442-7.219,2.093-9.314,0.291
					c-1.176-1.013,2.414-7.051,1.342-8.013c-0.42-0.377,1.168-6.539,0.918-6.618c-2.059-0.668-2.885,0.851-4.48,1.953
					c-1.182,0.813-5.172,3.513-10.363,7.025c-2.002-1.752-4.107-3.399-5.752-5.082c-1.453-1.483-3.199-4.471-5.631-4.059
					c-2.787,0.473-5.881,4.322-7.738,5.604c-3.813,2.633-7.494,5.439-11.123,8.315L394.453,80.019z"/>
			</g>
			
				<linearGradient id="SVGID_13_" gradientUnits="userSpaceOnUse" x1="355.8101" y1="152.0601" x2="355.8101" y2="57.2129" gradientTransform="matrix(0.9998 -0.0206 0.0206 0.9998 -18.4639 4.4664)">
				<stop  offset="0" style="stop-color:#0C4D7F"/>
				<stop  offset="0.1537" style="stop-color:#13588F"/>
				<stop  offset="0.4836" style="stop-color:#1B72B6"/>
				<stop  offset="0.5142" style="stop-color:#1C75BC"/>
				<stop  offset="0.8135" style="stop-color:#145A92"/>
				<stop  offset="1" style="stop-color:#0A497A"/>
			</linearGradient>
			<path fill="url(#SVGID_13_)" stroke="#00315A" stroke-miterlimit="10" d="M379.955,61.656c4.428,4.53,11.578,8.844,14.148,14.784
				c2.441,5.64-4.557,9.468-8.154,12.389c-12.434,10.09-24.543,20.023-38.146,28.548c-8.596,5.385-17.234,11.286-26.344,15.761
				c-5.502,2.7-11.479,5.807-16.535,9.29c-1.961,1.351-2.973,3.214-5.498,2.398c-0.309-0.1-2.465-2.572-2.98-3.035
				c-1.32-1.184-3.006-2.304-4.449-3.547c-2.57-2.215-3.959-6.667-5.969-9.756c-3.938-6.054-0.457-5.317,5.508-9.571
				c7.889-5.622,14.861-12.361,22.66-18.085c6.668-4.893,13.658-9.345,20.125-14.512c9.648-7.708,19.051-15.746,29.225-22.767
				c2.279-1.57,6.078-6.295,9.498-6.875C376.025,56.17,378.173,59.835,379.955,61.656z M254.3,110.991L254.3,110.991
				c-0.086-0.24-0.152-0.463-0.186-0.665C254.119,110.562,254.173,110.784,254.3,110.991z M254.3,110.991L254.3,110.991
				c-0.127-0.207-0.182-0.429-0.186-0.665c-0.125-0.757,0.123-1.278,0.662-1.763c0.742-1.15,1.889-2.334,2.316-3.189
				c0.457-0.922,0.902-1.849,1.535-2.622c0.865-1.059,1.877-1.981,2.785-2.997c2.475-2.771,4.703-5.803,7.043-8.686
				c4.701-5.784,9.164-11.797,13.504-17.854c2.84-3.964,5.779-3.538,2.574-4.314c-0.258,0.026-0.441,0.181-0.65,0.357
				c-5.369,4.475-37.82,29.902-44.504,34.099c-18.179,11.404-7.613,7.519-0.627,6.763c4.076-0.441,7.217-2.095,9.313-0.292
				c1.178,1.016-2.414,7.049-1.34,8.014c0.418,0.379-1.168,6.539-0.918,6.62c2.057,0.665,2.881-0.855,4.479-1.954
				c0.951-0.656,3.717-2.528,7.463-5.064c-0.764-1.474-1.471-3.044-2.303-4.325C254.886,112.255,254.513,111.567,254.3,110.991z
				 M254.115,110.326c-0.01-0.542,0.268-1.146,0.662-1.763C254.238,109.047,253.99,109.569,254.115,110.326z M254.115,110.326
				c-0.01-0.542,0.268-1.146,0.662-1.763C254.238,109.047,253.99,109.569,254.115,110.326z M343.486,70.714
				c-2.092-4.838-7.918-8.352-11.527-12.04c-1.447-1.484-3.197-4.47-5.627-4.057c-2.789,0.473-5.883,4.323-7.738,5.603
				c-8.289,5.717-15.949,12.268-23.811,18.544c-5.266,4.21-10.959,7.835-16.393,11.824c-6.352,4.659-12.031,10.152-18.457,14.731
				c-2.334,1.665-4.201,2.394-5.156,3.243c-0.395,0.616-0.672,1.221-0.662,1.763c0.033,0.202,0.1,0.425,0.186,0.665
				c0.213,0.576,0.586,1.265,1.146,2.126c0.832,1.281,1.539,2.852,2.303,4.325c0.734,1.414,1.531,2.737,2.559,3.621
				c1.18,1.013,2.549,1.927,3.625,2.889c0.418,0.379,2.176,2.391,2.426,2.472c2.059,0.666,2.883-0.853,4.48-1.951
				c4.119-2.837,8.988-5.371,13.467-7.568c7.424-3.645,14.463-8.454,21.463-12.839c11.082-6.943,20.949-15.037,31.076-23.258
				C339.773,78.431,345.474,75.311,343.486,70.714z M422.423,99.068c0,0,0,0,0-0.002c-0.16,0.169-0.326,0.337-0.496,0.499
				C422.132,99.383,422.306,99.213,422.423,99.068z M440.07,91.535c-4.078,0.441-7.219,2.094-9.314,0.292
				c-1.176-1.017,2.414-7.054,1.344-8.014c-0.422-0.378,1.166-6.539,0.916-6.622c-2.059-0.664-2.885,0.854-4.48,1.953
				c-1.076,0.745-4.488,3.053-9.016,6.115c-0.141,0.097-0.688,0.463-1.354,0.915c2.391,2.092,4.641,4.334,5.781,6.969
				c1.002,2.316,0.045,4.262-1.523,5.923c0,0.002,0,0.002,0,0.002c-0.117,0.146-0.291,0.315-0.496,0.497
				c-1.477,1.412-3.324,2.614-4.627,3.672c-2.473,2.768-4.594,4.463-6.938,7.346c-4.699,5.786-9.16,11.8-13.502,17.854
				c-2.395,3.342-3.08,2.315-3.336,3.858c-0.25-0.025,1.203,0.275,1.412,0.101c5.369-4.476,37.818-29.905,44.502-34.1
				C457.621,86.895,447.054,90.775,440.07,91.535z M421.927,99.565c-1.258,1.125-3.842,2.795-4.627,3.672
				C418.603,102.179,420.451,100.977,421.927,99.565z M421.927,99.565c-1.258,1.125-3.842,2.795-4.627,3.672
				C418.603,102.179,420.451,100.977,421.927,99.565z M423.947,93.143c-1.141-2.635-3.391-4.877-5.781-6.969
				c-2.002-1.748-4.102-3.393-5.746-5.072c-1.453-1.483-3.199-4.471-5.631-4.059c-2.787,0.473-5.881,4.322-7.734,5.604
				c-8.289,5.719-15.953,12.269-23.811,18.546c-5.268,4.21-10.961,7.836-16.395,11.824c-6.352,4.659-12.031,10.15-18.457,14.731
				c-4.861,3.463-7.693,2.862-4.488,7.793c1.639,2.521,2.768,6.146,4.861,7.949c1.178,1.012,2.551,1.925,3.627,2.889
				c0.416,0.378,2.178,2.391,2.426,2.472c2.059,0.665,2.883-0.853,4.48-1.952c4.117-2.838,8.988-5.367,13.467-7.57
				c7.424-3.642,14.461-8.448,21.461-12.835c11.084-6.946,20.949-15.039,31.074-23.257c0.785-0.877,3.369-2.547,4.627-3.672
				c0.17-0.162,0.336-0.33,0.496-0.499C423.992,97.405,424.949,95.459,423.947,93.143z"/>
		</g>
		<g>
			<g>
				<path fill="#005020" d="M284.33,80.019c0.27-1.107,0.201-2.297-0.352-3.579c-2.57-5.941-9.719-10.254-14.15-14.784
					c-1.777-1.82-3.928-5.485-6.908-4.978c-3.422,0.58-7.219,5.305-9.5,6.875c-10.176,7.021-19.578,15.059-29.222,22.767
					l8.434-10.616c1.066-1.447,1.553-3.092,0.732-4.989c-2.092-4.838-7.918-8.352-11.527-12.04c-1.453-1.484-3.197-4.47-5.629-4.057
					c-2.789,0.473-5.881,4.323-7.736,5.603c-8.248,5.688-15.871,12.2-23.688,18.447c-3.131-6.18-8.066-11.872-11.023-9.41
					c-5.369,4.475-37.82,29.902-44.502,34.099c-18.18,11.404-7.613,7.519-0.629,6.763c4.076-0.441,7.219-2.095,9.314-0.292
					c1.176,1.016-2.414,7.049-1.344,8.014c0.422,0.379-1.168,6.539-0.916,6.62c2.059,0.665,2.883-0.855,4.48-1.954
					c0.951-0.656,3.717-2.528,7.461-5.066c0.736,1.416,1.531,2.739,2.561,3.623c1.178,1.013,2.549,1.927,3.625,2.889
					c0.416,0.379,2.176,2.391,2.426,2.472c2.059,0.666,2.883-0.853,4.48-1.951c4.119-2.837,8.988-5.371,13.467-7.568
					c1.932-0.948,3.836-1.979,5.719-3.057c-3.24,5.73-5.414,9.668-5.561,10.072c-0.348,0.982,0.086,2.297,1.561,4.567
					c2.012,3.09,3.4,7.542,5.971,9.757c1.443,1.243,3.129,2.363,4.449,3.547c0.514,0.463,2.672,2.936,2.979,3.035
					c2.525,0.815,3.539-1.048,5.5-2.398c5.057-3.483,11.031-6.59,16.535-9.29c6.246-3.067,12.273-6.809,18.217-10.592
					c-2.951,5.314-4.924,8.95-5.043,9.275c-0.283,0.804,0.068,1.873,1.271,3.721c1.637,2.521,2.768,6.146,4.861,7.949
					c1.178,1.012,2.551,1.925,3.623,2.889c0.419,0.378,2.181,2.391,2.429,2.472c2.059,0.665,2.883-0.853,4.479-1.952
					c4.119-2.838,8.988-5.367,13.469-7.57c7.346-3.604,14.314-8.348,21.244-12.699c2.957,4.52,6.572,7.739,8.928,5.777
					c5.373-4.477,37.818-29.905,44.502-34.098c18.182-11.403,7.613-7.521,0.631-6.764c-4.078,0.442-7.221,2.093-9.314,0.291
					c-1.176-1.013,2.412-7.051,1.342-8.013c-0.422-0.377,1.168-6.539,0.916-6.618c-2.057-0.668-2.883,0.851-4.479,1.953
					c-1.182,0.813-5.172,3.513-10.363,7.025c-2.002-1.752-4.107-3.399-5.752-5.082c-1.453-1.483-3.199-4.471-5.631-4.059
					c-2.787,0.473-5.881,4.322-7.738,5.604c-3.813,2.633-7.494,5.439-11.123,8.315L284.33,80.019z"/>
			</g>
			
				<linearGradient id="SVGID_14_" gradientUnits="userSpaceOnUse" x1="245.7104" y1="149.7925" x2="245.7104" y2="54.9448" gradientTransform="matrix(0.9998 -0.0206 0.0206 0.9998 -18.4639 4.4664)">
				<stop  offset="0" style="stop-color:#006C32"/>
				<stop  offset="0.0538" style="stop-color:#007436"/>
				<stop  offset="0.2673" style="stop-color:#009542"/>
				<stop  offset="0.4272" style="stop-color:#30AB47"/>
				<stop  offset="0.5142" style="stop-color:#43B649"/>
				<stop  offset="0.7629" style="stop-color:#009442"/>
				<stop  offset="1" style="stop-color:#007A3B"/>
			</linearGradient>
			<path fill="url(#SVGID_14_)" stroke="#005221" stroke-miterlimit="10" d="M269.832,61.656c4.428,4.53,11.576,8.844,14.146,14.784
				c2.441,5.64-4.555,9.468-8.152,12.389c-12.434,10.09-24.545,20.023-38.146,28.548c-8.595,5.385-17.234,11.286-26.343,15.761
				c-5.502,2.7-11.479,5.807-16.535,9.29c-1.961,1.351-2.975,3.214-5.498,2.398c-0.309-0.1-2.465-2.572-2.98-3.035
				c-1.32-1.184-3.006-2.304-4.449-3.547c-2.57-2.215-3.959-6.667-5.969-9.756c-3.938-6.054-0.459-5.317,5.508-9.571
				c7.889-5.622,14.861-12.361,22.66-18.085c6.668-4.893,13.656-9.345,20.125-14.512c9.648-7.708,19.05-15.746,29.224-22.767
				c2.279-1.57,6.078-6.295,9.498-6.875C265.902,56.17,268.05,59.835,269.832,61.656z M144.178,110.991L144.178,110.991
				c-0.088-0.24-0.152-0.463-0.188-0.665C143.996,110.562,144.051,110.784,144.178,110.991z M144.178,110.991L144.178,110.991
				c-0.127-0.207-0.182-0.429-0.188-0.665c-0.123-0.757,0.125-1.278,0.664-1.763c0.742-1.15,1.889-2.334,2.314-3.189
				c0.457-0.922,0.904-1.849,1.537-2.622c0.865-1.059,1.877-1.981,2.783-2.997c2.477-2.771,4.705-5.803,7.045-8.686
				c4.701-5.784,9.133-11.82,13.504-17.854c3.84-5.299,4.434-2.438,3.012-3.89c-0.693-0.093-0.879-0.244-1.09-0.067
				c-5.369,4.475-37.818,29.902-44.502,34.099c-18.18,11.404-7.613,7.519-0.629,6.763c4.076-0.441,7.219-2.095,9.314-0.292
				c1.178,1.016-2.414,7.049-1.34,8.014c0.418,0.379-1.168,6.539-0.918,6.62c2.057,0.665,2.881-0.855,4.479-1.954
				c0.951-0.656,3.717-2.528,7.461-5.064c-0.762-1.474-1.469-3.044-2.301-4.325C144.764,112.255,144.391,111.567,144.178,110.991z
				 M143.99,110.326c-0.008-0.542,0.27-1.146,0.664-1.763C144.115,109.047,143.867,109.569,143.99,110.326z M143.99,110.326
				c-0.008-0.542,0.27-1.146,0.664-1.763C144.115,109.047,143.867,109.569,143.99,110.326z M233.363,70.714
				c-2.092-4.838-7.918-8.352-11.527-12.04c-1.447-1.484-3.197-4.47-5.629-4.057c-2.787,0.473-5.881,4.323-7.736,5.603
				c-8.289,5.717-15.949,12.268-23.811,18.544c-5.268,4.21-10.959,7.835-16.393,11.824c-6.352,4.659-12.031,10.152-18.457,14.731
				c-2.334,1.665-4.201,2.394-5.156,3.243c-0.395,0.616-0.672,1.221-0.664,1.763c0.035,0.202,0.1,0.425,0.188,0.665
				c0.213,0.576,0.586,1.265,1.146,2.126c0.832,1.281,1.539,2.852,2.301,4.325c0.736,1.414,1.531,2.737,2.561,3.621
				c1.178,1.013,2.549,1.927,3.625,2.889c0.416,0.379,2.176,2.391,2.426,2.472c2.059,0.666,2.883-0.853,4.48-1.951
				c4.119-2.837,8.988-5.371,13.467-7.568c7.422-3.645,14.461-8.454,21.463-12.839c11.08-6.943,20.949-15.037,31.076-23.258
				C229.65,78.431,235.351,75.311,233.363,70.714z M312.3,99.068c0,0,0,0,0-0.002c-0.16,0.169-0.328,0.337-0.496,0.499
				C312.007,99.383,312.181,99.213,312.3,99.068z M329.947,91.535c-4.078,0.441-7.221,2.094-9.314,0.292
				c-1.176-1.017,2.414-7.054,1.344-8.014c-0.424-0.378,1.166-6.539,0.914-6.622c-2.057-0.664-2.883,0.854-4.479,1.953
				c-1.076,0.745-4.488,3.053-9.016,6.115c-0.141,0.097-0.689,0.463-1.354,0.915c2.391,2.092,4.641,4.334,5.779,6.969
				c1.004,2.316,0.047,4.262-1.521,5.923c0,0.002,0,0.002,0,0.002c-0.119,0.146-0.293,0.315-0.496,0.497
				c-1.477,1.412-3.324,2.614-4.627,3.672c-2.473,2.768-4.594,4.463-6.938,7.346c-4.699,5.786-9.162,11.799-13.502,17.854
				c-2.955,4.127-4.324,2.512-3.809,3.769c0.563,0.179,1.25,0.512,1.459,0.336c5.371-4.476,38.244-30.051,44.928-34.245
				C347.498,86.895,336.929,90.775,329.947,91.535z M311.804,99.565c-1.258,1.125-3.844,2.795-4.627,3.672
				C308.48,102.179,310.328,100.977,311.804,99.565z M311.804,99.565c-1.258,1.125-3.844,2.795-4.627,3.672
				C308.48,102.179,310.328,100.977,311.804,99.565z M313.822,93.143c-1.139-2.635-3.389-4.877-5.779-6.969
				c-2.002-1.748-4.102-3.393-5.746-5.072c-1.453-1.483-3.199-4.471-5.631-4.059c-2.787,0.473-5.881,4.322-7.736,5.604
				c-8.287,5.719-15.951,12.269-23.809,18.546c-5.27,4.21-10.961,7.836-16.395,11.824c-6.352,4.659-12.031,10.15-18.457,14.731
				c-4.861,3.463-7.693,2.862-4.488,7.793c1.639,2.521,2.768,6.146,4.861,7.949c1.178,1.012,2.551,1.925,3.627,2.889
				c0.416,0.378,2.177,2.391,2.425,2.472c2.059,0.665,2.883-0.853,4.479-1.952c4.119-2.838,8.988-5.367,13.469-7.57
				c7.422-3.642,14.461-8.448,21.461-12.835c11.082-6.946,20.949-15.039,31.074-23.257c0.783-0.877,3.369-2.547,4.627-3.672
				c0.168-0.162,0.336-0.33,0.496-0.499C313.869,97.405,314.826,95.459,313.822,93.143z"/>
		</g>
		<g>
			<g>
				<path fill="#610000" d="M182.736,80.019c0.271-1.107,0.201-2.297-0.35-3.579c-2.57-5.941-9.721-10.254-14.152-14.784
					c-1.777-1.82-3.928-5.485-6.908-4.978c-3.422,0.58-7.219,5.305-9.5,6.875c-10.176,7.021-19.578,15.059-29.223,22.767
					l8.434-10.616c1.066-1.447,1.555-3.092,0.732-4.989c-2.092-4.838-7.918-8.352-11.527-12.04c-1.451-1.484-3.197-4.47-5.627-4.057
					c-2.789,0.473-5.883,4.323-7.738,5.603c-8.248,5.688-15.871,12.2-23.688,18.447c-3.131-6.18-8.066-11.872-11.021-9.41
					c-5.369,4.475-37.822,29.902-44.504,34.099c-18.18,11.404-7.613,7.519-0.627,6.763c4.076-0.441,7.217-2.095,9.313-0.292
					c1.176,1.016-2.414,7.049-1.344,8.014c0.422,0.379-1.168,6.539-0.914,6.62c2.057,0.665,2.881-0.855,4.479-1.954
					c0.951-0.656,3.717-2.528,7.463-5.066c0.734,1.416,1.531,2.739,2.559,3.623c1.18,1.013,2.549,1.927,3.625,2.889
					c0.418,0.379,2.176,2.391,2.426,2.472c2.059,0.666,2.883-0.853,4.48-1.951c4.119-2.837,8.988-5.371,13.467-7.568
					c1.932-0.948,3.836-1.979,5.719-3.057c-3.24,5.73-5.414,9.668-5.559,10.072c-0.35,0.982,0.084,2.297,1.561,4.567
					c2.01,3.09,3.398,7.542,5.969,9.757c1.443,1.243,3.129,2.363,4.449,3.547c0.514,0.463,2.672,2.936,2.98,3.035
					c2.525,0.815,3.537-1.048,5.498-2.398c5.057-3.483,11.031-6.59,16.535-9.29c6.246-3.067,12.273-6.809,18.217-10.592
					c-2.951,5.314-4.924,8.95-5.043,9.275c-0.283,0.804,0.068,1.873,1.271,3.721c1.637,2.521,2.768,6.146,4.861,7.949
					c1.178,1.012,2.551,1.925,3.623,2.889c0.42,0.378,2.182,2.391,2.43,2.472c2.059,0.665,2.883-0.853,4.48-1.952
					c4.117-2.838,8.988-5.367,13.467-7.57c7.346-3.604,14.314-8.348,21.244-12.699c2.957,4.52,6.572,7.739,8.928,5.777
					c5.373-4.477,37.818-29.905,44.502-34.098c18.181-11.403,7.615-7.521,0.631-6.764c-4.078,0.442-7.219,2.093-9.314,0.291
					c-1.176-1.013,2.414-7.051,1.342-8.013c-0.42-0.377,1.168-6.539,0.918-6.618c-2.059-0.668-2.885,0.851-4.48,1.953
					c-1.182,0.813-5.172,3.513-10.363,7.025c-2.002-1.752-4.107-3.399-5.752-5.082c-1.453-1.483-3.199-4.471-5.631-4.059
					c-2.787,0.473-5.881,4.322-7.738,5.604c-3.813,2.633-7.494,5.439-11.123,8.315L182.736,80.019z"/>
			</g>
			
				<linearGradient id="SVGID_15_" gradientUnits="userSpaceOnUse" x1="144.1406" y1="147.6997" x2="144.1406" y2="52.8516" gradientTransform="matrix(0.9998 -0.0206 0.0206 0.9998 -18.4639 4.4664)">
				<stop  offset="0" style="stop-color:#98080C"/>
				<stop  offset="0.035" style="stop-color:#9F0B10"/>
				<stop  offset="0.2463" style="stop-color:#C8161D"/>
				<stop  offset="0.4045" style="stop-color:#E11B22"/>
				<stop  offset="0.4906" style="stop-color:#ED1C24"/>
				<stop  offset="0.8002" style="stop-color:#B61218"/>
				<stop  offset="1" style="stop-color:#98080C"/>
			</linearGradient>
			<path fill="url(#SVGID_15_)" stroke="#610000" stroke-miterlimit="10" d="M168.238,61.656c4.428,4.53,11.578,8.844,14.148,14.784
				c2.441,5.64-4.557,9.468-8.154,12.389c-12.434,10.09-24.543,20.023-38.146,28.548c-8.596,5.385-17.234,11.286-26.344,15.761
				c-5.502,2.7-11.479,5.807-16.535,9.29c-1.961,1.351-2.973,3.214-5.498,2.398c-0.309-0.1-2.465-2.572-2.98-3.035
				c-1.32-1.184-3.006-2.304-4.449-3.547c-2.57-2.215-3.959-6.667-5.969-9.756c-3.938-6.054-0.457-5.317,5.508-9.571
				c7.889-5.622,14.861-12.361,22.66-18.085c6.668-4.893,13.658-9.345,20.125-14.512c9.648-7.708,19.051-15.746,29.225-22.767
				c2.279-1.57,6.078-6.295,9.498-6.875C164.309,56.17,166.457,59.835,168.238,61.656z M42.584,110.991L42.584,110.991
				c-0.086-0.24-0.152-0.463-0.186-0.665C42.402,110.562,42.457,110.784,42.584,110.991z M42.584,110.991L42.584,110.991
				c-0.127-0.207-0.182-0.429-0.186-0.665c-0.125-0.757,0.123-1.278,0.662-1.763c0.742-1.15,1.889-2.334,2.316-3.189
				c0.457-0.922,0.902-1.849,1.535-2.622c0.865-1.059,1.877-1.981,2.785-2.997c2.475-2.771,4.703-5.803,7.043-8.686
				c4.701-5.784,9.086-11.854,13.504-17.854c2.764-3.751,5.723-3.793,2.764-4.166c-0.26,0.026-0.631,0.032-0.84,0.209
				c-5.369,4.475-37.82,29.902-44.504,34.099c-18.18,11.404-7.613,7.519-0.627,6.763c4.076-0.441,7.217-2.095,9.313-0.292
				c1.178,1.016-2.414,7.049-1.34,8.014c0.418,0.379-1.168,6.539-0.918,6.62c2.057,0.665,2.881-0.855,4.479-1.954
				c0.951-0.656,3.717-2.528,7.463-5.064c-0.764-1.474-1.471-3.044-2.303-4.325C43.17,112.255,42.797,111.567,42.584,110.991z
				 M42.398,110.326c-0.01-0.542,0.268-1.146,0.662-1.763C42.521,109.047,42.273,109.569,42.398,110.326z M42.398,110.326
				c-0.01-0.542,0.268-1.146,0.662-1.763C42.521,109.047,42.273,109.569,42.398,110.326z M131.77,70.714
				c-2.092-4.838-7.918-8.352-11.527-12.04c-1.447-1.484-3.197-4.47-5.627-4.057c-2.789,0.473-5.883,4.323-7.738,5.603
				c-8.289,5.717-15.949,12.268-23.811,18.544c-5.266,4.21-10.959,7.835-16.393,11.824c-6.352,4.659-12.031,10.152-18.457,14.731
				c-2.334,1.665-4.201,2.394-5.156,3.243c-0.395,0.616-0.672,1.221-0.662,1.763c0.033,0.202,0.1,0.425,0.186,0.665
				c0.213,0.576,0.586,1.265,1.146,2.126c0.832,1.281,1.539,2.852,2.303,4.325c0.734,1.414,1.531,2.737,2.559,3.621
				c1.18,1.013,2.549,1.927,3.625,2.889c0.418,0.379,2.176,2.391,2.426,2.472c2.059,0.666,2.883-0.853,4.48-1.951
				c4.119-2.837,8.988-5.371,13.467-7.568c7.424-3.645,14.463-8.454,21.463-12.839c11.082-6.943,20.949-15.037,31.076-23.258
				C128.057,78.431,133.758,75.311,131.77,70.714z M210.707,99.068c0,0,0,0,0-0.002c-0.16,0.169-0.326,0.337-0.496,0.499
				C210.416,99.383,210.59,99.213,210.707,99.068z M228.354,91.535c-4.078,0.441-7.219,2.094-9.314,0.292
				c-1.176-1.017,2.414-7.054,1.344-8.014c-0.422-0.378,1.166-6.539,0.916-6.622c-2.059-0.664-2.885,0.854-4.48,1.953
				c-1.076,0.745-4.488,3.053-9.016,6.115c-0.141,0.097-0.688,0.463-1.354,0.915c2.391,2.092,4.641,4.334,5.781,6.969
				c1.002,2.316,0.045,4.262-1.523,5.923c0,0.002,0,0.002,0,0.002c-0.117,0.146-0.291,0.315-0.496,0.497
				c-1.477,1.412-3.324,2.614-4.627,3.672c-2.473,2.768-4.594,4.463-6.938,7.346c-4.699,5.786-9.096,11.848-13.502,17.854
				c-3.336,4.549-4.133,3.788-2.977,4.029c0.387,0.265,0.844,0.104,1.053-0.07c5.369-4.476,37.818-29.905,44.502-34.1
				C245.904,86.895,235.337,90.775,228.354,91.535z M210.211,99.565c-1.258,1.125-3.842,2.795-4.627,3.672
				C206.887,102.179,208.734,100.977,210.211,99.565z M210.211,99.565c-1.258,1.125-3.842,2.795-4.627,3.672
				C206.887,102.179,208.734,100.977,210.211,99.565z M212.23,93.143c-1.141-2.635-3.391-4.877-5.781-6.969
				c-2.002-1.748-4.102-3.393-5.746-5.072c-1.453-1.483-3.199-4.471-5.631-4.059c-2.787,0.473-5.881,4.322-7.734,5.604
				c-8.289,5.719-15.953,12.269-23.811,18.546c-5.268,4.21-10.961,7.836-16.395,11.824c-6.352,4.659-12.031,10.15-18.457,14.731
				c-4.861,3.463-7.693,2.862-4.488,7.793c1.639,2.521,2.768,6.146,4.861,7.949c1.178,1.012,2.551,1.925,3.627,2.889
				c0.416,0.378,2.178,2.391,2.426,2.472c2.059,0.665,2.883-0.853,4.48-1.952c4.117-2.838,8.988-5.367,13.467-7.57
				c7.424-3.642,14.461-8.448,21.461-12.835c11.084-6.946,20.949-15.039,31.074-23.257c0.785-0.877,3.369-2.547,4.627-3.672
				c0.17-0.162,0.336-0.33,0.496-0.499C212.275,97.405,213.232,95.459,212.23,93.143z"/>
		</g>
	</g>
	<g>
		<g>
			<g>
				<path fill="none" stroke="#000000" stroke-width="4.5" stroke-miterlimit="10" d="M323.302,106.818
					c-0.063-0.736-0.119-1.476-0.18-2.213c0-0.554-0.002-1.112-0.002-1.667c0.131-1.071,0.26-2.139,0.389-3.206
					c0.146-0.771,0.293-1.539,0.438-2.308c-0.072-0.007-0.146-0.013-0.221-0.02c-2.176,0.151-4.354,0.323-6.525,0.521
					c-1.299-0.093-2.596-0.161-3.895-0.244l3.895-5.863c-0.004-0.602-0.01-1.2-0.014-1.802c-0.092-0.393-0.184-0.786-0.277-1.179
					c0.102-0.359,0.203-0.714,0.303-1.07c-0.004-0.876-0.012-1.753-0.02-2.628c0.68,0.099,1.357,0.186,2.037,0.288l3.891-6.209
					c-0.436-1.324-0.877-2.65-1.314-3.984c-0.109-1.415-0.219-2.828-0.33-4.243c-0.043-0.122-0.09-0.244-0.137-0.367
					c-10.549-1.85-21.113-3.38-31.678-4.597c0.068,2.174,0.139,4.35,0.207,6.523c0.045,0.068,0.09,0.136,0.135,0.205
					c-1.227-0.15-2.451-0.309-3.676-0.45c0.002-1.094,0.004-2.189,0.008-3.281c0.039-0.952,0.08-1.909,0.123-2.859
					c-3.596-0.385-7.191-0.736-10.787-1.048l-3.891,6.209c-0.086,0.314-0.17,0.629-0.256,0.941c-0.072-1.55-0.145-3.101-0.219-4.65
					c-0.428-2.173-0.859-4.351-1.293-6.535c0.135-0.408,0.273-0.816,0.408-1.223c-0.557-0.78-1.113-1.563-1.674-2.351
					c-0.049,0.063-0.098,0.125-0.146,0.187c-0.238-0.22-0.475-0.444-0.711-0.666c-0.457,0.226-0.916,0.449-1.373,0.679
					c-0.971-0.334-1.943-0.665-2.916-0.997c-1.064-0.09-2.127-0.18-3.193-0.264c-4.482-0.039-8.963-0.01-13.438,0.091
					c-6.469-0.335-12.935-0.551-19.398-0.65l-3.891,6.209c-0.482,0.565-0.961,1.135-1.441,1.707c-3.18,0.05-6.357,0.103-9.535,0.212
					l-3.371,6.197c-0.174,0.006-0.346,0.006-0.52,0.012c-0.707,1.339-1.412,2.687-2.113,4.042c-1.391,2.329-2.771,4.692-4.141,7.087
					c-0.611,0.983-1.219,1.984-1.826,2.98c-0.688-6.646-1.377-13.286-2.063-19.932c-3.357,0.203-6.715,0.438-10.066,0.702
					l-3.801,6.202c-0.205-1.798-0.41-3.595-0.617-5.395c-12.742,1.138-25.457,2.74-38.139,4.812l-3.256,6.111
					c-0.088-0.733-0.176-1.469-0.264-2.202c-0.125-1.384-0.248-2.767-0.373-4.15c-3.559,0.602-7.113,1.238-10.668,1.913
					l-3.893,6.209c-0.07,1.146-0.141,2.298-0.209,3.45c0.24,0.479,0.482,0.958,0.725,1.438c1.789,11.716,3.576,23.435,5.361,35.151
					c-6.102,1.826-12.188,3.743-18.254,5.798c-1.84-10.836-3.676-21.674-5.518-32.512c-1.012-4.879-2.025-9.761-3.041-14.65
					c-2.959,0.705-5.916,1.436-8.867,2.192l-3.791,6.185c-0.521-2.895-1.041-5.79-1.561-8.685c0.113-1.655,0.229-3.309,0.346-4.955
					c-0.322-0.198-0.646-0.395-0.969-0.591c-0.934-0.322-1.871-0.642-2.807-0.966c-12.607,3.136-25.172,6.732-37.67,10.794
					l-3.893,6.21c1.24,5.968,2.48,11.936,3.721,17.905c-0.314,0.645-0.629,1.289-0.941,1.938c0.611,0.879,1.229,1.758,1.838,2.633
					c0.07,1.534,0.139,3.07,0.209,4.609c0.211,0.414,0.424,0.83,0.635,1.245c-0.049,0.019-0.1,0.038-0.148,0.057
					c0.027,0.904,0.055,1.812,0.086,2.718c0.451,0.552,0.902,1.099,1.357,1.647c1.168,5.617,2.332,11.233,3.5,16.851
					c0.064,0.816,0.129,1.635,0.197,2.455c0.438,1.081,0.871,2.165,1.305,3.243c1.332,6.428,2.67,12.851,4.002,19.275
					c0.734,1.36,1.463,2.716,2.189,4.069c0.814-0.554,1.633-1.101,2.449-1.646c7.18-3.431,14.393-6.694,21.641-9.79
					c0.074,0.04,0.154,0.08,0.229,0.122c1.344-0.575,2.689-1.143,4.037-1.705c2.121-0.634,4.238-1.254,6.361-1.865
					c0.199-0.506,0.396-1.013,0.596-1.518c0.076-0.811,0.154-1.621,0.23-2.43c-0.094-0.427-0.188-0.854-0.281-1.28
					c1.113-0.327,2.229-0.66,3.346-0.981c0.037-0.094,0.074-0.187,0.109-0.28c0.264,1.86,0.523,3.719,0.785,5.581
					c9.992-3.962,20.045-7.606,30.146-10.933c-0.238-1.552,1.289-1.988,1.049-3.539c0.506-0.171-0.752-1.457-0.248-1.626
					c0.227,1.477,0.451,2.953,0.676,4.43c0.305,0.04,0.605,0.085,0.906,0.129c2.949-0.423,5.902-0.826,8.854-1.215l3.891-6.209
					c-0.225-1.939-0.445-3.874-0.67-5.813c0.35,1.941,0.701,3.883,1.049,5.822c0.35,1.011,0.697,2.026,1.045,3.037
					c10.453-3.065,20.959-5.794,31.512-8.184c1.221-0.175,2.439-0.351,3.662-0.519l3.891-6.209c-0.25-0.785-0.5-1.575-0.752-2.36
					c0.166-0.332,0.336-0.666,0.502-0.994c-0.234-1.654-0.465-3.311-0.697-4.967c0.012-0.002,0.025-0.005,0.039-0.008
					c0.727,4.191,1.453,8.381,2.176,12.556c2.725-0.563,5.451-1.103,8.18-1.618l3.893-6.209c-0.496-4.812-0.996-9.621-1.492-14.431
					c0.279-0.56,0.568-1.097,0.848-1.652c3.494,5.988,6.939,11.872,10.332,17.642c0.389,0.74,0.779,1.479,1.164,2.217
					c3.012-0.48,6.025-0.934,9.043-1.359l3.891-6.209c-0.049-0.595-0.1-1.188-0.148-1.78c-1.055-2.279-2.111-4.574-3.176-6.883
					c-1.729-3.032-3.469-6.095-5.223-9.188c-1.416-2.248-2.836-4.512-4.266-6.793c-0.695-1.235-1.391-2.471-2.088-3.715
					c1.857-3.212,3.736-6.355,5.635-9.443c0.936-1.463,1.873-2.914,2.818-4.348c-0.037,0-0.072,0.003-0.109,0.003
					c0.635-1.002,1.271-1.998,1.908-2.986c0.08,0.972,0.16,1.943,0.238,2.915c0.566,5.021,1.133,10.033,1.695,15.039
					c2.037,0.974,4.041,1.914,6.064,2.876c-0.543,0.22-1.088,0.44-1.631,0.662l-3.893,6.209c0.959,7.14,1.91,14.255,2.85,21.354
					c0.416,0.425,0.834,0.847,1.252,1.271c13.212-1.698,26.478-2.873,39.783-3.523l3.639-6.194c0.09,2.093,0.182,4.184,0.273,6.275
					c0.293,0.083,0.588,0.167,0.881,0.249c2.986,0.24,5.971,0.495,8.955,0.768l3.891-6.209c0.021-3.063,0.047-6.118,0.072-9.171
					c0.426,4.298,0.852,8.59,1.27,12.865c10.295-0.087,20.605,0.14,30.932,0.678L323.302,106.818z M95.107,92.519
					c1.551,8.798,3.104,17.597,4.656,26.396c-2.641,2.273-5.27,4.584-7.879,6.951l-3.891,6.209c0.135,0.723,0.27,1.444,0.404,2.168
					c-4.654,1.853-9.301,3.751-13.93,5.74c-0.209-1.307-0.418-2.612-0.625-3.915c-0.041,0.054-0.086,0.108-0.125,0.164
					c0.045-0.81,0.094-1.62,0.143-2.429c-0.307-0.211-0.609-0.422-0.914-0.635c-1.387-6.911-2.77-13.823-4.156-20.737
					c0.016-0.714,0.031-1.429,0.049-2.143c-1.043-3.989-2.092-7.989-3.139-11.988c4.697-1.521,9.402-3.001,14.115-4.391
					c0.285,1.721,0.57,3.444,0.857,5.165c3.6-0.139,7.197-0.257,10.785-0.355L95.107,92.519z M174.143,103.656
					c-0.113,0.522-0.229,1.049-0.342,1.576c0.258,1.689,0.518,3.379,0.777,5.069c-0.891,0.259-1.781,0.507-2.672,0.773
					c-2.982,0.672-5.965,1.369-8.939,2.094c-0.061-0.327-0.119-0.658-0.178-0.987c0.02-0.294,0.037-0.589,0.059-0.884
					c-0.174-0.618-0.344-1.239-0.516-1.859c-0.697-5.192-1.395-10.385-2.092-15.578c-0.148-0.103-0.295-0.206-0.445-0.308
					c-0.15-1.129-0.303-2.253-0.455-3.381c-0.201-0.959-0.404-1.921-0.607-2.88c4.107-0.668,8.219-1.303,12.336-1.87
					c0.531,4.35,1.063,8.697,1.594,13.048c1.438-0.699,2.879-1.383,4.322-2.058c0.162,0.123,0.328,0.245,0.492,0.372
					c0.322-0.302,0.645-0.6,0.967-0.897c0.465,0.127,0.93,0.255,1.393,0.384c0.17-0.324,0.342-0.646,0.512-0.966
					c0.869-0.131,1.734-0.257,2.6-0.382l3.699-6.181c0.254,2.292,0.51,4.585,0.764,6.878c-0.1-0.08-0.201-0.16-0.301-0.24
					c-1.27-0.067-2.541-0.132-3.813-0.193c-0.4,0.39-0.801,0.779-1.199,1.171c-0.627,0.231-1.254,0.466-1.879,0.701
					c-0.729,0.129-1.457,0.258-2.184,0.389L174.143,103.656z M256.621,74.752c0.004,1.45,0.01,2.903,0.016,4.355
					c-3.143-1.548-6.303-3.108-9.473-4.684C250.316,74.51,253.468,74.61,256.621,74.752z M253.939,98.518
					c-4.15,0.232-8.301,0.5-12.445,0.834c-0.031-1.558-0.061-3.113-0.09-4.668c-0.049-0.698-0.102-1.396-0.152-2.094
					C245.511,94.597,249.728,96.559,253.939,98.518z M271.898,80.181c-0.088-1.862-0.176-3.722-0.264-5.581
					c0.023,0.046,0.047,0.094,0.07,0.142c0.445,10.234,0.893,20.468,1.338,30.703c-0.189-1.148-0.379-2.296-0.566-3.448
					c-0.26-5.438-0.518-10.873-0.777-16.308c-1.109,0.181-2.219,0.366-3.328,0.56c-0.129-0.125-0.26-0.251-0.389-0.376
					L271.898,80.181z M286.566,81.819c-0.002,0.064-0.004,0.129-0.008,0.193c-0.029-0.832-0.057-1.663-0.086-2.496
					c0.229,0.35,0.455,0.699,0.684,1.046C286.958,80.98,286.763,81.399,286.566,81.819z M299.748,96.982c0-0.002,0-0.007-0.002-0.01
					c0.156,0.01,0.313,0.021,0.469,0.031C300.058,96.998,299.902,96.988,299.748,96.982z"/>
				<path fill="none" stroke="#000000" stroke-width="4.5" stroke-miterlimit="10" d="M362.72,111.792
					c0.26-6.572,0.52-13.144,0.777-19.714c-1.152-0.238-2.307-0.447-3.459-0.679c0.064-0.446,0.129-0.891,0.193-1.337
					c0.912,0.188,1.824,0.363,2.738,0.556c0.244-1.315,0.49-2.624,0.74-3.931c0.248-1.712,0.498-3.421,0.746-5.126
					c0.02-0.433,0.035-0.86,0.051-1.292c-11.982-3.081-23.99-5.751-36.014-8.007l-3.893,6.209
					c-0.039,12.146-0.08,24.29-0.119,36.436c11.438,0.646,22.889,1.675,34.348,3.094L362.72,111.792z M340.892,94.778
					c-1.139-0.193-2.277-0.408-3.416-0.595c0.023-1.935,0.047-3.87,0.07-5.805c1.145,0.212,2.291,0.423,3.436,0.644
					C340.953,90.94,340.921,92.86,340.892,94.778z"/>
				<path fill="none" stroke="#000000" stroke-width="4.5" stroke-miterlimit="10" d="M399.316,116.462
					c-0.014-0.536-0.029-1.074-0.041-1.612c0.033-0.397,0.066-0.794,0.1-1.189c0.197-0.742,0.395-1.48,0.59-2.221
					c0.195-0.525,0.389-1.05,0.584-1.572c-0.072-0.017-0.146-0.034-0.219-0.054c-2.199-0.271-4.396-0.52-6.594-0.749
					c-1.145-0.252-2.289-0.481-3.434-0.726c0.064-0.124,0.127-0.248,0.191-0.37l3.625-3.299c0.033-0.432,0.066-0.865,0.098-1.298
					c-0.068-0.299-0.135-0.601-0.203-0.897c0.061-0.116,0.119-0.23,0.18-0.347c0.922,0.273,1.844,0.53,2.764,0.808l3.893-6.209
					c-0.357-1.027-0.715-2.063-1.074-3.104c-0.02-1.028-0.043-2.063-0.064-3.097c-0.039-0.097-0.078-0.195-0.115-0.291
					c-10.465-3.423-20.955-6.527-31.467-9.313l-3.891,6.209c-0.07,1.628-0.143,3.254-0.213,4.882
					c0.354,0.515,0.711,1.03,1.064,1.542c-0.225,0.273-0.449,0.551-0.672,0.832c-0.045,0.318-0.09,0.639-0.135,0.959
					c-0.152,3.411-0.303,6.826-0.453,10.237c0.18,3.946,0.361,7.871,0.537,11.779c10.35,1.454,20.703,3.224,31.059,5.309
					L399.316,116.462z"/>
			</g>
			<g>
				<path fill="none" stroke="#000000" stroke-width="4.5" stroke-miterlimit="10" d="M416.595,115.135
					c0.76-0.044,0.746-0.889,0.746-0.889c0.57-2.345,1.551-5.912,1.869-8.29c0.49-3.648,1.236-7.259,1.719-10.909
					c0.785-5.923,2.354-11.242,3.027-17.178c0.277-2.467,0.559-4.935,0.838-7.396c0.176-1.143,0.355-2.291,0.533-3.433
					c-4.287-0.946-13.313-4.225-17.609-5.083l-4.867,3.038c-0.355,0.893-0.705,1.782-1.059,2.68c0.17,0.479,0.336,0.955,0.506,1.431
					c-1.063,15.805-2.125,31.607-3.189,47.414c0.342,0.139,0.688,0.28,1.029,0.42c0.66,0.128,1.277,0.23,1.879,0.323l-3.504,2.285
					c-2.637,0.711-1.477,2.505-1.586,4.577c-0.08,1.471-0.309,2.946-0.51,4.403c-0.23,1.681-1.473,4.597-0.172,5.792
					c1.043,0.961,4.322,0.764,5.654,0.878c1.996,0.171,3.998,0.238,6.002,0.226l3.77,0.002c3.088-0.016,3.889-6.721,4.289-9.262
					c0.23-1.467,1.654-5.591,0.814-7.454c-0.221-0.488-0.6-0.822-1.191-0.909c-1.049-0.154-2.107-0.223-3.166-0.284
					c0.02-0.076,1.979-0.403,1.998-0.488L416.595,115.135z"/>
			</g>
		</g>
		<linearGradient id="SVGID_16_" gradientUnits="userSpaceOnUse" x1="235.9351" y1="166.0288" x2="235.9351" y2="55.8076">
			<stop  offset="0" style="stop-color:#321600"/>
			<stop  offset="0.2857" style="stop-color:#4E2905"/>
			<stop  offset="0.6226" style="stop-color:#623816"/>
			<stop  offset="0.7615" style="stop-color:#613715"/>
			<stop  offset="0.8231" style="stop-color:#5B3210"/>
			<stop  offset="0.8694" style="stop-color:#502A07"/>
			<stop  offset="0.9079" style="stop-color:#3F1D00"/>
			<stop  offset="0.9292" style="stop-color:#281000"/>
		</linearGradient>
		<path fill="url(#SVGID_16_)" d="M103.553,144.935c0.035-0.095,0.072-0.187,0.109-0.281c0.262,1.861,0.521,3.719,0.783,5.581
			c9.994-3.961,20.045-7.605,30.148-10.932c-0.238-1.552,1.287-1.988,1.049-3.539c0.504-0.171-0.754-1.457-0.248-1.627
			c0.225,1.477,0.449,2.953,0.676,4.43c0.303,0.041,0.604,0.086,0.904,0.129c2.949-0.422,5.902-0.825,8.854-1.214l3.891-6.209
			c-0.225-1.939-0.445-3.875-0.668-5.813c0.35,1.94,0.699,3.883,1.047,5.822c0.35,1.011,0.699,2.026,1.045,3.037
			c10.453-3.065,20.959-5.794,31.512-8.184c1.221-0.175,2.441-0.351,3.662-0.519l3.891-6.209c-0.25-0.785-0.498-1.575-0.752-2.36
			c0.168-0.332,0.336-0.666,0.502-0.994c-0.232-1.654-0.465-3.311-0.697-4.967c0.012-0.003,0.027-0.006,0.039-0.009
			c0.729,4.191,1.455,8.382,2.176,12.556c2.725-0.562,5.451-1.102,8.182-1.618l3.891-6.209c-0.496-4.811-0.996-9.62-1.492-14.43
			c0.279-0.56,0.568-1.097,0.85-1.652c3.494,5.987,6.939,11.871,10.33,17.642c0.389,0.74,0.781,1.479,1.164,2.217
			c3.012-0.48,6.025-0.934,9.043-1.36l3.893-6.209c-0.051-0.595-0.1-1.188-0.15-1.779c-1.053-2.28-2.111-4.574-3.176-6.884
			c-1.727-3.031-3.469-6.094-5.223-9.188c-1.414-2.247-2.836-4.511-4.264-6.792c-0.695-1.235-1.391-2.471-2.09-3.715
			c1.857-3.212,3.736-6.356,5.635-9.444c0.936-1.462,1.875-2.913,2.818-4.347c-0.035,0-0.072,0.003-0.109,0.003
			c0.635-1.003,1.271-1.998,1.91-2.986c0.08,0.972,0.158,1.943,0.238,2.915c0.566,5.02,1.133,10.033,1.695,15.039
			c2.035,0.973,4.039,1.914,6.064,2.876c-0.545,0.22-1.088,0.44-1.633,0.661l-3.891,6.21c0.957,7.14,1.908,14.255,2.848,21.354
			c0.418,0.425,0.834,0.847,1.254,1.271c13.21-1.698,26.478-2.873,39.783-3.524l3.637-6.193c0.092,2.092,0.182,4.183,0.273,6.275
			c0.293,0.082,0.588,0.166,0.883,0.249c2.984,0.24,5.971,0.495,8.953,0.768l3.893-6.21c0.02-3.063,0.045-6.117,0.07-9.17
			c0.428,4.298,0.852,8.59,1.271,12.865c10.293-0.087,20.604,0.139,30.932,0.678l3.891-6.209c-0.061-0.736-0.119-1.476-0.18-2.213
			c0-0.555,0-1.112,0-1.668c0.129-1.071,0.258-2.138,0.387-3.205c0.148-0.771,0.293-1.54,0.438-2.309
			c-0.07-0.007-0.145-0.012-0.219-0.02c-2.178,0.151-4.355,0.324-6.527,0.521c-1.297-0.092-2.596-0.161-3.893-0.243l3.893-5.863
			c-0.004-0.602-0.01-1.2-0.014-1.802c-0.09-0.393-0.184-0.786-0.275-1.18c0.1-0.358,0.201-0.713,0.303-1.069
			c-0.006-0.876-0.014-1.753-0.02-2.628c0.678,0.099,1.357,0.186,2.035,0.287l3.893-6.209c-0.438-1.323-0.877-2.65-1.314-3.983
			c-0.111-1.415-0.221-2.828-0.332-4.243c-0.043-0.122-0.09-0.244-0.135-0.367c-10.551-1.85-21.115-3.38-31.678-4.597l-3.336,6.277
			c0.002-1.094,0.006-2.188,0.008-3.281c0.039-0.952,0.082-1.908,0.125-2.858c-3.598-0.385-7.191-0.736-10.787-1.048l-3.893,6.209
			c-0.084,0.314-0.168,0.628-0.254,0.941c-0.074-1.55-0.146-3.101-0.219-4.65c-0.43-2.173-0.861-4.351-1.295-6.536
			c0.137-0.407,0.273-0.815,0.408-1.223c-0.557-0.779-1.113-1.563-1.674-2.35c-0.049,0.063-0.098,0.125-0.146,0.187
			c-0.236-0.221-0.475-0.444-0.711-0.666c-0.457,0.226-0.916,0.448-1.373,0.679c-0.971-0.334-1.943-0.665-2.914-0.997
			c-1.066-0.09-2.127-0.18-3.193-0.264c-4.482-0.039-8.965-0.01-13.439,0.091c-6.469-0.335-12.933-0.551-19.396-0.65l-3.893,6.209
			c-0.482,0.565-0.961,1.135-1.441,1.707c-3.178,0.05-6.357,0.102-9.535,0.211l-3.371,6.198c-0.174,0.006-0.346,0.006-0.52,0.011
			c-0.707,1.34-1.41,2.688-2.111,4.043c-1.391,2.329-2.773,4.692-4.141,7.087c-0.613,0.983-1.219,1.984-1.828,2.979
			c-0.688-6.646-1.377-13.286-2.063-19.931c-3.357,0.203-6.713,0.438-10.066,0.702l-3.801,6.202
			c-0.203-1.798-0.41-3.596-0.615-5.395c-12.742,1.138-25.459,2.74-38.139,4.812l-3.258,6.11c-0.086-0.733-0.176-1.468-0.262-2.201
			c-0.127-1.384-0.25-2.767-0.375-4.15c-3.559,0.602-7.113,1.238-10.668,1.912l-3.891,6.209c-0.07,1.146-0.143,2.299-0.211,3.451
			c0.24,0.479,0.484,0.958,0.727,1.438c1.787,11.716,3.574,23.435,5.361,35.151c-6.102,1.825-12.189,3.742-18.256,5.798
			c-1.84-10.836-3.676-21.674-5.518-32.512c-1.01-4.879-2.023-9.762-3.041-14.651c-2.959,0.706-5.916,1.437-8.867,2.193
			l-3.791,6.184c-0.52-2.894-1.041-5.789-1.561-8.684c0.113-1.656,0.229-3.31,0.346-4.955c-0.322-0.198-0.646-0.395-0.969-0.591
			c-0.932-0.322-1.869-0.643-2.807-0.966c-12.607,3.135-25.17,6.731-37.67,10.794l-3.891,6.209
			c1.238,5.968,2.48,11.937,3.719,17.905c-0.313,0.646-0.627,1.29-0.941,1.938c0.613,0.879,1.229,1.758,1.838,2.633
			c0.07,1.534,0.139,3.069,0.209,4.609c0.211,0.414,0.424,0.83,0.635,1.245c-0.049,0.019-0.1,0.038-0.148,0.057
			c0.029,0.904,0.055,1.812,0.086,2.717c0.451,0.553,0.902,1.1,1.357,1.647c1.168,5.618,2.334,11.233,3.502,16.852
			c0.064,0.815,0.129,1.635,0.195,2.455c0.438,1.081,0.871,2.165,1.305,3.243c1.334,6.428,2.67,12.85,4.004,19.275
			c0.732,1.36,1.463,2.716,2.188,4.069c0.816-0.554,1.633-1.101,2.451-1.646c7.18-3.432,14.393-6.694,21.639-9.79
			c0.076,0.04,0.154,0.079,0.229,0.121c1.346-0.574,2.689-1.143,4.037-1.705c2.121-0.634,4.238-1.253,6.361-1.864L103.553,144.935z
			 M94.654,92.438c1.551,8.797,3.102,17.597,4.654,26.396c-2.641,2.272-5.27,4.584-7.877,6.951l-3.893,6.209
			c0.135,0.722,0.27,1.444,0.404,2.168c-4.654,1.852-9.301,3.751-13.928,5.74c-0.211-1.307-0.42-2.612-0.627-3.915
			c-0.041,0.054-0.084,0.108-0.125,0.164c0.045-0.811,0.094-1.621,0.143-2.429c-0.305-0.212-0.607-0.422-0.914-0.635
			c-1.385-6.912-2.77-13.823-4.156-20.738c0.016-0.714,0.033-1.429,0.049-2.143c-1.041-3.989-2.09-7.988-3.137-11.987
			c4.697-1.521,9.4-3.001,14.113-4.391c0.285,1.721,0.572,3.444,0.859,5.164c3.598-0.139,7.195-0.256,10.783-0.354L94.654,92.438z
			 M173.689,103.575c-0.115,0.522-0.229,1.049-0.344,1.576c0.26,1.689,0.52,3.379,0.777,5.068c-0.889,0.26-1.781,0.508-2.67,0.774
			c-2.982,0.672-5.965,1.368-8.941,2.094c-0.061-0.327-0.119-0.658-0.178-0.987c0.02-0.295,0.037-0.589,0.061-0.884
			c-0.174-0.618-0.346-1.239-0.518-1.859c-0.697-5.192-1.395-10.385-2.092-15.579c-0.148-0.102-0.295-0.206-0.445-0.307
			c-0.15-1.129-0.303-2.254-0.453-3.381c-0.203-0.959-0.406-1.921-0.607-2.88c4.107-0.668,8.219-1.303,12.334-1.871
			c0.533,4.35,1.064,8.698,1.594,13.048c1.439-0.698,2.881-1.383,4.322-2.057c0.164,0.123,0.328,0.245,0.492,0.371
			c0.324-0.301,0.646-0.599,0.969-0.897c0.463,0.128,0.928,0.256,1.391,0.385c0.172-0.324,0.342-0.646,0.514-0.967
			c0.867-0.13,1.734-0.256,2.6-0.381l3.699-6.182c0.254,2.293,0.508,4.586,0.762,6.878c-0.1-0.079-0.199-0.159-0.299-0.239
			c-1.271-0.067-2.543-0.132-3.813-0.193c-0.402,0.39-0.801,0.779-1.201,1.171c-0.625,0.231-1.254,0.465-1.879,0.701
			c-0.729,0.129-1.455,0.258-2.184,0.388L173.689,103.575z M256.166,74.671c0.006,1.45,0.012,2.902,0.018,4.355
			c-3.145-1.548-6.305-3.109-9.473-4.684C249.861,74.429,253.013,74.529,256.166,74.671z M253.484,98.436
			c-4.15,0.233-8.301,0.501-12.443,0.835c-0.031-1.558-0.061-3.113-0.09-4.668c-0.051-0.698-0.102-1.396-0.154-2.094
			C245.056,94.516,249.273,96.477,253.484,98.436z M271.443,80.099c-0.088-1.862-0.176-3.722-0.262-5.581
			c0.021,0.047,0.045,0.095,0.068,0.143c0.445,10.234,0.893,20.468,1.34,30.703c-0.189-1.148-0.379-2.296-0.566-3.448
			c-0.26-5.438-0.518-10.873-0.777-16.308c-1.109,0.181-2.221,0.365-3.33,0.559c-0.129-0.124-0.258-0.251-0.389-0.375
			L271.443,80.099z M286.111,81.737c-0.002,0.064-0.004,0.13-0.006,0.194c-0.029-0.832-0.059-1.663-0.088-2.496
			c0.229,0.349,0.457,0.699,0.686,1.046C286.503,80.899,286.308,81.318,286.111,81.737z M299.292,96.901c0-0.003,0-0.007-0.002-0.01
			c0.156,0.01,0.313,0.021,0.469,0.031C299.603,96.917,299.449,96.907,299.292,96.901z M362.515,90.537
			c0.246-1.315,0.49-2.624,0.74-3.931c0.248-1.712,0.498-3.422,0.748-5.127c0.018-0.432,0.035-0.859,0.051-1.291
			c-11.984-3.081-23.992-5.751-36.016-8.007l-3.891,6.209c-0.039,12.146-0.08,24.289-0.119,36.436
			c11.436,0.646,22.889,1.675,34.346,3.094l3.891-6.209c0.26-6.572,0.52-13.144,0.779-19.715c-1.152-0.238-1.403-0.27-2.556-0.501
			L362.515,90.537z M337.023,94.102c0.021-1.935,0.047-3.87,0.07-5.805c1.145,0.211,1.582,0.288,2.729,0.509L337.023,94.102z
			 M394.97,122.59c-10.354-2.086-20.709-3.855-31.059-5.31c-0.176-3.907-0.355-7.833-0.537-11.778
			c0.15-3.412,0.303-6.826,0.455-10.238c0.043-0.319,0.09-0.641,0.135-0.959c0.221-0.28,0.447-0.558,0.67-0.831
			c-0.354-0.512-0.709-1.028-1.064-1.543c0.072-1.628,0.143-3.253,0.213-4.881l3.891-6.209c10.512,2.786,21.002,5.891,31.469,9.313
			c0.037,0.096,0.076,0.193,0.113,0.29c0.023,1.035,0.045,2.068,0.066,3.098c0.359,1.041,0.717,2.075,1.072,3.104l-3.891,6.209
			c-0.922-0.277-1.844-0.534-2.764-0.808c-0.061,0.116-0.119,0.229-0.18,0.347c0.066,0.297,0.135,0.599,0.203,0.897
			c-0.033,0.433-0.066,0.866-0.098,1.298l-3.625,3.298c-0.064,0.122-0.129,0.247-0.193,0.37c1.145,0.244,2.291,0.475,3.436,0.727
			c2.197,0.229,4.393,0.479,6.592,0.749c0.074,0.02,0.148,0.036,0.219,0.054c-0.193,0.522-0.389,1.047-0.582,1.571
			c-0.197,0.74-0.395,1.479-0.592,2.222c-0.033,0.396-0.064,0.792-0.1,1.188c0.012,0.539,0.027,1.077,0.041,1.613L394.97,122.59z
			 M413.962,116.948c-0.02,0.085-1.98,0.412-1.998,0.487c1.059,0.062,2.117,0.131,3.164,0.285c0.594,0.087,0.973,0.421,1.191,0.908
			c0.84,1.864-0.582,5.988-0.814,7.454c-0.4,2.541-1.199,9.247-4.289,9.263l-3.77-0.002c-2.004,0.013-4.006-0.055-6.002-0.226
			c-1.332-0.115-4.611,0.083-5.654-0.878c-1.301-1.196-0.057-4.111,0.172-5.793c0.201-1.456,0.432-2.932,0.512-4.402
			c0.107-2.073-1.053-3.866,1.586-4.577l3.504-2.286c-0.602-0.092-1.219-0.194-1.879-0.322c-0.342-0.14-0.689-0.281-1.031-0.421
			c1.064-15.806,2.127-31.608,3.189-47.413c-0.17-0.476-0.336-0.952-0.504-1.431c0.352-0.897,0.703-1.788,1.057-2.68l4.867-3.039
			c4.297,0.858,13.322,4.137,17.611,5.084c-0.18,1.141-0.359,2.289-0.535,3.433c-0.279,2.462-0.559,4.93-0.838,7.396
			c-0.674,5.936-2.242,11.254-3.025,17.178c-0.484,3.649-1.229,7.261-1.721,10.909c-0.318,2.378-1.297,5.945-1.869,8.29
			c0,0,0.016,0.844-0.746,0.889L413.962,116.948z"/>
		<linearGradient id="SVGID_17_" gradientUnits="userSpaceOnUse" x1="237.8804" y1="159.8198" x2="237.8804" y2="55.8076">
			<stop  offset="0.0472" style="stop-color:#D2963F"/>
			<stop  offset="0.3161" style="stop-color:#D5A257"/>
			<stop  offset="0.934" style="stop-color:#DEC18C"/>
		</linearGradient>
		<path fill="url(#SVGID_17_)" d="M424.875,66.959c-0.18,1.141-0.359,2.289-0.535,3.433c-0.279,2.462-0.559,4.93-0.838,7.396
			c-0.674,5.936-2.242,11.254-3.025,17.178c-0.484,3.649-1.229,7.261-1.721,10.909c-0.318,2.378-1.125,5.993-1.869,8.29
			c-0.199,0.615,0.576,0.854-2.688,1.146c-3.564-0.729-6.076-0.802-9.646-1.49c-0.342-0.141-0.689-0.282-1.031-0.421
			c1.064-15.806,2.127-31.609,3.189-47.414c-0.17-0.476-0.336-0.952-0.504-1.431c0.352-0.896,0.703-1.787,1.057-2.68
			C411.56,62.734,420.585,66.012,424.875,66.959z M416.32,118.628c0.84,1.864-0.582,5.988-0.814,7.454
			c-0.4,2.541-0.102,6.207-3.191,6.223c-2.004,0.011-4.006-0.055-6.002-0.227c-1.332-0.114-4.611,0.083-5.654-0.877
			c-1.301-1.196-0.057-4.112,0.172-5.793c0.201-1.457,0.432-2.933,0.512-4.403c0.105-2.074-1.053-3.866,1.586-4.577
			c2.158-0.584,4.516,0.662,6.652,0.852c1.84,0.162,3.715,0.168,5.549,0.44C415.722,117.807,416.101,118.141,416.32,118.628z
			 M136.105,117.625c0.795,5.159,1.586,10.313,2.379,15.47c-10.104,3.326-20.154,6.971-30.148,10.932
			c-0.521-3.716-1.043-7.428-1.563-11.14c-3.146-17.83-6.291-35.664-9.436-53.495c2.951-0.757,5.908-1.487,8.867-2.193
			c1.018,4.89,2.031,9.772,3.041,14.651c1.842,10.838,3.678,21.676,5.518,32.512C121.854,121.959,128.969,119.712,136.105,117.625z
			 M141.701,70.402c0.125,1.384,0.248,2.767,0.375,4.15c0.348,2.94,0.697,5.882,1.049,8.824c1.025,7.071,2.049,14.136,3.076,21.205
			c0.266,1.521,0.529,3.04,0.795,4.556c0.287,1.977,0.572,3.957,0.857,5.933c0.621,5.396,1.242,10.796,1.865,16.203
			c-2.949,0.388-4.985,0.661-7.937,1.083c-0.299-0.043-0.603-6.597-0.905-6.638c-2.232-10.307-6.523-30.133-9.328-48.516
			c-0.242-0.479-0.484-0.958-0.727-1.438c0.068-1.152,0.141-2.306,0.211-3.451C134.588,71.64,138.143,71.003,141.701,70.402z
			 M189.645,111.01c-0.129,0.026-0.258,0.054-0.385,0.077c0.232,1.656,0.465,3.313,0.697,4.967
			c-0.166,0.328-0.334,0.662-0.502,0.994c0.254,0.785,0.502,1.575,0.752,2.36c-1.221,0.168-2.441,0.343-3.66,0.519
			c-10.555,2.39-21.059,5.118-31.514,8.184c-0.346-1.011-0.695-2.026-1.045-3.037c-0.557-3.104-1.115-6.207-1.674-9.313
			c0.039-0.148,0.078-0.295,0.115-0.44c-0.469-1.637-0.938-3.277-1.41-4.92c-0.641-4.502-1.279-9.002-1.918-13.503
			c0.084-0.018,0.172-0.036,0.26-0.058c-0.049-0.339-0.096-0.679-0.145-1.021c-0.328-1.251-0.654-2.499-0.984-3.752
			c-0.014-0.401-0.023-0.806-0.035-1.206c-0.074-0.198-0.148-0.399-0.223-0.601c0.107-0.399,0.219-0.802,0.328-1.2
			c-0.799-5.621-1.596-11.24-2.393-16.863c-0.105-0.516-0.209-1.036-0.314-1.555c12.68-2.071,25.396-3.674,38.139-4.812
			c0.615,5.385,1.23,10.767,1.848,16.146c0.289,0.7,0.578,1.395,0.865,2.09c-0.113,0.454-0.223,0.91-0.338,1.367
			c0.094,1.065,0.184,2.133,0.275,3.197c-0.865,0.124-1.732,0.251-2.6,0.381c-0.172,0.32-0.342,0.643-0.514,0.967
			c-0.463-0.13-0.926-0.257-1.391-0.385c-0.322,0.299-0.645,0.596-0.967,0.897c-0.164-0.126-0.33-0.248-0.492-0.371
			c-1.443,0.674-2.885,1.358-4.324,2.057c-0.529-4.35-1.061-8.698-1.592-13.048c-5.797,0.8-11.586,1.698-17.365,2.693
			c0.582,2.759,1.164,5.516,1.746,8.267c0.15,1.127,0.303,2.252,0.453,3.381c0.15,0.101,0.297,0.205,0.445,0.307
			c0.697,5.194,1.395,10.387,2.092,15.579c0.172,0.62,0.344,1.241,0.518,1.859c-0.023,0.295-0.041,0.589-0.061,0.884
			c0.059,0.329,0.117,0.66,0.178,0.987c2.977-0.726,5.959-1.422,8.941-2.094c2.432-0.728,4.867-1.431,7.309-2.119
			c-0.51-3.308-1.018-6.622-1.525-9.934c0.115-0.526,0.229-1.053,0.344-1.576c0.729-0.13,1.455-0.259,2.184-0.388
			c0.625-0.236,1.254-0.47,1.879-0.701c0.4-0.392,0.799-0.781,1.201-1.171c1.27,0.062,2.541,0.126,3.813,0.193
			c0.18,0.143,0.361,0.286,0.541,0.432C188.02,100.832,188.834,105.927,189.645,111.01z M224.777,63.657
			c-4.207,6.379-8.322,13.044-12.346,20c0.699,1.244,1.395,2.479,2.09,3.715c1.428,2.281,2.85,4.545,4.264,6.792
			c1.754,3.094,3.496,6.156,5.223,9.188c1.064,2.31,2.123,4.604,3.176,6.884c0.051,0.592,0.1,1.185,0.15,1.779
			c-3.018,0.427-6.031,0.879-9.043,1.36c-0.385-0.737-0.775-1.477-1.164-2.217c-3.516-5.978-7.084-12.072-10.707-18.282
			c-1.471,2.792-2.926,5.625-4.365,8.502c0.496,4.81,0.996,9.619,1.492,14.43c-2.73,0.517-5.455,1.057-8.18,1.618
			c-0.924-5.337-1.85-10.688-2.783-16.051c-0.51-3.393-1.02-6.786-1.531-10.187c-0.965-8.722-1.936-17.44-2.902-26.164
			c3.354-0.265,6.709-0.499,10.066-0.702c0.695,6.725,1.393,13.445,2.088,20.172c1.877-3.204,3.775-6.348,5.693-9.43
			c1.369-2.395,2.75-4.758,4.141-7.087c0.701-1.355,1.406-2.703,2.111-4.043C216.426,63.792,220.602,63.699,224.777,63.657z
			 M272.935,107.475c-13.305,0.65-26.57,1.826-39.783,3.524c-0.42-0.424-0.836-0.846-1.254-1.271
			c-0.939-7.1-1.891-14.215-2.848-21.355c0.738-0.301,1.479-0.603,2.219-0.898c1.723-0.31,3.449-0.607,5.177-0.894
			c1.252-0.065,2.504-0.127,3.754-0.182c0.084,1.114,0.166,2.227,0.246,3.343c0.498,0.58,0.998,1.159,1.494,1.737
			c-0.383,0.314-0.766,0.625-1.15,0.942c0.055,0.727,0.107,1.453,0.16,2.181c0.029,1.555,0.059,3.11,0.09,4.668
			c7.08-0.569,14.174-0.994,21.277-1.27c-0.203-1.251-0.41-2.501-0.613-3.754c-10.906-5.046-21.967-10.259-33.195-15.62
			c-0.563-5.006-1.129-10.02-1.695-15.039c-0.105-1.299-0.211-2.598-0.318-3.896c-0.314-0.676-0.631-1.352-0.947-2.028
			c0.521-0.623,1.045-1.242,1.57-1.857c6.463,0.1,12.927,0.315,19.396,0.65c4.475-0.101,8.957-0.13,13.439-0.091
			c1.066,0.084,2.127,0.174,3.193,0.264c0.971,0.332,1.943,0.663,2.914,0.997c0.457-0.23,0.916-0.453,1.373-0.679
			c0.236,0.222,0.475,0.445,0.711,0.666c0.049-0.062,0.098-0.124,0.146-0.187c0.561,0.786,1.117,1.57,1.674,2.35
			c-0.135,0.407-0.271,0.815-0.408,1.223c0.434,2.186,0.865,4.363,1.295,6.536c0.195,4.186,0.393,8.373,0.59,12.563
			c-3.27-0.354-6.541-0.683-9.816-0.988c-0.471-1.125-0.943-2.252-1.418-3.385c-0.043-0.801-0.09-1.599-0.133-2.4
			c-0.008-1.623-0.012-3.245-0.02-4.863c-7.344-0.332-14.689-0.508-22.025-0.533c0.105,0.755,0.213,1.509,0.318,2.259
			c8.996,4.494,17.885,8.892,26.674,13.185c0.967,0.939,1.932,1.87,2.893,2.794c1.109-0.193,2.221-0.378,3.33-0.559
			c0.26,5.435,0.518,10.869,0.777,16.308C272.326,103.773,272.632,105.625,272.935,107.475z M286.005,66.084
			c-0.043,0.95-0.086,1.906-0.125,2.858c-0.006,2.042-0.01,4.087-0.014,6.132c0.172,4.952,0.344,9.904,0.516,14.86
			c0.082,1.074,0.162,2.146,0.242,3.219c0.051,1.386,0.098,2.771,0.146,4.155c-0.033,3.75-0.063,7.502-0.088,11.264
			c-2.984-0.271-5.971-0.526-8.955-0.767c-0.293-0.083-0.59-0.167-0.883-0.249c-0.568-13.037-1.137-26.071-1.705-39.106
			c-0.182-0.373-0.363-0.748-0.543-1.124c0.205-0.766,0.412-1.527,0.621-2.29C278.814,65.348,282.408,65.7,286.005,66.084z
			 M323.492,97.342c-0.145,0.769-0.289,1.537-0.438,2.309c-0.129,1.067-0.258,2.134-0.387,3.205c0,0.556,0,1.113,0,1.668
			c0.061,0.737,0.119,1.477,0.18,2.213c-10.328-0.539-20.639-0.765-30.932-0.678c-0.506-5.164-1.018-10.343-1.533-15.541
			c-0.145-4.561-0.287-9.121-0.428-13.685c0.016-0.436,0.031-0.869,0.049-1.306c0.195-0.419,0.393-0.838,0.59-1.256
			c-0.395-0.598-0.785-1.199-1.18-1.802c-0.068-2.174-0.139-4.351-0.205-6.523c10.563,1.217,21.127,2.747,31.678,4.597
			c0.045,0.123,0.092,0.245,0.135,0.367c0.111,1.415,0.221,2.828,0.332,4.243c0.438,1.333,0.877,2.66,1.314,3.983
			c-6.111-0.92-12.223-1.729-18.336-2.432c-1.855-0.072-3.709-0.136-5.563-0.187c-0.102,0.186-0.201,0.371-0.301,0.555
			c0.141,0.953,0.283,1.906,0.426,2.857c0.041,0.533,0.084,1.067,0.125,1.604c1.566,0.136,3.131,0.278,4.697,0.432
			c1.248,0.049,2.5,0.106,3.752,0.165c2.061,0.407,4.119,0.816,6.18,1.238c1.029,0.305,2.059,0.608,3.086,0.912
			c0.008,1.134,0.018,2.27,0.025,3.404c-0.102,0.356-0.203,0.711-0.303,1.069c0.092,0.394,0.186,0.787,0.275,1.18
			c0.004,0.602,0.01,1.2,0.014,1.802c-5.916-0.547-11.826-0.992-17.74-1.333c-0.016,1.097-0.035,2.194-0.053,3.292
			c0.113,1.067,0.227,2.137,0.34,3.204c5.814,0.216,11.631,0.53,17.453,0.943c2.172-0.197,4.35-0.37,6.527-0.521
			C323.347,97.331,323.421,97.335,323.492,97.342z M364.054,80.188c-0.016,0.432-0.033,0.859-0.051,1.291
			c-0.25,1.705-0.5,3.415-0.748,5.127c-0.25,1.307-0.494,2.615-0.74,3.931c-2.994-0.633-5.988-1.24-8.982-1.82
			c0.039-1.38,0.08-2.757,0.119-4.136c-5.25-1.104-10.502-2.127-15.756-3.072c-0.25,0.93-0.504,1.861-0.756,2.797
			c-0.059,4.923-0.119,9.846-0.178,14.771c0.148,0.899,0.301,1.797,0.451,2.694c0.322,0.081,0.645,0.161,0.969,0.239
			c1.1,0.115,2.201,0.235,3.301,0.356c0.145,0.171,0.289,0.338,0.434,0.506c1.631,0.179,3.258,0.367,4.889,0.563
			c1.648,0.049,3.297,0.109,4.945,0.18c0.133-0.028,0.268-0.052,0.4-0.082c0.234,0.092,0.467,0.18,0.701,0.27
			c0.055-1.943,0.111-3.886,0.17-5.83c-4.271-0.669-8.539-1.286-12.807-1.849c0.043-2.764,0.086-5.53,0.129-8.294
			c7.504,1.227,15.004,2.613,22.5,4.167c-0.26,6.571-0.52,13.143-0.779,19.715c-11.457-1.419-22.908-2.448-34.346-3.094
			c0.039-12.146,0.08-24.289,0.119-36.436C340.062,74.437,352.07,77.107,364.054,80.188z M400.093,109.787
			c-0.193,0.522-0.389,1.047-0.582,1.571c-0.197,0.74-0.395,1.479-0.592,2.222c-0.033,0.396-0.064,0.792-0.1,1.188
			c0.012,0.539,0.027,1.077,0.041,1.613c-10.354-2.086-20.707-3.855-31.059-5.31c-0.174-3.908-0.355-7.833-0.535-11.778
			c0.148-3.412,0.301-6.826,0.453-10.238c0.043-0.319,0.09-0.641,0.135-0.959c0.221-0.28,0.447-0.558,0.67-0.831
			c-0.354-0.512-0.709-1.028-1.064-1.543c0.072-1.628,0.145-3.253,0.213-4.881c10.512,2.786,21.002,5.891,31.469,9.313
			c0.037,0.096,0.076,0.193,0.113,0.29c0.023,1.035,0.045,2.068,0.066,3.098c0.359,1.041,0.717,2.075,1.072,3.104
			c-6.078-1.829-12.158-3.551-18.246-5.166c-1.854-0.387-3.711-0.766-5.564-1.127c-0.115,0.117-0.227,0.235-0.338,0.352
			c0.082,0.728,0.164,1.453,0.244,2.179c0.008,0.4,0.014,0.8,0.023,1.2c1.561,0.371,3.123,0.748,4.686,1.134
			c1.25,0.252,2.502,0.516,3.754,0.783c2.043,0.658,4.084,1.33,6.123,2.004c1.016,0.404,2.029,0.813,3.043,1.218
			c-0.063,0.817-0.125,1.639-0.188,2.456c-0.123,0.237-0.248,0.476-0.371,0.716c0.066,0.297,0.135,0.599,0.203,0.897
			c-0.033,0.433-0.066,0.866-0.098,1.298c-5.908-1.43-11.82-2.757-17.732-3.983c-0.09,0.805-0.178,1.608-0.266,2.416
			c0.045,0.805,0.092,1.608,0.137,2.412c5.826,1.084,11.654,2.269,17.479,3.55c2.197,0.229,4.393,0.479,6.592,0.749
			C399.949,109.752,400.023,109.769,400.093,109.787z M102.059,126.314c-0.191-0.492-0.383-0.985-0.574-1.479
			c-0.408-2.277-0.814-4.554-1.223-6.829c-2.963,2.535-5.908,5.126-8.83,7.778c0.402,2.167,0.809,4.338,1.211,6.506
			c-6.23,2.413-12.441,4.953-18.627,7.611c-0.211-1.307-0.42-2.612-0.627-3.915c-0.041,0.054-0.084,0.108-0.125,0.164
			c0.045-0.811,0.094-1.621,0.143-2.429c-0.305-0.212-0.607-0.422-0.914-0.635c-1.385-6.912-2.77-13.823-4.156-20.738
			c0.016-0.714,0.033-1.429,0.049-2.143c-1.438-5.506-2.883-11.022-4.33-16.546c6.383-2.136,12.785-4.149,19.199-6.041
			c0.283,1.721,0.57,3.444,0.857,5.164c3.598-0.139,7.197-0.256,10.785-0.354c-0.32-1.573-0.643-3.146-0.965-4.717
			c-0.65-3.608-1.297-7.215-1.945-10.821c0.113-1.656,0.229-3.31,0.346-4.955c-0.322-0.198-0.646-0.395-0.969-0.591
			c-0.932-0.322-1.869-0.643-2.807-0.966c-12.607,3.135-25.17,6.731-37.67,10.794c1.24,5.968,2.48,11.937,3.721,17.905
			c-0.314,0.646-0.629,1.29-0.943,1.938c0.613,0.88,1.229,1.759,1.84,2.634c0.068,1.534,0.139,3.069,0.209,4.609
			c0.209,0.413,0.422,0.83,0.635,1.245c-0.049,0.019-0.1,0.038-0.148,0.056c0.027,0.905,0.055,1.813,0.084,2.718
			c0.453,0.553,0.904,1.1,1.357,1.647c1.168,5.618,2.334,11.233,3.502,16.851c0.064,0.816,0.129,1.636,0.197,2.456
			c0.438,1.081,0.869,2.165,1.303,3.243c1.334,6.428,2.67,12.85,4.004,19.275c0.734,1.359,1.463,2.716,2.189,4.069
			c0.814-0.555,1.631-1.102,2.449-1.646c7.18-3.432,14.393-6.694,21.639-9.791c0.076,0.041,0.154,0.08,0.229,0.122
			c1.346-0.574,2.689-1.143,4.037-1.705c2.123-0.634,4.24-1.253,6.363-1.864c0.199-0.507,0.396-1.013,0.596-1.518
			c0.076-0.811,0.154-1.621,0.23-2.43c-0.188-0.846-0.373-1.691-0.561-2.538c-0.633-3.534-1.266-7.07-1.9-10.607
			C101.967,127.333,102.012,126.825,102.059,126.314z"/>
	</g>
</g>
</svg>
