<?xml version="1.0" encoding="utf-8"?>
<!-- Generator: Adobe Illustrator 16.0.0, SVG Export Plug-In . SVG Version: 6.00 Build 0)  -->
<!DOCTYPE svg PUBLIC "-//W3C//DTD SVG 1.1//EN" "http://www.w3.org/Graphics/SVG/1.1/DTD/svg11.dtd">
<svg version="1.1" id="Layer_1" xmlns="http://www.w3.org/2000/svg" xmlns:xlink="http://www.w3.org/1999/xlink" x="0px" y="0px"
	 width="188.157px" height="186.842px" viewBox="0 0 188.157 186.842" enable-background="new 0 0 188.157 186.842"
	 xml:space="preserve">
<g>
	<linearGradient id="SVGID_1_" gradientUnits="userSpaceOnUse" x1="95.0791" y1="33.499" x2="95.0791" y2="152.3354">
		<stop  offset="0" style="stop-color:#AD6A3C"/>
		<stop  offset="0.376" style="stop-color:#AB693B"/>
		<stop  offset="0.5428" style="stop-color:#A66539"/>
		<stop  offset="0.6684" style="stop-color:#9C5F34"/>
		<stop  offset="0.7732" style="stop-color:#8E562E"/>
		<stop  offset="0.8651" style="stop-color:#7D4B25"/>
		<stop  offset="0.9466" style="stop-color:#683C1A"/>
		<stop  offset="1" style="stop-color:#562F0C"/>
	</linearGradient>
	<polygon fill="url(#SVGID_1_)" points="26.831,82.794 63.98,113.917 53.518,139.866 52.23,152.335 95.08,131.53 137.605,150.692 
		136.64,139.866 128.286,111.618 163.327,82.794 162.326,74.126 115.86,68.511 95.08,33.499 74.298,68.511 27.832,74.126 	"/>
	<g>
		<linearGradient id="SVGID_2_" gradientUnits="userSpaceOnUse" x1="43.3345" y1="87.5352" x2="146.8252" y2="87.5352">
			<stop  offset="0" style="stop-color:#EF5423"/>
			<stop  offset="0.8443" style="stop-color:#680013"/>
			<stop  offset="1" style="stop-color:#663C1F"/>
		</linearGradient>
		<polygon fill="url(#SVGID_2_)" points="128.021,129.235 121.766,98.909 146.825,78.599 112.029,74.394 95.08,45.835 
			78.128,74.394 43.334,78.599 68.392,98.909 62.137,129.235 95.08,114.833 		"/>
		<g>
			<defs>
				<polygon id="SVGID_3_" points="128.021,129.235 121.766,98.909 146.825,78.599 112.029,74.394 95.08,45.835 78.128,74.394 
					43.334,78.599 68.392,98.909 62.137,129.235 95.08,114.833 				"/>
			</defs>
			<clipPath id="SVGID_4_">
				<use xlink:href="#SVGID_3_"  overflow="visible"/>
			</clipPath>
			<g clip-path="url(#SVGID_4_)">
				<g>
					<linearGradient id="SVGID_5_" gradientUnits="userSpaceOnUse" x1="103.3887" y1="126.6807" x2="103.3887" y2="36.7358">
						<stop  offset="0" style="stop-color:#EF5423"/>
						<stop  offset="0.9764" style="stop-color:#680013"/>
						<stop  offset="1" style="stop-color:#663C1F"/>
					</linearGradient>
					<path fill="url(#SVGID_5_)" d="M100.684,126.171c-1.739,0.084-3.47,0.254-5.189,0.51c-0.06-29.98-0.117-59.963-0.177-89.945
						c5.433,1.193,10.819,2.662,16.143,4.398C107.867,69.481,104.274,97.827,100.684,126.171z"/>
				</g>
				<g>
					<linearGradient id="SVGID_6_" gradientUnits="userSpaceOnUse" x1="118.083" y1="136.1357" x2="118.083" y2="43.9019">
						<stop  offset="0" style="stop-color:#EF5423"/>
						<stop  offset="0.9764" style="stop-color:#680013"/>
						<stop  offset="1" style="stop-color:#663C1F"/>
					</linearGradient>
					<path fill="url(#SVGID_6_)" d="M134.859,50.71c-5.111-2.535-10.305-4.805-15.564-6.809
						c-5.997,30.746-11.992,61.49-17.987,92.234c1.316-0.238,2.646-0.412,3.988-0.518C115.15,107.315,125.004,79.015,134.859,50.71z
						"/>
				</g>
				<g>
					<linearGradient id="SVGID_7_" gradientUnits="userSpaceOnUse" x1="81.8271" y1="128.4014" x2="81.8271" y2="33.23">
						<stop  offset="0" style="stop-color:#EF5423"/>
						<stop  offset="0.9764" style="stop-color:#680013"/>
						<stop  offset="1" style="stop-color:#663C1F"/>
					</linearGradient>
					<path fill="url(#SVGID_7_)" d="M87.241,35.169c-5.477-0.922-10.998-1.57-16.545-1.939
						c5.729,31.725,11.458,63.447,17.188,95.172c1.675-0.512,3.368-0.938,5.074-1.279C91.053,96.472,89.146,65.819,87.241,35.169z"
						/>
				</g>
				<g>
					<linearGradient id="SVGID_8_" gradientUnits="userSpaceOnUse" x1="65.5537" y1="131.2588" x2="65.5537" y2="32.8647">
						<stop  offset="0" style="stop-color:#EF5423"/>
						<stop  offset="0.9764" style="stop-color:#680013"/>
						<stop  offset="1" style="stop-color:#663C1F"/>
					</linearGradient>
					<path fill="url(#SVGID_8_)" d="M62.463,32.888c-5.573-0.094-11.167,0.094-16.772,0.564
						c11.605,32.604,23.214,65.205,34.819,97.807c1.613-0.764,3.249-1.441,4.906-2.039C77.766,97.11,70.115,64.999,62.463,32.888z"
						/>
				</g>
				<g>
					<linearGradient id="SVGID_9_" gradientUnits="userSpaceOnUse" x1="49.3521" y1="135.2334" x2="49.352" y2="34.3589">
						<stop  offset="0" style="stop-color:#EF5423"/>
						<stop  offset="0.9764" style="stop-color:#680013"/>
						<stop  offset="1" style="stop-color:#663C1F"/>
					</linearGradient>
					<path fill="url(#SVGID_9_)" d="M37.389,34.358c-5.61,0.752-11.223,1.791-16.826,3.119
						c17.633,32.584,35.264,65.17,52.895,97.756c1.533-1.01,3.095-1.938,4.684-2.783C64.556,99.753,50.973,67.056,37.389,34.358z"/>
				</g>
				<g>
					<linearGradient id="SVGID_10_" gradientUnits="userSpaceOnUse" x1="33.3628" y1="140.3135" x2="33.3628" y2="39.6675">
						<stop  offset="0" style="stop-color:#EF5423"/>
						<stop  offset="0.9764" style="stop-color:#680013"/>
						<stop  offset="1" style="stop-color:#663C1F"/>
					</linearGradient>
					<path fill="url(#SVGID_10_)" d="M12.23,39.667C6.641,41.282,1.07,43.188-4.474,45.39
						c23.756,31.643,47.512,63.283,71.268,94.924c1.436-1.252,2.904-2.424,4.406-3.516C51.542,104.421,31.886,72.044,12.23,39.667z"
						/>
				</g>
				<g>
					<linearGradient id="SVGID_11_" gradientUnits="userSpaceOnUse" x1="132.2344" y1="135.6006" x2="132.2344" y2="54.6577">
						<stop  offset="0" style="stop-color:#EF5423"/>
						<stop  offset="0.9764" style="stop-color:#680013"/>
						<stop  offset="1" style="stop-color:#663C1F"/>
					</linearGradient>
					<path fill="url(#SVGID_11_)" d="M157.178,63.831c-4.842-3.318-9.784-6.377-14.813-9.174
						c-11.691,26.951-23.383,53.902-35.074,80.854c1.354-0.039,2.717-0.012,4.087,0.09
						C126.646,111.677,141.911,87.753,157.178,63.831z"/>
				</g>
				<g>
					<linearGradient id="SVGID_12_" gradientUnits="userSpaceOnUse" x1="145.7822" y1="136.5127" x2="145.7822" y2="68.9312">
						<stop  offset="0" style="stop-color:#EF5423"/>
						<stop  offset="0.9764" style="stop-color:#680013"/>
						<stop  offset="1" style="stop-color:#663C1F"/>
					</linearGradient>
					<path fill="url(#SVGID_12_)" d="M178.156,80.421c-4.514-4.086-9.146-7.918-13.886-11.49
						c-16.953,22.287-33.906,44.576-50.861,66.865c1.376,0.168,2.759,0.408,4.143,0.717
						C137.754,117.815,157.954,99.118,178.156,80.421z"/>
				</g>
			</g>
		</g>
		<path fill="#D2963F" d="M95.08,33.499l20.78,35.012l46.466,5.615l-33.624,27.256l7.938,38.484l-41.56-18.17l-41.562,18.17
			l7.938-38.484L27.832,74.126l46.467-5.615L95.08,33.499z M125.902,127.317l-5.852-28.377l23.447-19.006l-32.559-3.934
			L95.08,49.276L79.218,76.001L46.66,79.935L70.108,98.94l-5.853,28.377l30.825-13.477L125.902,127.317z"/>
	</g>
	<g>
		<g>
			<path fill="#005020" d="M132.412,88.762c0.188-0.771,0.141-1.6-0.244-2.493c-1.79-4.138-6.77-7.141-9.855-10.296
				c-1.238-1.268-2.735-3.82-4.812-3.467c-2.383,0.404-5.027,3.694-6.615,4.788c-7.087,4.89-13.635,10.487-20.353,15.855
				l5.874-7.394c0.742-1.008,1.082-2.153,0.51-3.475c-1.457-3.369-5.515-5.816-8.027-8.385c-1.012-1.034-2.228-3.113-3.92-2.825
				c-1.943,0.329-4.097,3.011-5.389,3.901c-5.744,3.961-11.053,8.497-16.496,12.848c-2.181-4.304-5.618-8.269-7.677-6.554
				c-3.739,3.116-26.34,20.825-30.993,23.747c-12.661,7.942-5.303,5.236-0.438,4.71c2.839-0.308,5.026-1.459,6.486-0.203
				c0.818,0.707-1.682,4.909-0.936,5.581c0.294,0.264-0.813,4.554-0.638,4.61c1.433,0.463,2.007-0.596,3.119-1.361
				c0.663-0.457,2.589-1.761,5.197-3.528c0.512,0.986,1.066,1.908,1.782,2.523c0.821,0.705,1.775,1.342,2.524,2.012
				c0.291,0.264,1.516,1.665,1.69,1.722c1.433,0.464,2.007-0.594,3.12-1.359c2.868-1.976,6.26-3.74,9.378-5.271
				c1.346-0.66,2.672-1.378,3.983-2.129c-2.257,3.991-3.771,6.733-3.872,7.015c-0.243,0.685,0.059,1.6,1.087,3.181
				c1.4,2.152,2.367,5.253,4.157,6.795c1.006,0.866,2.18,1.646,3.099,2.471c0.358,0.322,1.86,2.044,2.075,2.113
				c1.759,0.568,2.464-0.729,3.829-1.67c3.522-2.426,7.684-4.59,11.516-6.47c4.351-2.137,8.548-4.742,12.688-7.377
				c-2.056,3.701-3.43,6.233-3.513,6.46c-0.197,0.56,0.048,1.305,0.886,2.591c1.14,1.756,1.928,4.28,3.386,5.536
				c0.82,0.705,1.776,1.341,2.523,2.012c0.292,0.264,1.519,1.665,1.692,1.722c1.433,0.463,2.007-0.594,3.119-1.359
				c2.868-1.977,6.26-3.738,9.379-5.272c5.116-2.51,9.97-5.813,14.796-8.844c2.059,3.147,4.577,5.39,6.217,4.023
				c3.742-3.118,26.339-20.827,30.993-23.747c12.662-7.941,5.303-5.237,0.439-4.71c-2.841,0.308-5.028,1.457-6.487,0.202
				c-0.818-0.705,1.681-4.91,0.935-5.58c-0.293-0.263,0.813-4.554,0.639-4.609c-1.433-0.465-2.009,0.593-3.12,1.36
				c-0.822,0.566-3.602,2.446-7.217,4.893c-1.395-1.22-2.86-2.367-4.006-3.539c-1.012-1.033-2.229-3.113-3.922-2.826
				c-1.94,0.329-4.095,3.01-5.389,3.902c-2.655,1.833-5.22,3.788-7.747,5.791L132.412,88.762z"/>
		</g>
		
			<linearGradient id="SVGID_13_" gradientUnits="userSpaceOnUse" x1="110.3398" y1="137.8428" x2="110.3398" y2="71.7891" gradientTransform="matrix(0.9998 -0.0206 0.0206 0.9998 -18.3855 1.3753)">
			<stop  offset="0" style="stop-color:#006C32"/>
			<stop  offset="0.0538" style="stop-color:#007436"/>
			<stop  offset="0.2673" style="stop-color:#009542"/>
			<stop  offset="0.4272" style="stop-color:#30AB47"/>
			<stop  offset="0.5142" style="stop-color:#43B649"/>
			<stop  offset="0.7629" style="stop-color:#009442"/>
			<stop  offset="1" style="stop-color:#007A3B"/>
		</linearGradient>
		<path fill="url(#SVGID_13_)" stroke="#005221" stroke-miterlimit="10" d="M122.315,75.973c3.083,3.155,8.063,6.159,9.853,10.296
			c1.7,3.928-3.173,6.594-5.678,8.628c-8.66,7.027-17.094,13.945-26.567,19.882c-5.985,3.75-12.002,7.86-18.347,10.977
			c-3.831,1.88-7.993,4.044-11.516,6.47c-1.365,0.94-2.07,2.238-3.828,1.67c-0.215-0.069-1.717-1.791-2.076-2.113
			c-0.919-0.824-2.093-1.604-3.099-2.471c-1.79-1.542-2.757-4.643-4.156-6.794c-2.743-4.216-0.319-3.703,3.836-6.666
			c5.493-3.915,10.35-8.608,15.78-12.595c4.645-3.407,9.512-6.508,14.016-10.106c6.72-5.368,13.268-10.966,20.354-15.855
			c1.587-1.094,4.232-4.384,6.614-4.788C119.578,72.152,121.074,74.705,122.315,75.973z M34.805,110.331L34.805,110.331
			c-0.061-0.167-0.106-0.322-0.13-0.463C34.679,110.032,34.716,110.187,34.805,110.331z M34.805,110.331L34.805,110.331
			c-0.089-0.145-0.126-0.299-0.13-0.463c-0.087-0.527,0.086-0.891,0.462-1.228c0.517-0.802,1.315-1.626,1.612-2.222
			c0.318-0.642,0.629-1.287,1.069-1.826c0.604-0.737,1.308-1.38,1.939-2.087c1.724-1.93,3.276-4.041,4.906-6.049
			c3.273-4.028,6.359-8.232,9.404-12.435c2.674-3.69,3.087-1.698,2.098-2.709c-0.483-0.064-0.612-0.17-0.759-0.047
			c-3.739,3.116-26.339,20.825-30.993,23.747c-12.661,7.942-5.303,5.236-0.438,4.71c2.839-0.308,5.026-1.459,6.486-0.203
			c0.82,0.707-1.682,4.909-0.933,5.581c0.291,0.264-0.814,4.554-0.64,4.61c1.432,0.463,2.006-0.596,3.118-1.361
			c0.663-0.457,2.589-1.761,5.197-3.526c-0.531-1.026-1.023-2.12-1.604-3.013C35.213,111.212,34.954,110.732,34.805,110.331z
			 M34.675,109.868c-0.006-0.378,0.187-0.799,0.462-1.228C34.761,108.978,34.588,109.341,34.675,109.868z M34.675,109.868
			c-0.006-0.378,0.187-0.799,0.462-1.228C34.761,108.978,34.588,109.341,34.675,109.868z M96.917,82.281
			c-1.457-3.369-5.515-5.816-8.027-8.385c-1.009-1.034-2.228-3.113-3.92-2.825c-1.942,0.329-4.097,3.011-5.389,3.901
			c-5.772,3.981-11.107,8.544-16.582,12.915c-3.668,2.932-7.632,5.456-11.416,8.234c-4.424,3.245-8.38,7.07-12.854,10.26
			c-1.626,1.159-2.926,1.667-3.591,2.259c-0.275,0.429-0.468,0.85-0.462,1.228c0.023,0.141,0.069,0.296,0.13,0.463
			c0.148,0.401,0.408,0.881,0.798,1.48c0.58,0.893,1.072,1.986,1.604,3.013c0.513,0.984,1.066,1.906,1.782,2.521
			c0.821,0.705,1.775,1.342,2.524,2.012c0.291,0.264,1.516,1.665,1.69,1.722c1.433,0.464,2.007-0.594,3.12-1.359
			c2.868-1.976,6.26-3.74,9.379-5.271c5.169-2.538,10.071-5.888,14.947-8.941c7.717-4.836,14.589-10.473,21.642-16.197
			C94.332,87.655,98.302,85.482,96.917,82.281z M151.892,102.027C151.892,102.027,151.892,102.027,151.892,102.027
			c-0.111,0.116-0.228,0.233-0.346,0.347C151.688,102.247,151.81,102.129,151.892,102.027z M164.182,96.781
			c-2.84,0.308-5.028,1.458-6.487,0.203c-0.818-0.708,1.682-4.912,0.936-5.581c-0.294-0.263,0.813-4.554,0.638-4.611
			c-1.433-0.463-2.009,0.595-3.12,1.36c-0.749,0.519-3.125,2.126-6.278,4.259c-0.098,0.067-0.479,0.322-0.942,0.637
			c1.665,1.457,3.231,3.019,4.025,4.854c0.698,1.613,0.032,2.968-1.061,4.125c0,0.001,0,0.001,0,0.001
			c-0.082,0.102-0.203,0.22-0.346,0.347c-1.028,0.983-2.314,1.82-3.222,2.557c-1.723,1.928-3.199,3.108-4.832,5.116
			c-3.272,4.029-6.381,8.217-9.402,12.435c-2.059,2.874-3.012,1.749-2.652,2.624c0.391,0.125,0.87,0.356,1.016,0.234
			c3.74-3.117,26.635-20.929,31.289-23.85C176.404,93.55,169.045,96.252,164.182,96.781z M151.546,102.374
			c-0.876,0.783-2.676,1.946-3.222,2.557C149.231,104.194,150.518,103.357,151.546,102.374z M151.546,102.374
			c-0.876,0.783-2.676,1.946-3.222,2.557C149.231,104.194,150.518,103.357,151.546,102.374z M152.952,97.901
			c-0.794-1.835-2.36-3.396-4.025-4.854c-1.395-1.217-2.856-2.362-4.002-3.532c-1.012-1.033-2.229-3.113-3.922-2.826
			c-1.94,0.329-4.095,3.01-5.387,3.902c-5.772,3.982-11.109,8.544-16.582,12.916c-3.669,2.932-7.634,5.457-11.418,8.234
			c-4.423,3.245-8.379,7.069-12.854,10.26c-3.386,2.411-5.358,1.993-3.126,5.427c1.142,1.756,1.928,4.28,3.386,5.536
			c0.82,0.705,1.776,1.341,2.525,2.012c0.29,0.264,1.517,1.665,1.69,1.722c1.433,0.463,2.007-0.594,3.119-1.359
			c2.868-1.977,6.26-3.738,9.379-5.272c5.17-2.536,10.071-5.884,14.946-8.938c7.719-4.838,14.59-10.474,21.642-16.197
			c0.546-0.61,2.346-1.773,3.222-2.557c0.118-0.113,0.234-0.23,0.346-0.348C152.984,100.869,153.65,99.515,152.952,97.901z"/>
	</g>
	<g>
		<g>
			<path fill="none" stroke="#545456" stroke-width="0.5616" stroke-miterlimit="10" d="M134.191,107.019
				c0,0,2.037-7.265,11.041-5.563"/>
			<path fill="none" stroke="#545456" stroke-width="0.5616" stroke-miterlimit="10" d="M135.048,108.598
				c0,0,3.415,2.252,8.591-5.267"/>
			<path fill="none" stroke="#545456" stroke-width="0.5616" stroke-miterlimit="10" d="M135.128,108.693
				c0,0,3.688-2.437,10.167,7.521"/>
		</g>
		<g>
			<g>
				<path d="M77.489,153.343l-1.427-2.207c-0.285-0.442-0.503-0.934-0.662-1.496l-0.078-0.309c-0.059-0.252-0.104-0.508-0.142-0.769
					c-0.054-0.386-0.087-0.668-0.117-0.946c-0.014-0.113-0.028-0.231-0.048-0.35l-0.022-0.139c-0.02-0.109-0.035-0.203-0.063-0.291
					c-0.174-0.545-0.58-1.185-1.011-1.861l-0.086-0.136c-0.134-0.21-0.313-0.455-0.502-0.718c-0.412-0.576-1.767,1.379-2.148,0.689
					l-1.885-2.697c-0.008-0.171-0.004-0.344,0.01-0.515c-0.023-0.167-0.111-0.434-0.197-0.692c-0.114-0.348-0.245-0.742-0.336-1.197
					c-0.119-0.603-0.204-1.209-0.29-1.813c-0.089-0.633-0.172-1.229-0.297-1.786c-0.023-0.112-0.051-0.248-0.081-0.401l-0.021-0.113
					c-0.014-0.072-0.031-0.169-0.055-0.282c-0.125,0.046-0.25,0.089-0.372,0.127c-0.678,0.212-1.31,0.282-1.923,0.205l-2.07-0.252
					l-0.143-2.08c-0.042-0.635-0.11-1.453-0.207-2.233c-0.01-0.078-0.02-0.155-0.03-0.231c-0.22-0.012-0.433-0.037-0.644-0.077
					c-0.679-0.131-1.299-0.411-1.852-0.832l-2.084-1.583l1.66-2.025c0.323-0.392,0.877-0.968,1.573-1.66l-1.37-0.577l1.585-1.838
					l-0.632-0.061l1.608-3.272c0.337-0.687,0.355-1,0.391-1.626c0.024-0.432,1.845-3.703,1.973-4.342h-3.178l2.367-4.77
					c0.269-2.171,0.753-2.378,1.434-3.935c0.479-1.096,0.893-2.042,1.013-2.866c0.115-0.785,0.061-1.729,0.003-2.73
					c-0.063-1.074-0.13-2.229,0.005-3.391l-0.804-0.364c0.377-1.336,0.693-2.705,1.027-4.154c0.348-1.513-0.247-2.2,0.188-3.725
					l-2.998,1.801c0.035-0.334,2.636-3.827,2.742-4.169l0.108-0.292c0.094-0.236,0.197-0.459,0.319-0.667
					c0.048-0.082,0.102-0.167,0.157-0.251c0.154-0.228,0.313-0.422,0.484-0.604c0.065-0.07,0.115-0.123,0.167-0.174
					c0.062-0.057,0.122-0.11,0.182-0.162c0.73-1.3,1.364-2.597,2.031-3.961l0.199-0.407c0.271-0.557,0.549-1.114,0.832-1.67
					l-0.91-0.099c0.001-0.003-1.459,0.002-1.458,0l1.724-3.135c0,0,0.827-1.054,1.471-1.76c0.54-0.593,1.144-1.254,1.861-1.839
					c-0.145-0.344-0.233-0.712-0.262-1.096l-0.118-1.615l1.42-0.78c0.198-0.108,0.402-0.209,0.611-0.298
					c-0.678-3.152,0.079-8.991,0.568-11.903c0.272-1.621,0.779-3.684,2.589-3.626c0.655,0.021,5.606,0.617,6.25,0.739
					c4.705,0.89,8.987,3.673,10.708,8.918c0.028-0.015,0.057-0.03,0.085-0.046l0.513-0.267c2.114-3.253,7.112-7.052,10.444-7.052
					c0.934,0,1.849,0.156,2.723,0.464c2.808,0.994,3.128,5.232,3.912,8.393c0.041,0.004,0.083,0.006,0.126,0.011l1.119,4.671
					c-0.324,0.196-0.674,0.386-1.052,0.568c1.709,1.662,2.667,3.87,2.682,6.277l0.005,0.951c3.538,2.281,5.98,5.896,7.832,9.304
					c3.21,1.271,5.382,5.222,5.321,9.995c-0.005,0.381-0.025,0.762-0.06,1.139c0.942,1.984,1.72,3.426,2.484,4.618
					c0.243,0.378,0.594,0.856,0.992,1.405c0.307,0.421,0.638,0.876,0.976,1.355c3.021,0.416,5.096,2.152,5.096,4.426
					c0,1.235-0.604,2.323-1.685,3.124c0.097,1.673-0.465,2.867-1.132,3.684l-0.169,6.06l-4.03-0.307l-0.023,0.408l-6.752-0.543
					c0.004,0.015,0.007,0.028,0.009,0.042c0.172,0.842,0.204,1.351,0.232,1.8c0.013,0.215,0.026,0.439,0.066,0.746
					c0.828,2.517,0.214,4.181-0.462,5.142c-1.355,1.929-4.009,2.702-7.868,2.286c-2.049,0.383-3.972-0.022-5.289-1.114
					c-1.055-0.327-2.699-0.894-3.71-1.549c-0.979-0.637-1.793-1.398-2.511-2.071c-0.885-0.827-1.721-1.611-2.322-1.611
					c-0.181,0-0.401,0.055-0.658,0.162c-2.088,0.874-4.85,4.555-4.659,6.827c0.149,1.787-0.098,3.423-0.337,5.003
					c-0.179,1.181-0.348,2.295-0.324,3.351c0.018,0.753,0.354,3.76,0.619,4.458c-0.002-0.004-0.153-0.39-0.599-0.74l0.08,3.843
					c-0.008,0.28-2.479-0.263-2.546,0.028l-0.872,3.773l-3.099-2.323c-0.622-0.467-1.264-0.962-1.808-1.514
					c-0.01,0.167-0.018,0.338-0.024,0.513c-0.025,0.574-0.054,1.222-0.164,1.902l-0.681,4.244l-3.372-2.663
					c-0.202-0.159-0.498-0.321-0.839-0.508c-0.484-0.267-1.085-0.596-1.679-1.073c-0.032-0.025-0.064-0.052-0.098-0.08
					c-0.71,1.627-1.642,3.323-3.088,4.344L77.489,153.343z M76.076,135.402l0.217,3.981c0.078,0.321,0.792,1.315,1.136,1.793
					c0.251,0.349,0.482,0.675,0.661,0.955l0.087,0.136c0.228,0.356,0.467,0.733,0.696,1.134c0.521-1.082,1.479-2.313,3.266-2.313
					l0.166,0.005c1.059,0.05,1.869,0.67,2.609,1.408c0.067-0.224,0.146-0.449,0.24-0.679l0.046-0.114
					c0.531-1.322,1.42-3.532,3.522-3.727l0.272-0.014c1.104,0,1.931,0.563,2.572,1.274c0.03-0.028,0.063-0.057,0.094-0.085
					l1.114-0.97c-0.008-0.191-0.013-0.345-0.015-0.454c-0.034-1.488,0.175-2.877,0.379-4.217c0.205-1.354,0.398-2.632,0.298-3.825
					c-0.396-4.712,3.834-10.268,7.735-11.903c0.879-0.367,1.756-0.554,2.609-0.554c2.595,0,4.356,1.648,5.771,2.976
					c0.619,0.58,1.205,1.128,1.806,1.518c0.286,0.187,1.344,0.652,2.962,1.112l0.743,0.21l0.497,0.592
					c0.039,0.023,0.664,0.14,1.34-0.022l0.451-0.109l0.459,0.06c0.633,0.078,1.216,0.12,1.737,0.12c0.985,0,1.527-0.148,1.752-0.25
					c-0.008-0.131-0.045-0.385-0.192-0.79l-0.119-0.471c-0.096-0.62-0.122-1.027-0.146-1.412c-0.023-0.366-0.038-0.609-0.139-1.104
					c-0.784-3.825-1.018-7.318-0.693-10.383l2.695,0.143l1.919-1.263l0.18,0.321c0.415,0.884,0.658,1.604,0.835,2.161l1.3,0.062
					l0.266,2.97l0.445,0.037l0.023-0.386l3.873,0.294l0.084-3.021l0.998-0.729c0.088-0.118,0.114-0.467-0.117-1.149l-0.684-2.016
					l-0.249-0.001l-0.746-1.123c-0.526-0.796-1.076-1.551-1.556-2.21c-0.467-0.641-0.873-1.203-1.157-1.646
					c-0.974-1.517-1.935-3.321-3.116-5.854l-0.319-0.686l0.109-0.748c0.062-0.412,0.096-0.837,0.101-1.261
					c0.038-3.061-1.355-5.151-2.372-5.303l-1.273-0.19l-0.594-1.142c-3.323-6.393-6.51-9.33-10.653-9.819l-1.408-0.167l-0.59-1.289
					c-0.464-1.014-0.615-1.997-0.474-3.094l0.232-1.829l1.814-0.332c0.176-0.033,0.355-0.058,0.536-0.075
					c-0.079-0.06-0.159-0.114-0.238-0.166l-1.589-1.031l0.548-1.813c0.208-0.688,0.331-1.384,0.368-2.066l0.022-0.439l-0.018-0.366
					c-0.108-2.193-1.107-3.885-2.607-4.416c-1.908-0.676-4.383,0.718-5.796,3.188l-0.369,0.645l-1.777,0.927
					c-1.042,0.545-2.147,1.125-3.133,1.601l-3.298,1.589l-0.313-3.647c-0.043-0.522-0.114-0.996-0.217-1.447
					c-0.827-3.643-3.482-6.392-6.176-6.392c-0.282,0-0.564,0.03-0.838,0.094c-1.302,0.295-2.408,1.281-3.11,2.777
					c-0.804,1.71-0.981,3.816-0.502,5.932c0.136,0.6,0.338,1.213,0.599,1.821l1.445,3.364l-1.925,0.08
					c-0.392,1.051-1.412,1.872-2.41,2.577l0.909,0.045l-2.135,3.602c-0.375,0.635-0.718,1.271-1.05,1.911l-0.231,0.444
					c-0.274,0.538-0.538,1.071-0.8,1.606l-0.198,0.405c-0.085,0.174-0.171,0.349-0.256,0.523l0.66-0.011l-1.403,3.521
					c-0.865,2.172-1.416,4.559-1.998,7.086c-0.194,0.84-0.392,1.696-0.604,2.553l0.743,0.411c-0.406,0.804-0.329,2.123-0.248,3.521
					c0.069,1.208,0.142,2.459-0.046,3.752c-0.22,1.495-0.812,2.85-1.383,4.158c-0.333,0.759-0.654,1.495-0.904,2.247l2.678,1.364
					c-0.588,1.763-1.49,2.894-2.216,3.802c-0.57,0.714-1.021,1.279-1.372,2.136c-0.31,0.758-0.333,1.157-0.367,1.76
					c-0.037,0.642-0.079,1.399-0.411,2.389l0.382,0.338l0.723,0.416c-0.212,0.353-0.384,0.648-0.556,0.948l-0.068,0.116
					c-0.035,0.061-0.07,0.122-0.105,0.184l2.364,0.996l-2.69,2.651c-0.191,0.188-0.482,0.471-0.827,0.804
					c-0.108,0.105-0.228,0.222-0.354,0.344c0.445,0.456,0.827,1.115,1.04,2.061c0.069,0.307,0.132,0.652,0.193,1.08
					c0.261-0.051,0.535-0.081,0.822-0.081l0.19,0.004c0.46,0.026,0.88,0.127,1.272,0.298c1.793,0.786,2.206,2.945,2.507,4.52
					l0.072,0.365c0.141,0.627,0.234,1.233,0.317,1.824L76.076,135.402z"/>
			</g>
		</g>
		<ellipse transform="matrix(-0.9999 -0.013 0.013 -0.9999 246.7152 186.0006)" cx="123.96" cy="92.201" rx="7.42" ry="10.137"/>
		<path fill="#7F4E3B" d="M111.088,68.17c-1.671,4.724-6.009,7.496-9.693,6.195c-3.686-1.303-5.317-6.187-3.65-10.911
			c1.671-4.725,7.203-9.872,10.888-8.57C112.315,56.188,112.757,63.446,111.088,68.17z"/>
		<g>
			<path d="M116.755,75.776l-2.773-0.259c-0.691-0.064-1.311-0.209-1.855-0.339c-0.768-0.18-1.257-0.286-1.683-0.207l-0.909-4.962
				c0.186-0.034,0.367-0.06,0.546-0.077c-0.94-0.694-2.189-1.095-3.307-1.037l-0.255-1.976c-0.868,0.169-1.731,0.38-2.588,0.635
				c-0.71,0.216-4.424,1.191-6.282-1.347c-0.254-0.346-0.428-0.691-0.538-1.031c-3.812,1.967-5.394,2.54-6.885,1.657l2.568-4.342
				c-0.692-0.409-1.288-0.291-1.294-0.29c0.725-0.152,3.354-1.531,4.768-2.273c1.808-0.948,2.956-1.544,3.758-1.824l2.758-0.968
				l0.554,2.869c0.188,0.976,0.005,1.836-0.287,2.552c0.048-0.118,0.881-0.231,1.022-0.266c0.368-0.09,0.738-0.172,1.108-0.248
				c0.741-0.153,1.485-0.281,2.235-0.381c1.482-0.195,2.979-0.291,4.476-0.277c1.063,0.01,0.806-0.901,3.05,0.645
				c0.143,0.099,1.773,0.968,1.757,1.003c-0.354,0.744-0.677,1.504-1.059,2.235c-0.284,0.541-0.641,1.332-1.255,1.557
				c0.267,0.382,0.528,0.804,0.803,1.198c0.328,0.473,0.616,0.979,0.843,1.51c0.466,1.094,0.702,2.27,0.708,3.458L116.755,75.776z"
				/>
		</g>
		<path d="M123.174,119.158c0.245,1.202,0.126,1.462,0.308,2.636c0.078,0.497,0.15,0.992,0.217,1.487
			c0.084,0.626-1.419,1.384-1.419,1.384s-4.305-0.418-4.262,0.057c0.038,0.432-11.031-9.764-11.031-9.764l-0.419-8.914l5.176-6.843
			l10.223,3.878C128.279,101.785,119.907,103.226,123.174,119.158z"/>
		<g>
			<path fill="#560000" d="M121.59,120.692c-0.325-1.206-1.24-2.399-2.415-2.493c-0.727-0.06-0.738,0.534-0.624,1.123
				c0.097,0.245,0.162,0.486,0.17,0.718c-0.049-0.201-0.121-0.46-0.17-0.718c-0.261-0.65-0.771-1.301-1.196-1.732
				c-0.728-0.737-1.226-0.816-2.191-0.6c-0.799,0.18-1.955,0.64-2.309,1.48c-0.276,0.661-0.086,1.313,0.127,1.957
				c2.596,2.339,5.046,4.498,5.028,4.294c-0.022-0.25,1.167-0.252,2.296-0.197c0.634-0.659,1.126-1.486,1.341-2.32
				C121.762,121.759,121.733,121.225,121.59,120.692z"/>
		</g>
		
			<ellipse transform="matrix(-0.9999 -0.013 0.013 -0.9999 246.7115 185.8789)" fill="#FFFFFF" cx="123.959" cy="92.138" rx="5.074" ry="7.811"/>
		
			<linearGradient id="SVGID_14_" gradientUnits="userSpaceOnUse" x1="127.5693" y1="155.877" x2="134.5277" y2="154.8728" gradientTransform="matrix(0.9796 0.201 -0.201 0.9796 34.467 -66.6915)">
			<stop  offset="0" style="stop-color:#FFFFFF"/>
			<stop  offset="0.1443" style="stop-color:#FBFBFB"/>
			<stop  offset="0.2724" style="stop-color:#F1F1F1"/>
			<stop  offset="0.3944" style="stop-color:#DEDEDE"/>
			<stop  offset="0.5126" style="stop-color:#C5C5C5"/>
			<stop  offset="0.6281" style="stop-color:#A4A4A4"/>
			<stop  offset="0.7416" style="stop-color:#7B7B7B"/>
			<stop  offset="0.8535" style="stop-color:#4B4B4B"/>
			<stop  offset="0.9614" style="stop-color:#151515"/>
			<stop  offset="1" style="stop-color:#000000"/>
		</linearGradient>
		<polygon fill="url(#SVGID_14_)" points="127.614,115.852 133.994,116.335 134.191,109.291 128.973,107.358 		"/>
		
			<linearGradient id="SVGID_15_" gradientUnits="userSpaceOnUse" x1="130.1484" y1="79.0815" x2="137.0398" y2="80.8879" gradientTransform="matrix(0.9885 -0.151 0.151 0.9885 -16.3362 52.2965)">
			<stop  offset="0" style="stop-color:#FFFFFF"/>
			<stop  offset="0.3726" style="stop-color:#FDFDFD"/>
			<stop  offset="0.5069" style="stop-color:#F6F6F6"/>
			<stop  offset="0.6026" style="stop-color:#EBEBEB"/>
			<stop  offset="0.68" style="stop-color:#DADADA"/>
			<stop  offset="0.7463" style="stop-color:#C4C4C4"/>
			<stop  offset="0.805" style="stop-color:#A8A8A8"/>
			<stop  offset="0.8581" style="stop-color:#888888"/>
			<stop  offset="0.9069" style="stop-color:#626262"/>
			<stop  offset="0.9523" style="stop-color:#373737"/>
			<stop  offset="0.9926" style="stop-color:#090909"/>
			<stop  offset="1" style="stop-color:#000000"/>
		</linearGradient>
		<polygon fill="url(#SVGID_15_)" points="124.88,116.021 130.019,116.432 130.611,106.347 123.96,105.665 		"/>
		<path fill="#D29857" d="M66.425,123.824c-0.799,0.788-3.405,3.251-4.108,4.107c1.437,1.097,2.807-0.646,3.278,1.447
			c0.242,1.084,0.372,2.687,0.445,3.762c1.115,0.138,2.504-1.134,3.482-0.702c0.686,0.302,0.97,2.415,1.128,3.122
			c0.271,1.211,0.357,2.443,0.599,3.656c0.181,0.907,0.693,1.748,0.569,2.781c-0.05-1.073,1.103-2.015,1.954-2.477
			c0.069,1.27,1.533,2.935,2.189,3.966c0.533,0.841,1.083,1.679,1.371,2.583c0.374,1.179,0.166,2.644,0.848,3.696
			c1.126-0.795,1.922-2.538,2.445-3.801c0.259-0.624,0.518-2.404,1.555-2.354c0.533,0.026,1.729,1.595,2.217,1.984
			c0.819,0.656,1.743,0.97,2.502,1.569c0.236-1.476,0.003-2.96,0.587-4.388c0.199-0.486,0.852-2.227,1.467-2.284
			c0.797-0.072,1.725,2.069,2.135,2.571c0.462,0.563,1.217,1.134,1.812,1.578c0.218-0.941-0.502-2.78,0.418-3.582
			c0.879,0.825,2.086,1.59,2.949,2.267c-0.541-0.423-0.969-4.853-0.986-5.647c-0.063-2.757,0.901-5.43,0.669-8.197
			c-0.307-3.655,3.356-8.177,6.197-9.368c3.512-1.471,5.105,1.958,7.838,3.731c2.418,1.568,16.162,5.352,13.496-2.052
			c0.451,4.095-5.373,0.938-6.796-0.009c-3.078-2.049-4.579-4.552-4.616-8.835c-0.03-3.429-0.584-10.271,3.375-10.09
			c2.812,0.129,5.796,3.959,7.076,6.691c1.468,3.134,0.428,3.977,3.637,3.414c1.948-0.342,4.409,0.203,6.428-0.357
			c6.39-1.775-0.57-9.485-2.344-12.248c-5.584-8.701-8.56-24.801-19.944-26.145c-0.262-0.571-0.351-1.066-0.267-1.726
			c1.513-0.276,2.792,0.381,4.228,0.516c-0.026-4.463-4.3-6.793-7.569-6.629c2.244-0.47,5.148-1.172,7.153-2.388
			c-3.57-0.269-7.119,0.114-10.589,1.148c0,0-2.634,0.804-3.528-0.42c-0.896-1.223,1.499-2.567,1.178-4.233
			c-1.831,0.642-8.49,4.688-9.352,4.179c0.059-1.334,0.627-2.527,1.056-3.809c-2.509,1.479-4.212,5.64-6.889,6.606
			c-2.749,0.994-6.409-0.532-9.001,0.891c0.016,0.225,0.101,0.417,0.251,0.579c4.051-0.482,0.354,1.714-0.672,2.472
			c-1.606,1.186-2.712,3.205-4.446,3.982c1.092-0.429,2.285-0.341,3.535-0.28c-2.095,3.536-3.377,7.171-5.793,10.813
			c0.131-1.26,1.077-2.039,2.342-2.06c-1.468,3.682-2.083,7.869-3.17,11.726c0.405-0.624,0.97-1.166,1.402-1.878
			c-1.169,2.316-0.151,5.391-0.539,8.044c-0.369,2.538-2.315,4.978-2.726,8.304c1.513-1.17,2.024,0.617,3.22-0.968
			c-0.85,2.551-2.502,3.273-3.527,5.78c-0.976,2.38-0.109,2.956-1.198,5.17c1.128,0.109,1.948-0.576,2.413-1.671
			c-1.055,1.371-1.91,3.414-3.062,4.751L66.425,123.824z"/>
		<g>
			<path fill="none" d="M69.591,85.918c0.379-0.57,0.723-1.143,1.054-1.713C70.064,84.551,69.671,85.142,69.591,85.918z"/>
			<linearGradient id="SVGID_16_" gradientUnits="userSpaceOnUse" x1="62.2549" y1="133.3184" x2="122.7129" y2="72.8604">
				<stop  offset="0" style="stop-color:#693E22"/>
				<stop  offset="0.1513" style="stop-color:#7B4A2B"/>
				<stop  offset="0.3293" style="stop-color:#8A5533"/>
				<stop  offset="0.5201" style="stop-color:#965C39"/>
				<stop  offset="0.7309" style="stop-color:#9D613C"/>
				<stop  offset="1" style="stop-color:#9F623D"/>
			</linearGradient>
			<path fill="url(#SVGID_16_)" d="M77.333,146.07c0.277,0.87,0.237,1.895,0.47,2.797c0.41-1.566,0.739-3.145,0.808-4.796
				c0.194-4.71,1.932-9.082,3.076-13.6c0.397-1.567,2.989-7.583,0.898-8.233c0.192-1.594,1.059-3.166,1.699-4.624
				c0.328-0.742,1.827-3.021,0.03-2.72c0.015-1.128,1.068-3.146,1.404-4.37c0.23-0.839,0.474-2.906,1.336-3.111
				c-0.805,0.039-1.541-0.055-2.315-0.127c0.403-0.703,0.807-1.452,1.326-2.124c0.516-0.668,1.492-1.112,1.722-1.798
				c-0.991,0.109-2.729,0.779-3.66,0.425c0.132-0.136,0.528-0.444,0.569-0.62c0.64-2.678,3.397-4.596,5.787-5.627
				c2.73-1.176,6.225,0.221,8.522,1.675c2.668,1.687,5.58,3.261,8.472,4.671c1.427,0.696,2.78,1.555,4.165,2.297
				c0.182,0.099,0.394,0.228,0.618,0.367c0.353-2.115,1.203-3.781,3.184-3.691c2.812,0.129,5.796,3.959,7.076,6.691
				c1.468,3.134,0.428,3.977,3.637,3.414c1.948-0.342,4.409,0.203,6.428-0.357c6.39-1.775-0.57-9.485-2.344-12.248
				c-5.584-8.701-8.56-24.801-19.944-26.145c-0.262-0.571-0.351-1.066-0.267-1.726c1.513-0.276,2.792,0.381,4.228,0.516
				c-0.026-4.463-4.3-6.793-7.569-6.629c2.244-0.47,5.148-1.172,7.153-2.388c-3.57-0.269-7.119,0.114-10.589,1.148
				c0,0-2.634,0.804-3.528-0.42c-0.896-1.223,1.499-2.567,1.178-4.233c-1.831,0.642-8.49,4.688-9.352,4.179
				c0.059-1.334,0.627-2.527,1.056-3.809c-2.509,1.479-4.212,5.64-6.889,6.606c-2.749,0.994-6.409-0.532-9.001,0.891
				c0.016,0.225,0.101,0.417,0.251,0.579c4.051-0.482,0.354,1.714-0.672,2.472c-1.606,1.186-2.712,3.205-4.446,3.982
				c1.092-0.429,2.285-0.341,3.535-0.28c-1.767,2.982-2.962,6.032-4.739,9.101c0.363-0.217,0.802-0.339,1.288-0.347
				c-1.468,3.682-2.083,7.869-3.17,11.726c0.404-0.624,0.97-1.166,1.402-1.878c-1.169,2.316-0.151,5.391-0.539,8.044
				c-0.371,2.538-2.315,4.978-2.727,8.304c1.514-1.17,2.026,0.617,3.221-0.968c-0.85,2.551-2.503,3.273-3.528,5.78
				c-0.975,2.38-0.108,2.956-1.198,5.17c0.672,0.063,1.23-0.158,1.674-0.574c-0.747,1.227-1.45,2.641-2.322,3.654l1.68,0.708
				c-0.799,0.788-3.405,3.251-4.108,4.107c1.437,1.097,2.807-0.646,3.276,1.447c0.244,1.084,0.375,2.687,0.447,3.762
				c1.115,0.138,2.504-1.134,3.481-0.702c0.687,0.302,0.971,2.415,1.129,3.122c0.271,1.211,0.357,2.443,0.599,3.656
				c0.181,0.907,0.693,1.748,0.569,2.781c-0.05-1.073,1.103-2.015,1.954-2.477c0.069,1.27,1.533,2.935,2.189,3.966
				C76.496,144.328,77.045,145.166,77.333,146.07z"/>
		</g>
		<path fill="#9F623D" d="M78.611,65.459c1.247,5.505,5.738,9.177,10.03,8.205c4.294-0.975,6.762-6.226,5.517-11.729
			c-1.25-5.503-10.021-10.139-14.241-8.89C79.385,53.202,77.363,59.956,78.611,65.459z"/>
		<path fill="none" d="M113.304,122.074c0.155-1.149-0.96-2.369-0.443-3.604c0.354-0.841,1.51-1.301,2.31-1.48
			c0.965-0.217,1.464-0.138,2.191,0.6c0.585,0.592,1.336,1.603,1.367,2.45c-0.165-0.661-0.592-1.925,0.452-1.841
			c0.785,0.061,1.169,0.989,1.796,1.23c0.179,0.439,0.654,0.777,0.793,1.22c0.136,0.436-0.01,1.145-0.115,1.555
			c-0.319,1.241-1.248,2.476-2.357,3.146c-1.727,1.046-5.031,1.587-6.057-0.692c-0.534-1.188-0.5-2.371-0.324-3.617L113.304,122.074
			z"/>
		<path fill="#D29857" d="M86.154,69.774l0.863-0.504l2.193,3.766c2.083-1.229,3.076-4.674,2.245-8.348
			c-0.954-4.205-3.943-7.114-6.675-6.493c-2.736,0.621-4.177,4.532-3.223,8.738c0.951,4.206,3.941,7.113,6.674,6.494
			c0.015-0.003,0.027-0.01,0.042-0.013L86.154,69.774z"/>
		<ellipse fill="#F58C91" cx="132.905" cy="106.185" rx="4" ry="2.001"/>
		<path fill="none" stroke="#545456" stroke-width="0.5616" stroke-miterlimit="10" d="M129.058,106.118
			c-4.757-1.569-14.704,15.258-27.164,1.952"/>
		<path fill="none" stroke="#545456" stroke-width="0.5616" stroke-miterlimit="10" d="M129.18,106.221
			c-0.201-0.383-0.453-4.111-8.709-5.956c-7.669-1.409-16.083-5.322-13.287,2.792"/>
		<path fill="none" stroke="#545456" stroke-width="0.5616" stroke-miterlimit="10" d="M131.452,105.057
			c1.457,1.773-6.278-4.823-8.623-5.774c-3.577-1.646-6.296,6.748-14.197,13.673"/>
		
			<linearGradient id="SVGID_17_" gradientUnits="userSpaceOnUse" x1="1385.874" y1="657.1484" x2="1377.6027" y2="642.929" gradientTransform="matrix(-0.4832 -0.6103 -0.6183 0.5683 1182.6915 562.0244)">
			<stop  offset="0.0896" style="stop-color:#9F623D"/>
			<stop  offset="1" style="stop-color:#693E22"/>
		</linearGradient>
		<path opacity="0.5" fill="url(#SVGID_17_)" d="M111.665,94.718c0.448-2.514-0.146-5.048-0.688-4.788c0,0,0.317,2.106-3.782,3.341
			c1.786-0.368,0.643-3.918-0.345-4.649c1.796,0.084-0.306,0.473,1.523-1.068c3.252-2.735,5.484-6.123,3.707-8.586l0.589,0.018
			c2.2,2.142,6.13,5.03,8.046,16.828c-0.369-2.123-1.004-4.117-1.812-5.983c-0.652-1.497-1.432-2.871-2.335-4.133
			c-0.618-0.884-1.415-2.119-2.175-2.698c-1.031-0.787-1.813-0.297-1.683,0.567c0.178,1.081,2.331,1.678,2.765,3.027
			c0.479,0.229,2.102,7.248,1.705,7.669c-0.484-2.491-4.042-7.818-3.995-5.716L111.665,94.718z"/>
		<g>
			<path fill="#007732" d="M126.248,91.104c-0.536-0.549-0.39-1.494,0.101-1.974s1.439-0.606,1.977-0.058
				c0.534,0.547,0.387,1.493-0.104,1.973S126.783,91.65,126.248,91.104z"/>
			<circle cx="127.278" cy="90.17" r="1.242"/>
			<circle fill="#97999C" cx="127.564" cy="89.467" r="0.348"/>
		</g>
		<g opacity="0.6">
			
				<linearGradient id="SVGID_18_" gradientUnits="userSpaceOnUse" x1="248.7168" y1="348.9531" x2="236.1408" y2="327.3333" gradientTransform="matrix(1.4135 0.5875 -0.977 2.1237 78.1268 -757.7344)">
				<stop  offset="0.0896" style="stop-color:#9F623D"/>
				<stop  offset="1" style="stop-color:#693E22"/>
			</linearGradient>
			<path opacity="0.5" fill="url(#SVGID_18_)" d="M113.082,81.211l-1.973-2.792c-4.46-2.895-8.41-8.609-27.192,1.687
				c4.464-1.228,10.751-1.799,15.332-1.838c1.579-0.015,5.731,0.405,3.731,3.728c-1.05,1.744-5.177,0.649-6.831,0.521
				c-4.065-0.316-7.828,0.932-11.596,2.194c-1.492,0.499-3.149,1.724-4.587,2.082c4.614-1.149,17.958-0.373,14.162,1.387
				c-4.928,1.063-16.802,3.281-24.656,9.377c-0.002,0.065-0.005,0.129-0.008,0.193c1.902-1.013,5.338-2.707,8.241-3.239
				c5.707-1.682,9.512,0.782,2.987,3.53c-1.68,0.214,2.173-0.209,5.958-0.295c1.085-0.818,2.362-1.444,3.544-1.872
				c1.961-0.707,4.253-0.172,6.215,0.72c0.157-0.413,15.497,8.979,15.136,8.69C103.328,98.735,108.163,79.521,113.082,81.211z"/>
		</g>
		<g>
			
				<linearGradient id="SVGID_19_" gradientUnits="userSpaceOnUse" x1="111.1357" y1="124.8232" x2="111.2578" y2="136.4564" gradientTransform="matrix(1.0931 0.0808 -0.1223 0.9783 3.975 -45.0715)">
				<stop  offset="0" style="stop-color:#693E22"/>
				<stop  offset="0.1513" style="stop-color:#7B4A2B"/>
				<stop  offset="0.3293" style="stop-color:#8A5533"/>
				<stop  offset="0.5201" style="stop-color:#965C39"/>
				<stop  offset="0.7309" style="stop-color:#9D613C"/>
				<stop  offset="1" style="stop-color:#9F623D"/>
			</linearGradient>
			<path fill="url(#SVGID_19_)" d="M104.111,86.971c0.567,4.548,3.748,7.891,7.096,7.472c3.35-0.422,5.598-4.45,5.026-8.998
				c-0.572-4.547-3.751-7.891-7.098-7.469C105.786,78.396,103.535,82.425,104.111,86.971z"/>
			<g>
				<path d="M111.442,94.327c-2.753,0-5.395-2.844-6.28-6.76c-0.466-2.053-0.381-4.111,0.24-5.798
					c0.66-1.787,1.839-2.957,3.324-3.293c0.28-0.063,0.568-0.096,0.856-0.096c2.75,0,5.392,2.843,6.279,6.758
					c1,4.417-0.565,8.411-3.563,9.094C112.018,94.295,111.73,94.327,111.442,94.327L111.442,94.327z"/>
				<path fill="#FFFFFF" d="M105.863,87.109c0.883,3.897,3.697,6.583,6.285,5.999c2.59-0.589,3.97-4.226,3.086-8.126
					c-0.884-3.899-3.697-6.583-6.285-5.998C106.36,79.571,104.979,83.21,105.863,87.109z"/>
				<g>
					<path fill="#007732" d="M110.668,85.008c-1.385,0-2.419-1.382-2.419-2.62c0-1.237,1.034-2.622,2.419-2.622
						c1.38,0,2.415,1.385,2.415,2.622C113.083,83.626,112.048,85.008,110.668,85.008z"/>
					<circle cx="110.765" cy="82.502" r="2.241"/>
					<circle fill="#97999C" cx="110.218" cy="81.245" r="0.628"/>
				</g>
			</g>
		</g>
	</g>
</g>
</svg>
