<?xml version="1.0" encoding="utf-8"?>
<!-- Generator: Adobe Illustrator 16.0.0, SVG Export Plug-In . SVG Version: 6.00 Build 0)  -->
<!DOCTYPE svg PUBLIC "-//W3C//DTD SVG 1.1//EN" "http://www.w3.org/Graphics/SVG/1.1/DTD/svg11.dtd">
<svg version="1.1" id="Layer_1" xmlns="http://www.w3.org/2000/svg" xmlns:xlink="http://www.w3.org/1999/xlink" x="0px" y="0px"
	 width="216px" height="101.687px" viewBox="0 0 216 101.687" enable-background="new 0 0 216 101.687" xml:space="preserve">
<g>
	<g>
		<g>
			<g>
				<path fill="#D1A10D" d="M199.085,61.481c-2.112-1.928-4.484-3.143-4.505-4.611c-0.017-0.853,4.993-0.26,5.024-0.966
					c0-0.314,4.193-0.573,4.129-0.692c-0.604-1.179-1.859-1.368-3.241-2.011c-0.934-0.434-3.869-1.825-7.798-3.599
					c-0.124-0.054-0.598-0.27-1.178-0.529c0.057,1.729-0.059,3.399-0.919,4.608c-0.757,1.062-2.256,1.053-3.898,0.682
					c-0.001,0-0.001,0-0.001,0c-0.133-0.022-0.309-0.066-0.505-0.123c-1.465-0.385-3.001-1.003-4.2-1.375
					c-2.666-0.482-4.598-1.063-7.244-1.348c-5.206-0.456-12.581-8.82-17.964-8.756c-3.594,0.131-1.705,5.84-1.485,8.09
					c0.217,0.354,0.429,0.835,0.619,0.864c4.944,0.096,34.001,8.203,39.226,10.978C209.464,68.953,202.688,64.818,199.085,61.481z"
					/>
			</g>
			<g>
				<path fill="#D1A10D" d="M28.586,91.088c4.075-8.26,33.892-29.849,39.722-30.318c0.208-0.085,0.295-0.896,0.428-1.5
					c-0.617-1.159-2.533-14.161-6.855-14.007c-6.481,0.265-9.511,16.873-15.27,18.858c-2.954,0.983-4.953,2.409-7.833,3.812
					c-1.224,0.926-2.725,2.414-4.245,3.452c-0.201,0.148-0.383,0.268-0.526,0.337c0,0,0,0.001-0.002,0.001
					c-1.731,1.032-3.466,1.319-4.901-0.818c-1.635-2.438-2.649-6.012-3.485-9.719c-0.567,0.577-1.029,1.068-1.148,1.19
					c-3.831,4.028-6.575,7.397-7.456,8.447c-1.294,1.566-2.706,2.07-2.712,4.894c0.009,0.321,5.193,0.538,5.363,1.221
					c0.453,1.62,6.011-0.42,6.443,1.413c0.763,3.185-1.334,6.268-2.645,11.077C21.303,97.864,16.143,109.195,28.586,91.088z"/>
			</g>
			<path fill="#D1A10D" d="M158.723,49.927c-7.111-1.574-14.325-2.877-21.313-3.716c-6.995-0.846-14.236-1.289-21.36-1.091
				c-4.171,0.116-7.956,0.431-11.561,0.908c-10.313,1.474-14.919,2.849-20.375,4.316c-4.315,1.289-9.202,2.641-17.792,6.438
				c-3.277,1.475-7.366,3.596-11.533,6.148c-1.931,1.179-3.879,2.445-5.777,3.753c-3.511,2.392-7.891,5.763-11.262,8.553
				c-2.453,2.022-4.567,0.697-6.663-0.608c-0.974-0.604-1.9-1.172-2.759-1.32c-0.344-0.058-0.596-0.394-1.837-2.434
				c-0.386-0.629-0.737-1.212-0.908-1.415c-0.603-0.722-1.332-1.378-2.108-2.073c-0.701-0.626-1.414-1.262-2.051-1.957
				c-1.616-1.761-2.215-5.146-2.767-8.438c-0.312-1.854-0.6-3.607-1.068-5.086c-1.326-4.177-1.347-7.227,2.617-10.497
				c0.996-0.813,2.211-1.617,3.627-2.513c1.735-1.098,3.907-2.413,6.42-4.036c7.189-4.645,14.604-8.879,21.998-12.161
				c6.729-3.004,13.855-5.405,21.099-6.814c4.937-0.966,10.009-1.557,14.932-1.866c7.974-0.506,16.249-0.319,24.38,0.205
				c4.797,0.307,9.6,0.818,14.401,1.536c9.922,1.469,20.175,3.922,30.162,7.216c5.108,1.683,9.748,3.431,14.185,5.254
				c0.157,0.063,0.316,0.128,0.477,0.192c1.227,0.484,2.858,1.063,4.588,1.701c2.133,0.785,4.549,1.711,6.814,2.713
				c2.917,1.291,5.091,2.473,6.656,3.555c3.601,2.507,3.345,4.368,3.153,5.877c-0.049,0.381-0.099,0.74-0.076,1.084
				c0.066,1.264,0.433,2.74,0.807,4.286c0.844,3.458,1.59,6.888-0.694,8.859c-2.817,2.403-11.622-0.541-16.424-1.957
				c-1.062-0.323-2.121-0.639-3.186-0.949c-0.607-0.175-1.189-0.339-1.739-0.483C167.719,52.035,163.448,50.973,158.723,49.927z"/>
			
				<linearGradient id="SVGID_1_" gradientUnits="userSpaceOnUse" x1="105.5972" y1="68.1216" x2="105.5972" y2="13.0576" gradientTransform="matrix(0.9958 -0.0917 0.0917 0.9958 -4.0341 10.172)">
				<stop  offset="0" style="stop-color:#FCB316"/>
				<stop  offset="0.2538" style="stop-color:#FFD143"/>
				<stop  offset="0.5018" style="stop-color:#FFE969"/>
				<stop  offset="0.6368" style="stop-color:#FFF577"/>
				<stop  offset="1" style="stop-color:#FFC20E"/>
			</linearGradient>
			<path fill="url(#SVGID_1_)" d="M116.06,43.8c7.293-0.164,14.698,0.344,21.846,1.265c7.123,0.914,14.472,2.304,21.698,3.968
				c4.793,1.105,9.125,2.223,13.243,3.346c0.584,0.159,1.203,0.339,1.849,0.531c1.082,0.326,2.166,0.66,3.246,0.999
				c5.978,1.851,12.453,3.901,14.565,2.059c2.15-1.875,1.403-5.271,0.568-8.688c-0.389-1.605-0.772-3.138-0.85-4.479
				c-0.018-0.37,0.027-0.764,0.08-1.179c0.173-1.391,0.374-2.955-2.2-4.742c-1.272-0.881-3.146-1.891-5.73-3.038
				c-2.177-0.966-4.557-1.886-6.667-2.666c-2.076-0.772-4.018-1.465-5.458-2.054c-4.455-1.838-9.118-3.599-14.257-5.297
				c-10.072-3.333-20.435-5.819-30.459-7.304c-4.87-0.728-9.739-1.241-14.603-1.546c-8.291-0.523-16.725-0.687-24.833-0.135
				c-4.968,0.333-10.087,0.96-15.054,1.964c-7.247,1.449-14.426,3.926-21.188,7.011c-7.511,3.407-15.046,7.804-22.371,12.667
				c-2.641,1.75-4.89,3.156-6.688,4.329c-1.353,0.884-2.514,1.679-3.386,2.409c-1.809,1.512-2.821,2.751-1.312,7.547
				c0.504,1.601,0.816,3.523,1.127,5.375c0.522,3.167,1.09,6.427,2.527,8.005c0.629,0.69,1.333,1.32,2.022,1.944
				c0.78,0.7,1.578,1.429,2.228,2.212c0.185,0.227,0.578,0.867,1.002,1.566c0.445,0.73,1.18,1.955,1.389,2.118
				c0.919,0.144,1.93,0.767,2.992,1.433c1.663,1.044,3.514,2.234,4.879,1.096c3.395-2.847,7.832-6.305,11.389-8.753
				c1.933-1.344,3.914-2.646,5.875-3.859c4.266-2.634,8.452-4.821,11.795-6.33c8.757-3.89,13.741-5.258,18.126-6.562
				c5.537-1.482,10.23-2.879,20.736-4.339C107.895,44.197,111.779,43.893,116.06,43.8z"/>
		</g>
	</g>
	<g>
		<g>
			<path fill="#FFFFFF" stroke="#000000" stroke-width="2.2536" stroke-miterlimit="66" d="M70.515,17.954
				c-2.18,0.063-4.359,0.142-6.54,0.236c0.907,9.189,1.816,18.381,2.723,27.572c0.651,6.601,1.302,13.2,1.956,19.801
				c0.001,0,0.002-0.001,0.004-0.001c1.413,0.627,2.826,1.246,4.233,1.859c1.856-0.373,3.716-0.735,5.577-1.084
				c-1.234-13.898-2.468-27.798-3.703-41.696C73.357,22.434,71.94,20.204,70.515,17.954z"/>
			<path fill="#FFFFFF" stroke="#000000" stroke-width="2.2536" stroke-miterlimit="66" d="M98.603,18.133c0,0-0.001,0-0.002,0
				c0-0.008,0-0.015-0.001-0.022c-1.824-0.07-3.648-0.13-5.474-0.183c0.001,0.01,0.001,0.016,0.003,0.023c-0.001,0-0.001,0-0.001,0
				c0.348,5.052,0.696,10.104,1.045,15.157c0.398,5.795,0.798,11.592,1.197,17.387c-0.064,0.02-0.127,0.04-0.191,0.06
				c-2.483-8.6-5.023-17.366-7.618-26.3c-0.823-2.125-1.653-4.265-2.485-6.415c-0.005-0.021-0.011-0.04-0.016-0.058
				c-3.492-0.034-6.986-0.03-10.481,0.018c0.001,0.007,0.002,0.015,0.002,0.022h-0.001c1.29,15.094,2.577,30.187,3.866,45.281
				c1.012,0.697,2.021,1.391,3.027,2.076c1.582-0.271,3.163-0.535,4.747-0.788c-0.743-9.531-1.488-19.062-2.231-28.592
				c2.519,8.59,4.982,17.025,7.395,25.307c0.609,0.744,1.217,1.483,1.822,2.218c2.99-0.43,5.985-0.834,8.986-1.202
				c-0.803-12.601-1.606-25.202-2.409-37.804C99.388,22.261,98.994,20.2,98.603,18.133z"/>
			<path fill="#FFFFFF" stroke="#000000" stroke-width="2.2536" stroke-miterlimit="66" d="M126.559,20.394
				c-1.813-0.195-3.628-0.378-5.443-0.552c-0.438,1.815-0.871,3.643-1.303,5.484c0.319,6.832,0.639,13.666,0.958,20.501
				c-0.621-2.145-1.243-4.301-1.869-6.47c-0.033-0.113-0.065-0.227-0.098-0.339c-1.877-6.511-3.782-13.135-5.716-19.872
				c-3.478-0.271-6.959-0.503-10.443-0.694c0,0.001,0,0.001,0,0.001l0,0c0.793,13.539,1.587,27.079,2.381,40.617l0,0
				c0.081,0.766,0.165,1.527,0.248,2.292c1.599-0.174,3.199-0.338,4.801-0.494c0.081-0.765,0.162-1.528,0.245-2.292
				c0,0,0-0.001,0.001-0.001c-0.462-8.486-0.925-16.971-1.388-25.457c0.107-0.019,0.214-0.04,0.322-0.059
				c2.683,9.279,5.309,18.337,7.885,27.179c3.021-0.246,6.047-0.456,9.075-0.641c0.634-0.746,1.271-1.484,1.909-2.214
				c0.001-0.001,0.001-0.001,0.001-0.001c0-0.001,0-0.001,0-0.003l0,0C127.603,45.053,127.081,32.725,126.559,20.394z"/>
			<g>
				<path fill="#FFFFFF" d="M59.606,12.062C59.606,12.062,59.606,12.062,59.606,12.062c0-0.003,0-0.005,0-0.009
					c-2.408,0.089-4.814,0.199-7.224,0.324c0,0.002,0,0.005,0,0.009c-0.001,0-0.001,0-0.001,0c0.011,0.268,0.023,0.537,0.031,0.805
					c0.185,4.958,0.378,9.937,0.578,14.927c0.007,0.183,0.013,0.367,0.021,0.552c-0.546-2.744-1.095-5.493-1.646-8.247
					c-2.363-2.477-4.749-4.989-7.155-7.534l0,0c0-0.001-0.001-0.005-0.002-0.009c-2.84,0.201-5.683,0.427-8.522,0.68
					c0.005,0.097,0.009,0.194,0.014,0.291c0.132,2.683,0.268,5.367,0.404,8.058c-2.817-2.479-5.663-4.995-8.535-7.546l0,0
					c-0.001-0.002-0.002-0.006-0.002-0.009c-2.421,0.26-4.84,0.536-7.26,0.833c0.168,0.751,0.334,1.498,0.503,2.247
					c4.331,19.357,8.536,38.505,12.612,57.433c2.569,0.284,5.133,0.569,7.692,0.857c2.942-0.849,5.892-1.663,8.852-2.446
					c-0.089-3.437-0.173-6.859-0.253-10.273c0.532,2.327,1.061,4.651,1.586,6.968l6.065,1.416c2.974-0.732,5.959-1.432,8.95-2.101
					c-0.456-16.796-0.822-33.388-1.099-49.77C63.359,17.061,61.491,14.577,59.606,12.062z"/>
				<path d="M41.209,76.868l-0.223-0.024c-2.559-0.288-5.122-0.573-7.69-0.857l-0.807-0.09l-0.171-0.793
					c-4.04-18.76-8.283-38.08-12.61-57.424l-0.775-3.459l1.234-0.151c2.425-0.298,4.851-0.575,7.277-0.835l0.446-0.059l0.801,0.68
					c2.064,1.833,4.115,3.647,6.15,5.443c-0.09-1.799-0.18-3.595-0.269-5.391l-0.068-1.373l1.08-0.096
					c2.826-0.251,5.7-0.48,8.542-0.681l0.576-0.035l0.515,0.594c2.111,2.232,4.207,4.439,6.284,6.619
					c-0.073-1.903-0.145-3.804-0.216-5.702l-0.035-0.896l0.004-0.023v-1.006l1.068-0.056c2.416-0.125,4.827-0.236,7.241-0.325
					l0.592-0.022l0.576,0.781c1.809,2.412,3.601,4.794,5.38,7.151l0.221,0.292l0.006,0.367c0.277,16.37,0.647,33.111,1.099,49.759
					l0.025,0.928l-0.905,0.202c-3.028,0.678-6.032,1.382-8.927,2.095l-0.263,0.065l-6.335-1.479
					c0.019,0.727,0.037,1.453,0.056,2.181l0.023,0.891l-0.861,0.228c-2.963,0.784-5.933,1.605-8.827,2.44L41.209,76.868z
					 M34.351,73.835c2.226,0.246,4.447,0.493,6.665,0.743c2.562-0.737,5.179-1.463,7.799-2.162c-0.081-3.139-0.157-6.267-0.23-9.387
					l-0.26-11.153l2.485,10.875c0.479,2.098,0.957,4.192,1.431,6.282l5.115,1.194c2.54-0.624,5.16-1.241,7.806-1.839
					c-0.438-16.225-0.797-32.531-1.068-48.488c-1.668-2.21-3.348-4.443-5.041-6.701c-1.834,0.07-3.668,0.152-5.503,0.245
					c0.181,4.854,0.371,9.735,0.567,14.627l0.021,0.549l0.617,14.584L51.906,28.89c-0.525-2.637-1.052-5.278-1.582-7.925
					c-2.173-2.278-4.365-4.586-6.574-6.922c-2.292,0.165-4.602,0.348-6.886,0.545c0.12,2.419,0.242,4.839,0.365,7.264l0.135,2.667
					l-2.004-1.764c-2.699-2.375-5.425-4.785-8.175-7.227c-1.836,0.199-3.671,0.407-5.507,0.627l0.23,1.031
					C26.175,36.264,30.361,55.318,34.351,73.835z"/>
			</g>
			<path fill="#FFFFFF" stroke="#000000" stroke-width="2.2536" stroke-miterlimit="66" d="M187.999,61.438
				c-0.06-2.002-0.116-4.006-0.176-6.005c-0.035-0.003-0.07-0.007-0.105-0.01c0-0.002,0-0.003,0-0.004
				c-2.082-0.256-4.163-0.497-6.245-0.723c-2.322,0.38-4.647,0.804-6.97,1.268c-0.735-2.993-1.472-6.012-2.209-9.066
				c-0.72-1.032-1.442-2.069-2.163-3.119c0.904-0.089,1.809-0.172,2.714-0.249c0.094-0.292,0.187-0.577,0.281-0.865
				c0.219,3.064,0.438,6.123,0.655,9.176c1.994,0.205,3.986,0.422,5.978,0.654c2.648-0.469,5.297-0.877,7.94-1.225
				c0.038,0.002,0.074,0.009,0.112,0.014c0.144-8.063,0.286-16.07,0.428-24.019c-0.035-0.01-0.07-0.02-0.105-0.03
				c0-0.002,0-0.002,0-0.003c-2.957-0.88-5.923-1.729-8.896-2.548c-2.391,0.884-4.788,1.851-7.187,2.904
				c0.041,0.555,0.079,1.113,0.12,1.668c-0.146-0.141-0.29-0.279-0.437-0.422c-2.794-0.723-5.593-1.423-8.397-2.104
				c-0.008,0-0.017-0.002-0.024-0.002c-0.027-0.008-0.054-0.015-0.081-0.021c-3.157-0.48-6.318-0.917-9.484-1.312
				c-1.632,1.262-3.265,2.575-4.894,3.934c0.289,9.824,0.581,19.649,0.871,29.474c1.891,0.011,3.783,0.032,5.678,0.067
				c1.825-0.564,3.652-1.104,5.481-1.616c0.038,0.002,0.077,0.004,0.114,0.004c-0.032-1.209-0.065-2.418-0.096-3.628
				c0.382,1.814,0.766,3.618,1.146,5.413c2.023,0.066,4.049,0.148,6.073,0.243c1.995-0.467,3.993-0.899,5.99-1.306
				c0.011,0.002,0.02,0.004,0.028,0.003c0.035,1.295,0.07,2.589,0.102,3.882c1.894,0.092,3.786,0.194,5.679,0.311
				c2.65-0.293,5.302-0.542,7.952-0.746C187.918,61.432,187.959,61.434,187.999,61.438z"/>
			<path fill="#FFFFFF" stroke="#000000" stroke-width="2.2536" stroke-miterlimit="66" d="M149.86,46.464
				c-0.01-0.303-0.02-0.604-0.028-0.907c-1.41-0.089-2.82-0.174-4.23-0.251c-1.289,0.916-2.578,1.858-3.861,2.823
				c0.039,1.188,0.078,2.373,0.118,3.559c-0.146-0.002-0.291-0.003-0.438-0.007c-1.126-0.147-2.253-0.293-3.378-0.437
				c-0.021-0.596-0.041-1.188-0.063-1.783c-0.053-1.549-0.107-3.097-0.162-4.646c2.438,0.093,4.874,0.208,7.313,0.338
				c1.401-1.016,2.805-2.003,4.211-2.962c0.002,0,0.003,0,0.005,0c-0.039-1.246-0.076-2.49-0.113-3.736
				c-0.009-0.322-0.02-0.643-0.029-0.963c-1.327-0.135-2.653-0.265-3.979-0.387c1.414-1.129,2.831-2.228,4.249-3.291
				c0,0,0.002,0,0.003,0c0,0,0,0,0-0.001l0,0c-0.075-2.535-0.153-5.067-0.229-7.604c-2.021-1.069-4.047-2.148-6.076-3.234
				c-1.92-0.291-3.839-0.571-5.762-0.838c-2.254,0.484-4.509,1.011-6.76,1.578c-0.839,1.593-1.675,3.206-2.508,4.842
				c0.373,9.403,0.746,18.807,1.12,28.21c2.111,0.757,4.22,1.507,6.325,2.25c1.628-0.052,3.259-0.094,4.889-0.127
				c1.785-0.83,3.571-1.626,5.362-2.393c1.409-0.706,2.823-1.392,4.235-2.057c0.009-0.002,0.018-0.006,0.025-0.01
				C150.02,51.774,149.939,49.119,149.86,46.464z M141.36,36.766c-1.277-0.108-2.556-0.209-3.835-0.307
				c-0.054-1.529-0.105-3.06-0.161-4.59c0.238,0.024,0.474,0.046,0.712,0.07c1.049,0.21,2.097,0.42,3.146,0.635
				C141.269,33.969,141.314,35.37,141.36,36.766z"/>
		</g>
		<g>
			<g>
				
					<linearGradient id="SVGID_2_" gradientUnits="userSpaceOnUse" x1="183.2979" y1="51.1099" x2="183.2979" y2="13.6138" gradientTransform="matrix(0.9998 -0.0211 0.0211 0.9998 -15.1287 15.1673)">
					<stop  offset="0" style="stop-color:#321600"/>
					<stop  offset="0.6085" style="stop-color:#623816"/>
					<stop  offset="0.801" style="stop-color:#613715"/>
					<stop  offset="0.8864" style="stop-color:#5B3210"/>
					<stop  offset="0.9504" style="stop-color:#502A07"/>
					<stop  offset="1" style="stop-color:#411E00"/>
				</linearGradient>
				<path fill="url(#SVGID_2_)" d="M174.4,55.982c-0.738-3.003-1.475-6.038-2.212-9.104c-0.723-1.028-1.444-2.068-2.167-3.116
					c0.906-0.091,1.811-0.173,2.715-0.25c0.121-0.383,0.244-0.76,0.366-1.138c0.227,3.163,0.452,6.318,0.677,9.467
					c1.993,0.206,3.987,0.423,5.978,0.654c2.65-0.469,5.301-0.878,7.947-1.227c0.145-8.07,0.286-16.081,0.428-24.036
					c-2.957-0.88-5.922-1.729-8.896-2.548c-2.391,0.884-4.788,1.851-7.187,2.903c0.043,0.584,0.083,1.17,0.125,1.755
					c-0.184-0.18-0.365-0.355-0.547-0.534c-2.796-0.723-5.596-1.423-8.398-2.102c-3.157-0.48-6.318-0.917-9.484-1.312
					c-1.633,1.262-3.264,2.575-4.895,3.934c0.291,9.824,0.582,19.648,0.871,29.475c1.892,0.01,3.784,0.031,5.679,0.067
					c1.829-0.566,3.659-1.107,5.491-1.618c-0.037-1.396-0.073-2.79-0.111-4.184c0.423,2.002,0.847,3.993,1.268,5.973
					c2.022,0.068,4.048,0.148,6.072,0.243c2.005-0.469,4.013-0.904,6.019-1.311c0.035,1.297,0.07,2.595,0.104,3.891
					c1.893,0.091,3.784,0.194,5.678,0.31c2.657-0.294,5.314-0.544,7.971-0.747c-0.059-2.002-0.116-4.006-0.176-6.009
					c-2.081-0.256-4.162-0.494-6.244-0.722C179.114,55.08,176.757,55.51,174.4,55.982z"/>
				
					<linearGradient id="SVGID_3_" gradientUnits="userSpaceOnUse" x1="85.7549" y1="54.0991" x2="85.7549" y2="4.5933" gradientTransform="matrix(0.9998 -0.0211 0.0211 0.9998 -15.1287 15.1673)">
					<stop  offset="0" style="stop-color:#321600"/>
					<stop  offset="0.6085" style="stop-color:#623816"/>
					<stop  offset="0.801" style="stop-color:#613715"/>
					<stop  offset="0.8864" style="stop-color:#5B3210"/>
					<stop  offset="0.9504" style="stop-color:#502A07"/>
					<stop  offset="1" style="stop-color:#411E00"/>
				</linearGradient>
				<path fill="url(#SVGID_3_)" d="M68.649,65.559c-1.56-15.789-3.118-31.58-4.677-47.369c2.181-0.094,4.36-0.175,6.54-0.236
					c1.427,2.25,2.842,4.48,4.25,6.689c1.234,13.897,2.47,27.796,3.703,41.695c-1.862,0.349-3.721,0.711-5.578,1.084
					C71.479,66.807,70.064,66.184,68.649,65.559z"/>
				
					<linearGradient id="SVGID_4_" gradientUnits="userSpaceOnUse" x1="102.9609" y1="52.0376" x2="102.9609" y2="4.5474" gradientTransform="matrix(0.9998 -0.0211 0.0211 0.9998 -15.1287 15.1673)">
					<stop  offset="0" style="stop-color:#321600"/>
					<stop  offset="0.6085" style="stop-color:#623816"/>
					<stop  offset="0.801" style="stop-color:#613715"/>
					<stop  offset="0.8864" style="stop-color:#5B3210"/>
					<stop  offset="0.9504" style="stop-color:#502A07"/>
					<stop  offset="1" style="stop-color:#411E00"/>
				</linearGradient>
				<path fill="url(#SVGID_4_)" d="M93.2,63.324c2.99-0.431,5.985-0.832,8.986-1.202c-0.803-12.601-1.606-25.202-2.409-37.804
					c-0.392-2.056-0.786-4.118-1.177-6.185c-1.825-0.072-3.65-0.131-5.477-0.183c0.749,10.856,1.497,21.712,2.244,32.567
					c-0.062,0.02-0.123,0.039-0.187,0.058c-2.485-8.606-5.027-17.381-7.624-26.321c-0.829-2.136-1.662-4.287-2.498-6.449
					c-3.494-0.035-6.988-0.026-10.483,0.018c1.289,15.094,2.576,30.188,3.865,45.28c1.012,0.697,2.021,1.391,3.028,2.077
					c1.581-0.27,3.162-0.535,4.746-0.788C85.471,54.86,84.727,45.33,83.983,35.8c2.519,8.588,4.982,17.024,7.395,25.306
					C91.986,61.849,92.595,62.59,93.2,63.324z"/>
				
					<linearGradient id="SVGID_5_" gradientUnits="userSpaceOnUse" x1="130" y1="48.7241" x2="130" y2="5.769" gradientTransform="matrix(0.9998 -0.0211 0.0211 0.9998 -15.1287 15.1673)">
					<stop  offset="0" style="stop-color:#321600"/>
					<stop  offset="0.6085" style="stop-color:#623816"/>
					<stop  offset="0.801" style="stop-color:#613715"/>
					<stop  offset="0.8864" style="stop-color:#5B3210"/>
					<stop  offset="0.9504" style="stop-color:#502A07"/>
					<stop  offset="1" style="stop-color:#411E00"/>
				</linearGradient>
				<path fill="url(#SVGID_5_)" d="M128.124,57.382c-0.524-12.331-1.046-24.66-1.568-36.988c-1.813-0.196-3.627-0.379-5.443-0.552
					c-0.438,1.816-0.871,3.643-1.301,5.484c0.319,6.832,0.637,13.665,0.956,20.5c-2.513-8.684-5.07-17.577-7.682-26.68
					c-3.479-0.271-6.96-0.504-10.443-0.694c0.794,13.539,1.587,27.077,2.381,40.616c0.081,0.766,0.166,1.53,0.247,2.295
					c1.601-0.174,3.2-0.337,4.802-0.493c0.082-0.768,0.164-1.532,0.245-2.295c-0.461-8.485-0.924-16.972-1.386-25.456
					c0.106-0.019,0.213-0.04,0.32-0.06c2.684,9.279,5.311,18.338,7.886,27.181c3.021-0.247,6.047-0.457,9.075-0.642
					C126.848,58.852,127.485,58.114,128.124,57.382z"/>
				
					<linearGradient id="SVGID_6_" gradientUnits="userSpaceOnUse" x1="153.6533" y1="47.0181" x2="153.6533" y2="10.187" gradientTransform="matrix(0.9998 -0.0211 0.0211 0.9998 -15.1287 15.1673)">
					<stop  offset="0" style="stop-color:#321600"/>
					<stop  offset="0.6085" style="stop-color:#623816"/>
					<stop  offset="0.801" style="stop-color:#613715"/>
					<stop  offset="0.8864" style="stop-color:#5B3210"/>
					<stop  offset="0.9504" style="stop-color:#502A07"/>
					<stop  offset="1" style="stop-color:#411E00"/>
				</linearGradient>
				<path fill="url(#SVGID_6_)" d="M145.599,45.306c1.411,0.078,2.82,0.161,4.231,0.252c0.089,2.955,0.178,5.914,0.267,8.87
					c-1.421,0.668-2.843,1.358-4.26,2.069c-1.791,0.767-3.578,1.563-5.362,2.393c-1.63,0.033-3.261,0.075-4.89,0.126
					c-2.105-0.741-4.213-1.492-6.325-2.251c-0.373-9.402-0.746-18.805-1.12-28.208c0.833-1.636,1.67-3.25,2.508-4.842
					c2.252-0.569,4.507-1.094,6.76-1.578c1.923,0.267,3.844,0.547,5.761,0.839c2.03,1.085,4.056,2.164,6.077,3.233
					c0.076,2.538,0.153,5.069,0.229,7.604c-1.419,1.064-2.838,2.163-4.252,3.292c1.326,0.125,2.652,0.251,3.979,0.387
					c0.047,1.565,0.096,3.13,0.143,4.697c-1.408,0.959-2.813,1.947-4.216,2.964c-2.438-0.13-4.874-0.245-7.313-0.338
					c0.077,2.144,0.15,4.285,0.226,6.428c1.125,0.145,2.251,0.289,3.378,0.439c0.146,0,0.291,0.003,0.437,0.005
					c-0.04-1.187-0.079-2.372-0.118-3.559C143.022,47.164,144.311,46.221,145.599,45.306z M141.219,32.574
					c-1.049-0.215-2.096-0.424-3.145-0.634c-0.238-0.023-0.475-0.046-0.712-0.07c0.054,1.532,0.106,3.062,0.161,4.59
					c1.279,0.098,2.558,0.199,3.835,0.307C141.312,35.37,141.267,33.969,141.219,32.574z"/>
				
					<linearGradient id="SVGID_7_" gradientUnits="userSpaceOnUse" x1="57.8511" y1="61.7261" x2="57.8511" y2="-1.5254" gradientTransform="matrix(0.9998 -0.0211 0.0211 0.9998 -15.1287 15.1673)">
					<stop  offset="0" style="stop-color:#321600"/>
					<stop  offset="0.6085" style="stop-color:#623816"/>
					<stop  offset="0.801" style="stop-color:#613715"/>
					<stop  offset="0.8864" style="stop-color:#5B3210"/>
					<stop  offset="0.9504" style="stop-color:#502A07"/>
					<stop  offset="1" style="stop-color:#411E00"/>
				</linearGradient>
				<path fill="url(#SVGID_7_)" d="M51.295,69.971c-0.525-2.318-1.055-4.64-1.586-6.968c0.08,3.414,0.164,6.838,0.253,10.273
					c-2.96,0.783-5.91,1.598-8.853,2.444c-2.558-0.285-5.122-0.572-7.691-0.855c-4.232-19.658-8.604-39.549-13.112-59.67
					c2.418-0.298,4.839-0.574,7.259-0.834c2.875,2.551,5.719,5.067,8.536,7.547c-0.142-2.784-0.281-5.564-0.418-8.341
					c2.842-0.252,5.683-0.477,8.526-0.679c2.406,2.545,4.791,5.057,7.154,7.534c0.552,2.754,1.101,5.503,1.646,8.247
					c-0.217-5.447-0.429-10.876-0.63-16.283c2.409-0.128,4.818-0.236,7.225-0.324c1.885,2.513,3.753,4.998,5.608,7.454
					c0.277,16.382,0.643,32.973,1.099,49.77c-2.991,0.669-5.976,1.368-8.951,2.1L51.295,69.971z"/>
			</g>
		</g>
		
			<linearGradient id="SVGID_8_" gradientUnits="userSpaceOnUse" x1="35.4224" y1="29.5825" x2="203.0605" y2="29.5825" gradientTransform="matrix(0.9998 -0.0211 0.0211 0.9998 -15.1287 15.1673)">
			<stop  offset="0" style="stop-color:#DEAF74"/>
			<stop  offset="0.934" style="stop-color:#DEC18C"/>
		</linearGradient>
		<path fill="url(#SVGID_8_)" d="M51.295,69.963c-2.805-12.352-5.683-24.848-8.636-37.481c-0.228,0.029-0.455,0.059-0.684,0.092
			c0.315,13.023,0.708,26.196,1.177,39.516c-3.256,0.883-6.501,1.807-9.735,2.768c-4.233-19.66-8.604-39.551-13.115-59.671
			c2.419-0.298,4.839-0.574,7.26-0.834c3.023,14.437,5.985,28.76,8.883,42.972c0.358-0.084,0.719-0.164,1.079-0.246
			c-0.008-2.938-0.01-5.865-0.009-8.783c-0.658-11.666-1.267-23.245-1.833-34.736c2.84-0.251,5.681-0.479,8.522-0.679
			c2.283,11.077,4.522,22.068,6.719,32.975c0.704,2.671,1.406,5.332,2.102,7.983c0.346-0.066,0.693-0.131,1.04-0.197
			c-0.62-13.877-1.181-27.632-1.686-41.265c2.41-0.126,4.815-0.235,7.224-0.323c0.404,18.269,0.918,36.79,1.547,55.562
			C57.855,68.36,54.569,69.144,51.295,69.963z M74.797,64.37c-2.053,0.384-4.103,0.781-6.147,1.192
			c-1.561-15.789-3.117-31.579-4.676-47.37c2.18-0.093,4.359-0.173,6.539-0.236C71.94,33.427,73.368,48.897,74.797,64.37z
			 M85.055,17.782c3.279,11.24,6.46,22.223,9.563,32.947c0.248-0.078,0.498-0.158,0.749-0.235
			c-0.748-10.855-1.497-21.71-2.244-32.567c1.826,0.052,3.65,0.113,5.475,0.183c0.896,13.905,1.792,27.811,2.687,41.712
			c-3.31,0.385-6.613,0.806-9.908,1.262c-3.133-10.757-6.352-21.771-9.667-33.048c-0.256,0.066-0.511,0.133-0.768,0.2
			c0.91,11.329,1.819,22.66,2.728,33.988c-1.745,0.276-3.488,0.56-5.23,0.854C77.15,47.985,75.863,32.894,74.575,17.8
			C78.069,17.754,81.563,17.749,85.055,17.782z M113.087,19.148c2.926,10.202,5.785,20.142,8.59,29.816
			c0.252-0.053,0.505-0.108,0.758-0.164c-0.442-9.651-0.882-19.306-1.321-28.956c1.816,0.172,3.631,0.356,5.443,0.552
			c0.522,12.328,1.044,24.659,1.567,36.987c-3.343,0.156-6.68,0.35-10.011,0.579c-2.831-9.71-5.72-19.687-8.681-29.927
			c-0.258,0.041-0.515,0.085-0.771,0.128c0.551,10.138,1.105,20.272,1.657,30.41c-1.768,0.155-3.532,0.32-5.296,0.496
			c-0.793-13.539-1.587-27.079-2.38-40.617C106.126,18.646,109.607,18.877,113.087,19.148z M137.696,41.42
			c0.115,3.276,0.231,6.55,0.346,9.825c1.124,0.144,2.25,0.291,3.376,0.44c0.297,0.003,0.597,0.007,0.894,0.015
			c1.162-0.112,2.32-0.217,3.481-0.315c-0.065-2.027-0.131-4.054-0.194-6.078c1.411,0.077,2.821,0.162,4.231,0.251
			c0.089,2.956,0.178,5.914,0.268,8.871c-1.974,0.786-3.947,1.61-5.914,2.469c-1.799,0.005-3.596,0.023-5.392,0.051
			c-2.321-0.839-4.645-1.69-6.971-2.551c-0.391-10.228-0.783-20.455-1.174-30.681c2.252-0.569,4.507-1.095,6.761-1.58
			c1.922,0.266,3.843,0.546,5.76,0.838c2.031,1.086,4.056,2.166,6.077,3.235c0.077,2.536,0.152,5.069,0.229,7.603
			c-1.417-0.17-2.835-0.331-4.256-0.486c-0.049-1.611-0.102-3.22-0.152-4.828c-1.153-0.268-2.308-0.53-3.465-0.793
			c-0.299-0.04-0.603-0.076-0.903-0.115c-1.162-0.027-2.325-0.046-3.487-0.062c0.104,2.977,0.21,5.954,0.313,8.93
			c3.895,0.295,7.79,0.638,11.678,1.033c0.048,1.566,0.096,3.131,0.144,4.697C145.464,41.885,141.579,41.627,137.696,41.42z
			 M153.852,25.414c3.167,0.396,6.329,0.836,9.484,1.315c2.803,0.68,5.603,1.379,8.397,2.104c0.756,0.736,1.51,1.468,2.265,2.193
			c0.074,2.759,0.146,5.514,0.219,8.273c-0.458,1.397-0.917,2.806-1.375,4.23c-0.905,0.076-1.81,0.16-2.714,0.25
			c0.722,1.049,1.444,2.087,2.164,3.117c0.907,3.759,1.813,7.472,2.717,11.141c-2.229-0.159-4.458-0.303-6.688-0.429
			c-0.854-3.911-1.711-7.868-2.567-11.87c-0.239-0.476-0.479-0.952-0.718-1.429c-1.469-0.226-2.938-0.446-4.404-0.657
			c0.12,4.535,0.242,9.07,0.365,13.606c-2.085-0.085-4.171-0.153-6.255-0.207C154.445,46.505,154.15,35.958,153.852,25.414z
			 M160.521,39.538c1.171,0.216,2.34,0.439,3.508,0.662c0.931,0.026,1.862,0.056,2.791,0.089c0.179-0.677,0.355-1.349,0.532-2.02
			c-0.053-2.058-0.105-4.116-0.161-6.173c-1.108-0.288-2.215-0.573-3.325-0.855c-1.193-0.14-2.387-0.275-3.578-0.405
			C160.364,33.737,160.443,36.634,160.521,39.538z M187.81,51.283c-2.188-0.324-4.38-0.631-6.571-0.922
			c-0.632-8.493-1.265-17.041-1.896-25.647c2.973,0.818,5.938,1.668,8.895,2.551C188.096,35.214,187.953,43.221,187.81,51.283z
			 M187.997,61.438c-2.083-0.181-4.167-0.347-6.251-0.499c-0.055-2.074-0.111-4.152-0.17-6.227c2.082,0.224,4.165,0.464,6.246,0.72
			C187.88,57.432,187.937,59.436,187.997,61.438z"/>
	</g>
</g>
</svg>
